<svg width="24" height="24" viewBox="0 0 24 24" fill="none" xmlns="http://www.w3.org/2000/svg">
<path fill-rule="evenodd" clip-rule="evenodd" d="M2 4.5C2 3.11929 3.11929 2 4.5 2H19.5C20.8807 2 22 3.11929 22 4.5V19.5C22 20.8807 20.8807 22 19.5 22H4.5C3.11929 22 2 20.8807 2 19.5V4.5ZM12.9109 7.91095C12.9109 7.40785 12.5031 7 12 7C11.4969 7 11.089 7.40785 11.089 7.91095V11.0891H7.91095C7.40785 11.0891 7 11.4969 7 12C7 12.5031 7.40785 12.9109 7.91095 12.9109H11.089V16.0891C11.089 16.5922 11.4969 17 12 17C12.5031 17 12.9109 16.5922 12.9109 16.0891V12.9109H16.0891C16.5922 12.9109 17 12.5031 17 12C17 11.4969 16.5922 11.0891 16.0891 11.0891H12.9109V7.91095Z" fill="currentColor"/>
</svg>
