<svg width="20" height="20" viewBox="0 0 20 20" fill="none" xmlns="http://www.w3.org/2000/svg">
<g id="item">
<path id="Color" fill-rule="evenodd" clip-rule="evenodd" d="M9.9987 1.6665C6.33242 1.6665 3.33203 4.65159 3.33203 8.29916C3.33203 10.5323 4.79295 12.9369 6.31815 14.8363C7.64503 16.4887 8.99195 17.7255 9.40387 18.1038C9.44578 18.1423 9.47801 18.1718 9.49955 18.1921C9.65895 18.2677 9.87258 18.3332 9.9987 18.3332C10.1248 18.3332 10.3384 18.2677 10.4978 18.1921C10.5194 18.1718 10.5516 18.1422 10.5936 18.1037C11.0055 17.7255 12.3524 16.4887 13.6792 14.8363C15.2044 12.9369 16.6654 10.5323 16.6654 8.29916C16.6654 4.65159 13.665 1.6665 9.9987 1.6665ZM9.9987 11.0653C8.57881 11.0653 7.41805 9.91268 7.41805 8.50268C7.41805 7.09268 8.57881 5.94001 9.9987 5.94001C11.4186 5.94001 12.5793 7.09268 12.5793 8.50268C12.5793 9.91268 11.4186 11.0653 9.9987 11.0653Z" fill="#292663"/>
</g>
</svg>
