<svg width="18" height="18" viewBox="0 0 18 18" fill="currentColor" xmlns="http://www.w3.org/2000/svg">
<path d="M11.7258 8.99822C11.7258 10.5044 10.505 11.7254 8.99895 11.7254C7.49293 11.7254 6.27206 10.5044 6.27206 8.99822C6.27206 7.49202 7.49293 6.271 8.99895 6.271C10.505 6.271 11.7258 7.49202 11.7258 8.99822Z" fill="currentColor"/>
<path d="M3.07413 8.82771L4.51435 7.43682C4.56377 7.3891 4.62378 7.36523 4.69438 7.36523C4.76498 7.36523 4.82499 7.3891 4.87441 7.43682L5.10738 7.67205C5.1568 7.71977 5.18151 7.77773 5.18151 7.84591C5.18151 7.91409 5.1568 7.97204 5.10738 8.01977L4.09076 9.00157L5.10738 9.98337C5.14268 10.0175 5.16386 10.055 5.17092 10.0959C5.18504 10.1368 5.18504 10.1811 5.17092 10.2288C5.16386 10.2697 5.14268 10.3038 5.10738 10.3311L4.87441 10.5663C4.82499 10.614 4.76498 10.6379 4.69438 10.6379C4.62378 10.6379 4.56377 10.614 4.51435 10.5663L3.07413 9.17543C3.02471 9.1277 3 9.06975 3 9.00157C3 8.93339 3.02471 8.87543 3.07413 8.82771Z" fill="currentColor"/>
<path d="M14.9259 9.17229L13.4857 10.5632C13.4362 10.6109 13.3762 10.6348 13.3056 10.6348C13.235 10.6348 13.175 10.6109 13.1256 10.5632L12.8926 10.328C12.8432 10.2802 12.8185 10.2223 12.8185 10.1541C12.8185 10.0859 12.8432 10.028 12.8926 9.98023L13.9092 8.99843L12.8926 8.01663C12.8573 7.98254 12.8361 7.94504 12.8291 7.90414C12.815 7.86323 12.815 7.81891 12.8291 7.77118C12.8361 7.73028 12.8573 7.69619 12.8926 7.66891L13.1256 7.43369C13.175 7.38596 13.235 7.3621 13.3056 7.3621C13.3762 7.3621 13.4362 7.38596 13.4857 7.43369L14.9259 8.82457C14.9753 8.8723 15 8.93025 15 8.99843C15 9.06661 14.9753 9.12457 14.9259 9.17229Z" fill="currentColor"/>
<path d="M8.82443 3.07414L7.43372 4.51454C7.386 4.56396 7.36214 4.62398 7.36214 4.69458C7.36214 4.76519 7.386 4.82521 7.43372 4.87463L7.66891 5.10764C7.71663 5.15707 7.77458 5.18178 7.84275 5.18178C7.91092 5.18178 7.96887 5.15707 8.01659 5.10764L8.99827 4.09089L9.97995 5.10764C10.014 5.14294 10.0515 5.16413 10.0924 5.17119C10.1333 5.18531 10.1777 5.18531 10.2254 5.17119C10.2663 5.16413 10.3004 5.14294 10.3276 5.10764L10.5628 4.87463C10.6105 4.82521 10.6344 4.76519 10.6344 4.69458C10.6344 4.62398 10.6105 4.56396 10.5628 4.51453L9.17211 3.07414C9.12439 3.02471 9.06644 3 8.99827 3C8.9301 3 8.87215 3.02471 8.82443 3.07414Z" fill="currentColor"/>
<path d="M9.17447 14.9259L10.5652 13.4855C10.6129 13.436 10.6368 13.376 10.6368 13.3054C10.6368 13.2348 10.6129 13.1748 10.5652 13.1254L10.33 12.8924C10.2823 12.8429 10.2243 12.8182 10.1561 12.8182C10.088 12.8182 10.03 12.8429 9.98231 12.8924L9.00063 13.9091L8.01895 12.8924C7.98487 12.8571 7.94737 12.8359 7.90647 12.8288C7.86556 12.8147 7.82125 12.8147 7.77353 12.8288C7.73263 12.8359 7.69854 12.8571 7.67127 12.8924L7.43608 13.1254C7.38836 13.1748 7.3645 13.2348 7.3645 13.3054C7.3645 13.376 7.38836 13.436 7.43608 13.4855L8.82679 14.9259C8.87451 14.9753 8.93246 15 9.00063 15C9.0688 15 9.12675 14.9753 9.17447 14.9259Z" fill="currentColor"/>
</svg>
