<svg width="16" height="17" viewBox="0 0 16 17" fill="none" xmlns="http://www.w3.org/2000/svg">
<path d="M8.00016 1.83334C9.88524 1.88286 11.4552 2.53508 12.7102 3.79C13.9651 5.04492 14.6173 6.61492 14.6668 8.5C14.6173 10.3851 13.9651 11.9551 12.7102 13.21C11.4552 14.4649 9.88524 15.1171 8.00016 15.1667C6.11508 15.1171 4.54508 14.4649 3.29016 13.21C2.03524 11.9551 1.38302 10.3851 1.3335 8.5C1.38302 6.61492 2.03524 5.04492 3.29016 3.79C4.54508 2.53508 6.11508 1.88286 8.00016 1.83334ZM8.99731 5.92572C9.2554 5.92572 9.46873 5.84889 9.63731 5.69524C9.80588 5.54159 9.89016 5.33572 9.89016 5.07762C9.89016 4.81953 9.80588 4.61365 9.63731 4.46C9.46873 4.30635 9.25794 4.22953 9.00493 4.22953C8.75191 4.22953 8.54112 4.30635 8.37254 4.46C8.20397 4.61365 8.11969 4.81953 8.11969 5.07762C8.11969 5.33572 8.20397 5.54159 8.37254 5.69524C8.54112 5.84889 8.74953 5.92572 8.99778 5.92572H8.99731ZM9.17588 11.2829C9.17588 11.2232 9.1808 11.1438 9.19064 11.0448C9.20048 10.9457 9.20048 10.8514 9.19064 10.7619L8.40207 11.6695C8.3227 11.7587 8.2408 11.8283 8.15635 11.8781C8.07191 11.9279 8 11.9429 7.94064 11.9229C7.85143 11.8832 7.81175 11.8137 7.82159 11.7143L9.13112 7.59238C9.18064 7.31461 9.13604 7.07651 8.99731 6.8781C8.85858 6.67969 8.6354 6.56064 8.32778 6.52096C7.98048 6.5308 7.60096 6.67715 7.18921 6.96C6.77746 7.24286 6.41778 7.60254 6.11016 8.03905V8.26238C6.10032 8.36175 6.10032 8.45603 6.11016 8.54524L6.89873 7.63762C6.9781 7.54842 7.06 7.47889 7.14445 7.42905C7.22889 7.37921 7.29588 7.36429 7.3454 7.38429C7.44477 7.43381 7.47953 7.51318 7.44969 7.62238L6.15492 11.7295C6.0854 11.9775 6.12016 12.1983 6.25921 12.3919C6.39826 12.5856 6.64127 12.717 6.98826 12.7862C7.48445 12.7764 7.90112 12.6325 8.23826 12.3548C8.5754 12.077 8.88794 11.7198 9.17588 11.2833V11.2829Z" fill="#292663"/>
</svg>
