<svg width="24" height="24" viewBox="0 0 24 24" fill="currentColor" xmlns="http://www.w3.org/2000/svg">
<path d="M5.25 11.25H20.25C20.469 11.25 20.6488 11.3203 20.7892 11.4608C20.9298 11.6013 21 11.781 21 12C21 12.219 20.9298 12.3987 20.7892 12.5392C20.6488 12.6797 20.469 12.75 20.25 12.75H5.25C5.031 12.75 4.85125 12.6797 4.71075 12.5392C4.57025 12.3987 4.5 12.219 4.5 12C4.5 11.781 4.57025 11.6013 4.71075 11.4608C4.85125 11.3203 5.031 11.25 5.25 11.25ZM5.5545 12L11.7892 18.2108C11.9297 18.3673 12 18.547 12 18.75C12 18.953 11.9257 19.1287 11.7773 19.2772C11.6287 19.4257 11.453 19.5 11.25 19.5C11.047 19.5 10.8672 19.4297 10.7108 19.2892L3.96075 12.5392C3.82025 12.3828 3.75 12.203 3.75 12C3.75 11.797 3.82025 11.6172 3.96075 11.4608L10.7108 4.71075C10.8672 4.57025 11.047 4.5 11.25 4.5C11.453 4.5 11.6287 4.57425 11.7773 4.72275C11.9257 4.87125 12 5.047 12 5.25C12 5.453 11.9297 5.63275 11.7892 5.78925L5.5545 12Z" fill="currentColor"/>
</svg>
