<svg width="24" height="24" viewBox="0 0 24 24" fill="currentColor" xmlns="http://www.w3.org/2000/svg">
<path d="M7.46353 2.95973C4.80861 4.51238 3.40577 7.69913 4.24026 10.8135L5.45599 15.3506L4.39762 18.4792C4.27944 18.8286 4.36313 19.2146 4.61538 19.4837C4.86762 19.7527 5.24747 19.8611 5.6037 19.7656L21.0585 15.6245C21.4147 15.5291 21.6895 15.2453 21.7735 14.8862C21.8574 14.5271 21.7368 14.1509 21.4598 13.9074L18.9789 11.7272L17.7632 7.19C16.9287 4.07566 14.1205 2.01727 11.0449 2.0001C9.4979 1.99164 8.22405 2.49899 7.46353 2.95973Z" fill="currentColor" fill-opacity="0.6"/>
<path d="M9.03776 20.5522C9.8864 21.549 11.2622 22.0268 12.6108 21.6654C13.9594 21.304 14.912 20.2024 15.1486 18.9149L9.03776 20.5522Z" fill="currentColor" fill-opacity="0.6"/>
</svg>
