<svg width="20" height="20" viewBox="0 0 20 20" fill="currentColor" xmlns="http://www.w3.org/2000/svg">
<g clip-path="url(#clip0_1549_47777)">
<rect width="20" height="20" rx="4" fill="currentColor"/>
<rect x="0.5" y="0.5" width="19" height="19" rx="3.5" stroke="white" stroke-opacity="0.4"/>
<path d="M6.07353 11.0034C5.94696 11.1838 5.9915 11.4321 6.17136 11.5574L6.44319 11.7466C5.99952 12.1757 5.40451 12.4185 4.78306 12.4185H4.04105V11.5595C4.04105 11.3406 3.86396 11.1631 3.64553 11.1631C3.42709 11.1631 3.25 11.3406 3.25 11.5595L3.25 15.6035C3.25 15.8225 3.42709 16 3.64553 16C3.86396 16 4.04105 15.8225 4.04105 15.6035L4.04105 14.7974H4.57718C5.99664 14.7974 7.38478 14.1991 8.37086 13.0886L8.76654 13.364C8.94619 13.4898 9.19542 13.4436 9.31896 13.2614L9.59003 12.8626L6.38125 10.5654L6.07353 11.0034Z" fill="white"/>
<path d="M16.5776 11.0387L16.4318 10.9388L13.3981 13.3686L14.2661 13.9951C14.4356 14.1174 14.6727 14.0865 14.8048 13.9221L16.6622 11.6152C16.8078 11.4342 16.7673 11.1684 16.5776 11.0387Z" fill="white"/>
<path d="M15.9649 9.6558L8.35953 4.15029C8.01793 3.90295 7.54362 3.96723 7.27972 4.29651L4.78023 7.41502C4.49598 7.76976 4.56773 8.29244 4.9372 8.55694L11.6657 13.3734C11.8094 13.4763 12.0042 13.4712 12.1424 13.3605L15.9802 10.287C16.1842 10.1237 16.1771 9.80939 15.9649 9.6558ZM13.1655 10.3569C12.947 10.3569 12.7699 10.1794 12.7699 9.96044C12.7699 9.74149 12.947 9.56397 13.1655 9.56397C13.3839 9.56397 13.561 9.74149 13.561 9.96044C13.561 10.1794 13.3839 10.3569 13.1655 10.3569Z" fill="white"/>
</g>
<defs>
<clipPath id="clip0_1549_47777">
<rect width="20" height="20" fill="white"/>
</clipPath>
</defs>
</svg>
