<svg width="14" height="8" viewBox="0 0 14 8" fill="none" xmlns="http://www.w3.org/2000/svg">
<path d="M9.03624 0.356445H1.6657C1.17525 0.357024 0.777922 0.754353 0.777344 1.2448V7.0908C0.777922 7.58124 1.17525 7.97857 1.6657 7.97915H9.03624C9.52657 7.97857 9.92401 7.58124 9.92459 7.0908V1.2448C9.92401 0.754353 9.52657 0.357024 9.03624 0.356445Z" fill="#3CC0FF"/>
<path d="M10.5156 5.40239L13.5684 7.06909V1.32129L10.5156 2.98799V5.40239Z" fill="#3CC0FF"/>
<path d="M1.27244 4.16697C1.17481 4.2646 1.17481 4.4229 1.27244 4.52053L2.86343 6.11152C2.96106 6.20915 3.11935 6.20915 3.21699 6.11152C3.31462 6.01389 3.31462 5.85559 3.21699 5.75796L1.80277 4.34375L3.21699 2.92954C3.31462 2.83191 3.31462 2.67361 3.21699 2.57598C3.11935 2.47835 2.96106 2.47835 2.86343 2.57598L1.27244 4.16697ZM9.08374 4.52053C9.18137 4.4229 9.18137 4.26461 9.08374 4.16697L7.49275 2.57598C7.39512 2.47835 7.23683 2.47835 7.1392 2.57598C7.04156 2.67361 7.04156 2.83191 7.1392 2.92954L8.55341 4.34375L7.13919 5.75796C7.04156 5.8556 7.04156 6.01389 7.13919 6.11152C7.23683 6.20915 7.39512 6.20915 7.49275 6.11152L9.08374 4.52053ZM1.44922 4.59375L8.90696 4.59375L8.90696 4.09375L1.44922 4.09375L1.44922 4.59375Z" fill="black"/>
</svg>
