<svg width="18" height="18" viewBox="0 0 18 18" fill="none" xmlns="http://www.w3.org/2000/svg">
<path fill-rule="evenodd" clip-rule="evenodd" d="M4.3129 5.25H9.78771C10.5098 5.25 11.1006 5.86453 11.1006 6.64665V11.3534C11.1006 12.1215 10.5098 12.75 9.78771 12.75H4.3129C3.59081 12.75 3 12.1215 3 11.3534V6.64665C3 5.87849 3.59081 5.25 4.3129 5.25ZM9.76336 9.28149C9.82586 9.19817 9.85711 9.10443 9.85711 9.00028C9.85711 8.89613 9.82586 8.80239 9.76336 8.71907L8.54462 7.21929C8.41181 7.0839 8.27899 7.09431 8.14618 7.25054C8.04462 7.4276 8.05243 7.60465 8.16962 7.78171L8.86102 8.62533H4.85323L5.54463 7.78171C5.66182 7.60465 5.66963 7.4276 5.56807 7.25054C5.43526 7.09431 5.30244 7.0839 5.16963 7.21929L3.95089 8.71907C3.88839 8.80239 3.85714 8.89613 3.85714 9.00028C3.85714 9.10443 3.88839 9.19817 3.95089 9.28149L5.16963 10.7813C5.22432 10.8438 5.28682 10.875 5.35713 10.875C5.43526 10.875 5.50557 10.8333 5.56807 10.75C5.66963 10.573 5.66182 10.3959 5.54463 10.2188L4.85323 9.37522H8.86102L8.16962 10.2188C8.05243 10.3959 8.04462 10.573 8.14618 10.75C8.20868 10.8333 8.27899 10.875 8.35712 10.875C8.42743 10.875 8.48993 10.8438 8.54462 10.7813L9.76336 9.28149Z" fill="white"/>
<path d="M13.8053 6.11592C13.8709 6.07402 13.9497 6.03212 14.0285 6.01816C14.5405 5.89246 15 6.31145 15 6.82821V11.1439C15 11.2975 14.9606 11.4372 14.895 11.5629C14.6718 11.9679 14.1991 12.1075 13.8184 11.8701L11.7571 10.6131V7.37291L13.8053 6.11592Z" fill="white"/>
</svg>
