<svg width="20" height="20" viewBox="0 0 20 20" fill="colorCurrent" xmlns="http://www.w3.org/2000/svg">
<g clip-path="url(#clip0_1035_52505)">
<rect width="20" height="20" rx="4" fill="colorCurrent"/>
<rect x="0.5" y="0.5" width="19" height="19" rx="3.5" stroke="white" stroke-opacity="0.4"/>
<path d="M10.7877 6.25L5.3129 6.25C4.59081 6.25 4 6.87849 4 7.64665L4 12.3534C4 13.1215 4.59081 13.75 5.3129 13.75H10.7877C11.5098 13.75 12.1006 13.1215 12.1006 12.3534V7.64665C12.1006 6.86453 11.5098 6.25 10.7877 6.25Z" fill="white"/>
<path d="M15.0285 7.01816C14.9497 7.03212 14.8709 7.07402 14.8053 7.11592L12.7571 8.37291V11.6131L14.8184 12.8701C15.1991 13.1075 15.6718 12.9679 15.895 12.5629C15.9606 12.4372 16 12.2975 16 12.1439V7.82821C16 7.31145 15.5405 6.89246 15.0285 7.01816Z" fill="white"/>
</g>
<defs>
<clipPath id="clip0_1035_52505">
<rect width="20" height="20" fill="white"/>
</clipPath>
</defs>
</svg>
