<svg width="20" height="20" viewBox="0 0 20 20" fill="currentColor" xmlns="http://www.w3.org/2000/svg">
<path d="M11.2035 5.83333H2.8392C1.73599 5.83333 0.833374 6.60148 0.833374 7.54034V13.293C0.833374 14.2318 1.73599 15 2.8392 15H11.2035C12.3067 15 13.2093 14.2318 13.2093 13.293V7.54034C13.2093 6.58441 12.3067 5.83333 11.2035 5.83333Z" fill="currentColor" fill-opacity="0.4"/>
<path d="M17.6824 6.77219C17.562 6.78926 17.4417 6.84047 17.3414 6.89168L14.2123 8.42799V12.3883L17.3615 13.9246C17.9432 14.2148 18.6653 14.0441 19.0062 13.549C19.1065 13.3954 19.1667 13.2247 19.1667 13.0369V7.76226C19.1667 7.13066 18.4647 6.61856 17.6824 6.77219Z" fill="currentColor" fill-opacity="0.4"/>
</svg>
