<svg width="20" height="20" viewBox="0 0 20 20" fill="colorCurrent" xmlns="http://www.w3.org/2000/svg">
<g clip-path="url(#clip0_1035_52473)">
<rect width="20" height="20" rx="4" fill="colorCurrent"/>
<rect x="0.5" y="0.5" width="19" height="19" rx="3.5" stroke="white" stroke-opacity="0.4"/>
<path d="M15.6539 4.75L4.34615 4.75C4.15499 4.75 4 4.90972 4 5.1067L4 7.12804L16 7.12804V5.1067C16 4.90972 15.845 4.75 15.6539 4.75ZM12.7692 6.65243H12.3077C12.1165 6.65243 11.9616 6.49272 11.9616 6.29573C11.9616 6.09875 12.1165 5.93903 12.3077 5.93903H12.7692C12.9604 5.93903 13.1154 6.09875 13.1154 6.29573C13.1154 6.49272 12.9604 6.65243 12.7692 6.65243ZM14.1539 6.65243H13.6923C13.5011 6.65243 13.3462 6.49272 13.3462 6.29573C13.3462 6.09875 13.5012 5.93903 13.6923 5.93903H14.1539C14.345 5.93903 14.5 6.09875 14.5 6.29573C14.5 6.49272 14.345 6.65243 14.1539 6.65243Z" fill="white"/>
<path d="M10 9.2683C9.17289 9.2683 8.5 9.9617 8.5 10.814C8.5 11.6664 9.17289 12.3598 10 12.3598C10.8271 12.3598 11.5 11.6664 11.5 10.814C11.5 9.9617 10.8271 9.2683 10 9.2683ZM10 11.5512C9.60552 11.5512 9.28462 11.2205 9.28462 10.814C9.28462 10.4076 9.60552 10.0768 10 10.0768C10.3945 10.0768 10.7154 10.4076 10.7154 10.814C10.7154 11.2205 10.3945 11.5512 10 11.5512Z" fill="white"/>
<path d="M5.03847 7.84147V9.3872C5.03847 10.7529 5.55456 12.0368 6.49166 13.0025C7.42877 13.9682 8.67473 14.5 10 14.5C11.3253 14.5 12.5712 13.9682 13.5083 13.0025C14.4454 12.0368 14.9615 10.7529 14.9615 9.3872V7.84147L5.03847 7.84147ZM10 13.0732C8.79116 13.0732 7.8077 12.0597 7.8077 10.814C7.8077 9.56834 8.79116 8.55489 10 8.55489C11.2088 8.55489 12.1923 9.56834 12.1923 10.814C12.1923 12.0597 11.2088 13.0732 10 13.0732Z" fill="white"/>
</g>
<defs>
<clipPath id="clip0_1035_52473">
<rect width="20" height="20" fill="white"/>
</clipPath>
</defs>
</svg>
