<svg width="93" height="27" viewBox="0 0 93 27" fill="none" xmlns="http://www.w3.org/2000/svg">
<path d="M4.66667 4.16669H8V9.16669C8 10.8235 6.65685 12.1667 5 12.1667H2L4.66667 4.16669Z" fill="white"/>
<path fill-rule="evenodd" clip-rule="evenodd" d="M6.22215 13.5H0.311035V21.9444H15.511V3.36667H9.59993V10.1222C9.59993 11.9877 8.08764 13.5 6.22215 13.5ZM6.22214 10.6556H3.41707L5.82108 5.36667H6.75547V10.1222C6.75547 10.4168 6.51669 10.6556 6.22214 10.6556ZM0.311077 12.6556H2.50799H6.22214C7.62126 12.6556 8.75547 11.5213 8.75547 10.1222V5.36667V3.36667H6.75547H4.53325L1.22016 10.6556L0.311077 12.6556Z" fill="#A4A6A7"/>
<path d="M12.1332 21.9445C12.1332 24.2763 10.2428 26.1667 7.91094 26.1667C5.57907 26.1667 3.68872 24.2763 3.68872 21.9445C3.68872 19.6126 5.57907 17.7222 7.91094 17.7222C10.2428 17.7222 12.1332 19.6126 12.1332 21.9445Z" fill="#2B2F33"/>
<path d="M9.59983 21.9445C9.59983 22.8772 8.84369 23.6333 7.91094 23.6333C6.9782 23.6333 6.22205 22.8772 6.22205 21.9445C6.22205 21.0117 6.9782 20.2556 7.91094 20.2556C8.84369 20.2556 9.59983 21.0117 9.59983 21.9445Z" fill="white"/>
<path d="M17.3333 2.83335C17.3333 1.72878 18.2287 0.833344 19.3333 0.833344H90.6666C91.7711 0.833344 92.6666 1.72877 92.6666 2.83334V22.1667H17.3333V2.83335Z" fill="#A4A6A7"/>
<path d="M28.6666 21.9445C28.6666 24.2763 26.7763 26.1667 24.4444 26.1667C22.1125 26.1667 20.2222 24.2763 20.2222 21.9445C20.2222 19.6126 22.1125 17.7222 24.4444 17.7222C26.7763 17.7222 28.6666 19.6126 28.6666 21.9445Z" fill="#2B2F33"/>
<path d="M26.1333 21.9445C26.1333 22.8772 25.3771 23.6333 24.4444 23.6333C23.5116 23.6333 22.7555 22.8772 22.7555 21.9445C22.7555 21.0117 23.5116 20.2556 24.4444 20.2556C25.3771 20.2556 26.1333 21.0117 26.1333 21.9445Z" fill="white"/>
<path d="M71.0665 21.9445C71.0665 24.2763 69.1762 26.1667 66.8443 26.1667C64.5124 26.1667 62.6221 24.2763 62.6221 21.9445C62.6221 19.6126 64.5124 17.7222 66.8443 17.7222C69.1762 17.7222 71.0665 19.6126 71.0665 21.9445Z" fill="#2B2F33"/>
<path d="M68.5332 21.9445C68.5332 22.8772 67.777 23.6333 66.8443 23.6333C65.9115 23.6333 65.1554 22.8772 65.1554 21.9445C65.1554 21.0117 65.9115 20.2556 66.8443 20.2556C67.777 20.2556 68.5332 21.0117 68.5332 21.9445Z" fill="white"/>
<path d="M80.3553 21.9445C80.3553 24.2763 78.465 26.1667 76.1331 26.1667C73.8012 26.1667 71.9109 24.2763 71.9109 21.9445C71.9109 19.6126 73.8012 17.7222 76.1331 17.7222C78.465 17.7222 80.3553 19.6126 80.3553 21.9445Z" fill="#2B2F33"/>
<path d="M77.822 21.9445C77.822 22.8772 77.0659 23.6333 76.1331 23.6333C75.2004 23.6333 74.4442 22.8772 74.4442 21.9445C74.4442 21.0117 75.2004 20.2556 76.1331 20.2556C77.0659 20.2556 77.822 21.0117 77.822 21.9445Z" fill="white"/>
<path d="M89.6444 21.9445C89.6444 24.2763 87.754 26.1667 85.4222 26.1667C83.0903 26.1667 81.2 24.2763 81.2 21.9445C81.2 19.6126 83.0903 17.7222 85.4222 17.7222C87.754 17.7222 89.6444 19.6126 89.6444 21.9445Z" fill="#2B2F33"/>
<path d="M87.1111 21.9445C87.1111 22.8772 86.3549 23.6333 85.4222 23.6333C84.4894 23.6333 83.7333 22.8772 83.7333 21.9445C83.7333 21.0117 84.4894 20.2556 85.4222 20.2556C86.3549 20.2556 87.1111 21.0117 87.1111 21.9445Z" fill="white"/>
</svg>
