<svg width="110" height="27" viewBox="0 0 110 27" fill="none" xmlns="http://www.w3.org/2000/svg">
<path d="M4.99992 4.16666H8.33325V9.16666C8.33325 10.8235 6.99011 12.1667 5.33325 12.1667H2.33325L4.99992 4.16666Z" fill="white"/>
<path fill-rule="evenodd" clip-rule="evenodd" d="M6.86668 13.5H0.955566V21.9444H16.1556H56.6889V18.5667H16.1556V3.36666H10.2445V10.1222C10.2445 11.9877 8.73217 13.5 6.86668 13.5ZM6.86667 10.6556H4.0616L6.46561 5.36666H7.4V10.1222C7.4 10.4168 7.16122 10.6556 6.86667 10.6556ZM0.955608 12.6556H3.15252H6.86667C8.26579 12.6556 9.4 11.5213 9.4 10.1222V5.36666V3.36666H7.4H5.17778L1.86469 10.6556L0.955608 12.6556Z" fill="#A4A6A7"/>
<path d="M12.7777 21.9444C12.7777 24.2763 10.8873 26.1667 8.55547 26.1667C6.22361 26.1667 4.33325 24.2763 4.33325 21.9444C4.33325 19.6126 6.22361 17.7222 8.55547 17.7222C10.8873 17.7222 12.7777 19.6126 12.7777 21.9444Z" fill="#2B2F33"/>
<path d="M10.2444 21.9444C10.2444 22.8772 9.48822 23.6333 8.55547 23.6333C7.62273 23.6333 6.86659 22.8772 6.86659 21.9444C6.86659 21.0117 7.62273 20.2555 8.55547 20.2555C9.48822 20.2555 10.2444 21.0117 10.2444 21.9444Z" fill="white"/>
<path d="M17.8445 2.83333C17.8445 1.72876 18.7399 0.833328 19.8445 0.833328H107.044C108.149 0.833328 109.044 1.72876 109.044 2.83333V21.9444H59.2223V16.8778H17.8445V2.83333Z" fill="#A4A6A7"/>
<path d="M44.0223 21.9444C44.0223 24.2763 42.132 26.1667 39.8001 26.1667C37.4682 26.1667 35.5779 24.2763 35.5779 21.9444C35.5779 19.6126 37.4682 17.7222 39.8001 17.7222C42.132 17.7222 44.0223 19.6126 44.0223 21.9444Z" fill="#2B2F33"/>
<path d="M41.489 21.9444C41.489 22.8772 40.7329 23.6333 39.8001 23.6333C38.8674 23.6333 38.1112 22.8772 38.1112 21.9444C38.1112 21.0117 38.8674 20.2555 39.8001 20.2555C40.7329 20.2555 41.489 21.0117 41.489 21.9444Z" fill="white"/>
<path d="M53.3111 21.9444C53.3111 24.2763 51.4208 26.1667 49.0889 26.1667C46.7571 26.1667 44.8667 24.2763 44.8667 21.9444C44.8667 19.6126 46.7571 17.7222 49.0889 17.7222C51.4208 17.7222 53.3111 19.6126 53.3111 21.9444Z" fill="#2B2F33"/>
<path d="M50.7778 21.9444C50.7778 22.8772 50.0217 23.6333 49.0889 23.6333C48.1562 23.6333 47.4 22.8772 47.4 21.9444C47.4 21.0117 48.1562 20.2555 49.0889 20.2555C50.0217 20.2555 50.7778 21.0117 50.7778 21.9444Z" fill="white"/>
<path d="M86.2445 21.9444C86.2445 24.2763 84.3541 26.1667 82.0223 26.1667C79.6904 26.1667 77.8 24.2763 77.8 21.9444C77.8 19.6126 79.6904 17.7222 82.0223 17.7222C84.3541 17.7222 86.2445 19.6126 86.2445 21.9444Z" fill="#2B2F33"/>
<path d="M83.7112 21.9444C83.7112 22.8772 82.955 23.6333 82.0223 23.6333C81.0895 23.6333 80.3334 22.8772 80.3334 21.9444C80.3334 21.0117 81.0895 20.2555 82.0223 20.2555C82.955 20.2555 83.7112 21.0117 83.7112 21.9444Z" fill="white"/>
<path d="M95.5333 21.9444C95.5333 24.2763 93.643 26.1667 91.3111 26.1667C88.9792 26.1667 87.0889 24.2763 87.0889 21.9444C87.0889 19.6126 88.9792 17.7222 91.3111 17.7222C93.643 17.7222 95.5333 19.6126 95.5333 21.9444Z" fill="#2B2F33"/>
<path d="M93 21.9444C93 22.8772 92.2438 23.6333 91.3111 23.6333C90.3783 23.6333 89.6222 22.8772 89.6222 21.9444C89.6222 21.0117 90.3783 20.2555 91.3111 20.2555C92.2438 20.2555 93 21.0117 93 21.9444Z" fill="white"/>
<path d="M104.822 21.9444C104.822 24.2763 102.932 26.1667 100.6 26.1667C98.268 26.1667 96.3777 24.2763 96.3777 21.9444C96.3777 19.6126 98.268 17.7222 100.6 17.7222C102.932 17.7222 104.822 19.6126 104.822 21.9444Z" fill="#2B2F33"/>
<path d="M102.289 21.9444C102.289 22.8772 101.533 23.6333 100.6 23.6333C99.6672 23.6333 98.911 22.8772 98.911 21.9444C98.911 21.0117 99.6672 20.2555 100.6 20.2555C101.533 20.2555 102.289 21.0117 102.289 21.9444Z" fill="white"/>
</svg>
