<svg width="16" height="16" viewBox="0 0 16 16" fill="none" xmlns="http://www.w3.org/2000/svg">
<path d="M13.9067 1.03941L8.00042 6.94566L2.09417 1.03941C1.93767 0.898911 1.76192 0.828661 1.56692 0.828661C1.37192 0.828661 1.19992 0.902911 1.05092 1.05141C0.901923 1.19991 0.827673 1.37191 0.828173 1.56741C0.828673 1.76291 0.898923 1.93866 1.03892 2.09466L6.94517 8.00091L1.03892 13.9072C0.835923 14.1102 0.769423 14.3524 0.839423 14.6339C0.909423 14.9154 1.08142 15.0912 1.35542 15.1612C1.62942 15.2312 1.87542 15.1647 2.09342 14.9617L7.99967 9.05541L13.9059 14.9617C14.0624 15.1022 14.2382 15.1724 14.4332 15.1724C14.6282 15.1724 14.8002 15.0982 14.9492 14.9497C15.0982 14.8012 15.1724 14.6292 15.1719 14.4337C15.1714 14.2382 15.1012 14.0624 14.9612 13.9064L9.05492 8.00016L14.9612 2.09391C15.1642 1.89091 15.2307 1.64866 15.1607 1.36716C15.0907 1.08566 14.9149 0.909911 14.6334 0.839911C14.3519 0.769911 14.1097 0.836411 13.9067 1.03941Z" fill="white" fill-opacity="0.8"/>
</svg>
