<svg width="20" height="20" viewBox="0 0 20 20" fill="none" xmlns="http://www.w3.org/2000/svg">
<path fill-rule="evenodd" clip-rule="evenodd" d="M2.49984 3.33337H17.4998V4.35898H18.3332V6.41027H17.4998V6.41031V7.43594V10.1393H18.3332V10.5592V10.848V11.0627V11.351V13.2473V16.6666H15.875V13.6002L15.7666 13.4796L15.7669 13.4811L15.3782 13.0488L15.378 13.0473L14.9628 12.5854L14.9629 12.5859L14.5746 12.1536L14.1588 11.691L14.1591 11.6928L13.7705 11.2605L13.7701 11.2587L13.15 10.5688C13.0632 10.4722 13.0575 10.3089 13.1373 10.2039L13.1527 10.1836C13.2325 10.0785 13.3674 10.0717 13.4542 10.1682L14.4095 11.2309L14.4117 11.2334L15.875 12.8612V12.744V12.4461V12.241V11.481V10.5592V10.1393H16.6665V7.43594H10.1809V10.1393H11.1256V10.5592V13.2473V16.6666H8.66744V13.2473V12.744V12.4461V12.241V11.481V10.5592V10.1393H9.57249V7.43594H3.33317V10.0897H4.12471V10.5052V10.7901V11.0018V11.2867V13.1576V13.4651H4.30469V13.4652H7.6798C7.7977 13.4652 7.8932 13.5808 7.8932 13.7234V13.751C7.8932 13.8937 7.7977 14.0093 7.6798 14.0093H6.83632L6.83592 14.0096H6.30813L6.30855 14.0093H5.74421L5.74381 14.0096H5.21641L5.21683 14.0093H4.6524L4.652 14.0096H4.12471V16.5304H3.62717V16.531H2.07483V16.5304H1.6665V13.1576V12.6608V12.3669V12.1647V11.4147V10.5052V10.0897H2.49984V7.43594V6.41031V6.41027H1.6665V4.35898H2.49984V3.33337ZM4.12471 14.0095V14.0093H4.12502L4.12471 14.0095Z" fill="#99A2BC"/>
</svg>
