<svg width="25" height="24" viewBox="0 0 25 24" fill="none" xmlns="http://www.w3.org/2000/svg">
<path fill-rule="evenodd" clip-rule="evenodd" d="M11.2302 3.34208C11.6158 3.11853 12.0533 2.99988 12.5 2.99988C12.9467 2.99988 13.3842 3.11853 13.7698 3.34208C14.1552 3.5655 14.4745 3.88528 14.6998 4.2677L14.702 4.27145L22.1629 17.0962C22.3833 17.4893 22.4988 17.9328 22.5 18.3828C22.5012 18.8328 22.3881 19.2769 22.1698 19.6712C21.9515 20.0656 21.6345 20.398 21.2475 20.6325C20.8602 20.8671 20.4175 20.9946 19.9637 20.9998L19.9545 20.9999L5.03628 20.9998C4.58245 20.9947 4.13976 20.8671 3.7525 20.6325C3.36549 20.398 3.04853 20.0656 2.83018 19.6712C2.61192 19.2769 2.49879 18.8328 2.50001 18.3828C2.50123 17.9328 2.61678 17.4893 2.83722 17.0963L2.84337 17.0853L10.298 4.27146L10.3002 4.2677C10.5255 3.88528 10.8448 3.5655 11.2302 3.34208ZM13.4192 10.1774C13.4192 9.67403 13.0075 9.26599 12.4996 9.26599C11.9918 9.26599 11.5801 9.67403 11.5801 10.1774V13.3177C11.5801 13.821 11.9918 14.2291 12.4996 14.2291C13.0075 14.2291 13.4192 13.821 13.4192 13.3177V10.1774ZM12.4996 15.6457C11.9918 15.6457 11.5801 16.0538 11.5801 16.5571C11.5801 17.0605 11.9918 17.4685 12.4996 17.4685H12.5075C13.0154 17.4685 13.4271 17.0605 13.4271 16.5571C13.4271 16.0538 13.0154 15.6457 12.5075 15.6457H12.4996Z" fill="#ED1817"/>
</svg>
