<svg width="24" height="26" viewBox="0 0 24 26" fill="none" xmlns="http://www.w3.org/2000/svg">
<path d="M5.25 4.925C5.25 4.54281 5.55315 4.25 5.90625 4.25H18.0938C18.4469 4.25 18.75 4.54281 18.75 4.925V15.3375H15.5156C14.3154 15.3375 13.3594 16.3207 13.3594 17.5125V21.75H5.90625C5.55315 21.75 5.25 21.4572 5.25 21.075V4.925ZM9.1875 7.7375C8.37563 7.7375 7.73438 8.40168 7.73438 9.2C7.73438 9.99832 8.37563 10.6625 9.1875 10.6625H14.8125C15.6244 10.6625 16.2656 9.99832 16.2656 9.2C16.2656 8.40168 15.6244 7.7375 14.8125 7.7375H9.1875ZM9.1875 11.5375C8.37563 11.5375 7.73438 12.2017 7.73438 13C7.73438 13.7983 8.37563 14.4625 9.1875 14.4625H14.8125C15.6244 14.4625 16.2656 13.7983 16.2656 13C16.2656 12.2017 15.6244 11.5375 14.8125 11.5375H9.1875ZM9.1875 15.3375C8.37563 15.3375 7.73438 16.0017 7.73438 16.8C7.73438 17.5983 8.37563 18.2625 9.1875 18.2625H11.0625C11.8744 18.2625 12.5156 17.5983 12.5156 16.8C12.5156 16.0017 11.8744 15.3375 11.0625 15.3375H9.1875ZM16.2656 18.2625H17.4196L16.2656 19.7535V18.2625Z" fill="#FEC318" stroke="#FEC318" stroke-width="1.5"/>
<path fill-rule="evenodd" clip-rule="evenodd" d="M19.632 15.925V15.4C19.632 15.0633 19.5012 14.7395 19.267 14.5001C19.0326 14.2605 18.7137 14.125 18.3802 14.125H16.6193C16.2858 14.125 15.9669 14.2605 15.7325 14.5001C15.4983 14.7395 15.3675 15.0633 15.3675 15.4V15.925H14.4183C14.4133 15.925 14.4084 15.9251 14.4034 15.9253H13.5381C13.3329 15.9253 13.1666 16.0932 13.1666 16.3003C13.1666 16.5074 13.3329 16.6753 13.5381 16.6753H14.0468V22.6C14.0468 22.9367 14.1776 23.2605 14.4119 23.4999C14.6463 23.7395 14.9652 23.875 15.2987 23.875H19.7008C20.0343 23.875 20.3532 23.7395 20.5876 23.4999C20.8219 23.2605 20.9527 22.9367 20.9527 22.6V16.6753H21.4619C21.667 16.6753 21.8333 16.5074 21.8333 16.3003C21.8333 16.0932 21.667 15.9253 21.4619 15.9253H20.596C20.5911 15.9251 20.5862 15.925 20.5812 15.925H19.632ZM16.6193 14.875C16.4858 14.875 16.3569 14.9292 16.261 15.0271C16.1651 15.1252 16.1103 15.2593 16.1103 15.4V15.925H18.8892V15.4C18.8892 15.2593 18.8344 15.1252 18.7385 15.0271C18.6426 14.9292 18.5137 14.875 18.3802 14.875H16.6193ZM16.6197 18.175C16.8248 18.175 16.9911 18.3429 16.9911 18.55V21.25C16.9911 21.4571 16.8248 21.625 16.6197 21.625C16.4146 21.625 16.2483 21.4571 16.2483 21.25V18.55C16.2483 18.3429 16.4146 18.175 16.6197 18.175ZM18.7516 18.55C18.7516 18.3429 18.5853 18.175 18.3801 18.175C18.175 18.175 18.0087 18.3429 18.0087 18.55V21.25C18.0087 21.4571 18.175 21.625 18.3801 21.625C18.5853 21.625 18.7516 21.4571 18.7516 21.25V18.55Z" fill="#FF152B"/>
</svg>
