<svg width="20" height="20" viewBox="0 0 20 20" fill="none" xmlns="http://www.w3.org/2000/svg">
<g id="item">
<path id="Color" fill-rule="evenodd" clip-rule="evenodd" d="M13.2788 5.26923V4.46154C13.2788 3.9436 13.0776 3.44546 12.7172 3.07706C12.3566 2.70843 11.866 2.5 11.3529 2.5H8.64387C8.13078 2.5 7.64015 2.70843 7.27953 3.07706C6.91915 3.44546 6.71794 3.9436 6.71794 4.46154V5.26923H5.25763C5.24999 5.26923 5.24239 5.26938 5.23483 5.26968H3.90346C3.58787 5.26968 3.33203 5.52798 3.33203 5.8466C3.33203 6.16523 3.58787 6.42353 3.90346 6.42353H4.6862V15.5385C4.6862 16.0564 4.8874 16.5545 5.24779 16.9229C5.60841 17.2916 6.09903 17.5 6.61212 17.5H13.3846C13.8977 17.5 14.3883 17.2916 14.7489 16.9229C15.1093 16.5545 15.3105 16.0564 15.3105 15.5385V6.42353H16.0939C16.4095 6.42353 16.6654 6.16523 16.6654 5.8466C16.6654 5.52798 16.4095 5.26968 16.0939 5.26968H14.7619C14.7543 5.26938 14.7467 5.26923 14.7391 5.26923H13.2788ZM8.64387 3.65385C8.43849 3.65385 8.24007 3.73718 8.09266 3.88787C7.945 4.03881 7.8608 4.24503 7.8608 4.46154V5.26923H12.1359V4.46154C12.1359 4.24503 12.0517 4.03881 11.9041 3.88787C11.7567 3.73718 11.5582 3.65385 11.3529 3.65385H8.64387ZM8.64447 8.73077C8.96006 8.73077 9.2159 8.98907 9.2159 9.3077V13.4615C9.2159 13.7802 8.96006 14.0385 8.64447 14.0385C8.32888 14.0385 8.07304 13.7802 8.07304 13.4615V9.3077C8.07304 8.98907 8.32888 8.73077 8.64447 8.73077ZM11.9242 9.3077C11.9242 8.98907 11.6684 8.73077 11.3528 8.73077C11.0372 8.73077 10.7814 8.98907 10.7814 9.3077V13.4615C10.7814 13.7802 11.0372 14.0385 11.3528 14.0385C11.6684 14.0385 11.9242 13.7802 11.9242 13.4615V9.3077Z" fill="#FF3B49"/>
</g>
</svg>
