<svg width="14" height="14" viewBox="0 0 14 14" fill="none" xmlns="http://www.w3.org/2000/svg">
<path fill-rule="evenodd" clip-rule="evenodd" d="M8.16843 9.81905C7.79761 9.97045 7.40032 10.0464 6.9998 10.0424C6.39831 10.0423 5.80967 9.86385 5.30954 9.52968C4.80922 9.19537 4.41926 8.72021 4.18899 8.16428C3.95871 7.60835 3.89846 6.99662 4.01586 6.40645C4.13325 5.81628 4.42301 5.27417 4.84851 4.84868C5.274 4.42319 5.81611 4.13343 6.40628 4.01604C6.99645 3.89865 7.60818 3.9589 8.16412 4.18917C8.72005 4.41944 9.19521 4.8094 9.52952 5.30972C9.86369 5.80984 10.0421 6.39848 10.0423 6.99996C10.0462 7.40048 9.97029 7.79777 9.81889 8.1686C9.6674 8.53965 9.44339 8.87675 9.15999 9.16015C8.87659 9.44355 8.53949 9.66756 8.16843 9.81905ZM7.00246 5.09916H6.9972C6.7465 5.09344 6.49724 5.13857 6.26446 5.23183C6.03141 5.32519 5.81973 5.46486 5.6422 5.64238C5.46468 5.8199 5.32502 6.03158 5.23165 6.26463C5.13829 6.49767 5.09316 6.74723 5.09901 6.99822L5.09913 7.00347C5.09352 7.25385 5.13848 7.50282 5.23165 7.73537C5.32502 7.96841 5.46468 8.1801 5.6422 8.35762C5.81973 8.53514 6.03141 8.6748 6.26445 8.76817C6.4975 8.86153 6.74706 8.90666 6.99805 8.90081L7.00331 8.90069C7.25369 8.90629 7.50265 8.86134 7.7352 8.76817C7.96825 8.6748 8.17993 8.53514 8.35745 8.35762C8.53497 8.1801 8.67464 7.96841 8.768 7.73537C8.86137 7.50232 8.9065 7.25276 8.90065 7.00178L8.90053 6.99652C8.90613 6.74614 8.86117 6.49718 8.76801 6.26463C8.67464 6.03158 8.53497 5.8199 8.35745 5.64238C8.17993 5.46486 7.96825 5.32519 7.7352 5.23183C7.50242 5.13857 7.25315 5.09344 7.00246 5.09916Z" fill="white" fill-opacity="0.6"/>
<path fill-rule="evenodd" clip-rule="evenodd" d="M13.5921 4.56898L13.5928 4.57009C13.7236 4.7773 13.7753 5.02308 13.7384 5.26408C13.7014 5.50551 13.5781 5.72603 13.3907 5.88687L12.4747 6.66723V7.32902L13.3758 8.13216L13.3769 8.13309C13.561 8.29071 13.6836 8.50599 13.7233 8.74241C13.763 8.97913 13.7167 9.22233 13.5931 9.42938L12.4736 11.3415C12.3806 11.4983 12.247 11.6283 12.0865 11.7187C11.9261 11.809 11.7438 11.8566 11.5587 11.8568C11.4441 11.8576 11.33 11.8402 11.221 11.8054L11.2198 11.805L10.0668 11.4246L10.0383 11.4424C9.86667 11.5496 9.68931 11.6478 9.50696 11.7365L9.47525 11.752L9.23267 12.919C9.18404 13.1571 9.05101 13.3707 8.85752 13.5224C8.66436 13.6738 8.42306 13.7541 8.17574 13.7498L5.85963 13.7498L5.85839 13.7498C5.61106 13.7541 5.36977 13.6738 5.17661 13.5224C4.98313 13.3707 4.85012 13.1571 4.80148 12.9191L4.55885 11.7518L4.5273 11.7364C4.34646 11.6477 4.17062 11.5497 4.00057 11.4426L3.97199 11.4246L2.81283 11.8055C2.70393 11.8403 2.58958 11.8576 2.47503 11.8568C2.28995 11.8566 2.10808 11.809 1.94761 11.7187C1.7872 11.6284 1.65338 11.498 1.56036 11.3413L0.402425 9.43047C0.27314 9.22136 0.223583 8.97361 0.263427 8.73233C0.303247 8.4912 0.429318 8.272 0.618756 8.11328L1.52019 7.33313V6.67099L0.618997 5.86781L0.617912 5.86689C0.433811 5.70927 0.311199 5.494 0.271536 5.25759C0.231787 5.02066 0.277925 4.77776 0.401784 4.57058L0.402238 4.56983L1.56069 2.65811C1.65371 2.50148 1.7872 2.37163 1.94761 2.28135C2.10689 2.19171 2.28726 2.14426 2.47092 2.14331L2.47499 2.14306C2.58715 2.1361 2.69976 2.14661 2.80856 2.17422L2.8119 2.17506L3.94843 2.57491L3.97772 2.55663C4.14885 2.44979 4.3257 2.35193 4.50753 2.26346L4.53924 2.24803L4.78181 1.08103C4.83045 0.842954 4.96349 0.629252 5.15697 0.477612C5.35014 0.326206 5.59146 0.245866 5.8388 0.250176L8.13515 0.250187L8.1364 0.250165C8.38375 0.245856 8.62506 0.326206 8.81824 0.477612C9.01176 0.629286 9.14478 0.842965 9.1934 1.08106L9.436 2.24816L9.46754 2.26362C9.64839 2.35228 9.82422 2.45035 9.99427 2.5574L10.0229 2.57539L11.182 2.19454C11.2909 2.15972 11.4053 2.14238 11.5198 2.14318C11.7049 2.14345 11.8868 2.19104 12.0472 2.28135C12.2077 2.37164 12.3415 2.50207 12.4345 2.65873L13.5921 4.56898ZM5.9011 12.6599H8.09361L8.43839 10.9625L8.47929 10.9481C8.95667 10.7798 9.39935 10.5301 9.7866 10.2107L9.81913 10.1839L11.4854 10.7326L12.5795 8.92712L11.2595 7.76008L11.2673 7.71759C11.3564 7.23188 11.3564 6.73466 11.2673 6.24895L11.2594 6.20575L12.579 5.07208L11.4851 3.26684L9.81419 3.7965L9.78219 3.77056C9.39322 3.45523 8.95252 3.20571 8.47846 3.03247L8.43838 3.01782L8.09375 1.3401H5.90124L5.55646 3.03747L5.51556 3.05189C5.03817 3.22019 4.5955 3.46991 4.20825 3.78927L4.17571 3.8161L2.50941 3.26743L1.41535 5.07288L2.73531 6.23992L2.72752 6.28241C2.63841 6.76812 2.63841 7.26534 2.72752 7.75105L2.73544 7.79425L1.41583 8.92792L2.50977 10.7332L4.18065 10.2035L4.21266 10.2294C4.60163 10.5448 5.04233 10.7943 5.51638 10.9675L5.55647 10.9822L5.9011 12.6599Z" fill="white" fill-opacity="0.6"/>
</svg>
