<svg width="16" height="15" viewBox="0 0 16 15" fill="currentColor" xmlns="http://www.w3.org/2000/svg">
    <path
        d="M12.8762 0C12.2371 0 11.6242 0.24913 11.1723 0.692586L1.01355 10.6613C0.925674 10.7475 0.863329 10.8556 0.833187 10.9739L0.0204882 14.1639C-0.0379303 14.3932 0.0305377 14.6358 0.200856 14.8029C0.371174 14.97 0.618365 15.0372 0.852039 14.9799L4.10283 14.1824C4.2234 14.1528 4.33352 14.0916 4.4214 14.0054L14.5801 4.03669C14.8039 3.81711 14.9814 3.55643 15.1025 3.26954C15.2236 2.98265 15.2859 2.67516 15.2859 2.36464C15.2859 2.05411 15.2236 1.74662 15.1025 1.45973C14.9814 1.17284 14.8039 0.912162 14.5801 0.692586C14.3564 0.473009 14.0907 0.298831 13.7984 0.179997C13.506 0.0611631 13.1927 0 12.8762 0Z"
        fill="#0078D4" />
    <path
        d="M7.31429 14.3269C7.31429 13.9553 7.62129 13.654 8 13.654H15.3143C15.693 13.654 16 13.9553 16 14.3269C16 14.6985 15.693 14.9998 15.3143 14.9998H8C7.62129 14.9998 7.31429 14.6985 7.31429 14.3269Z"
        fill="#0078D4" />
</svg>