<svg width="24" height="25" viewBox="0 0 24 25" fill="none" xmlns="http://www.w3.org/2000/svg">
<path fill-rule="evenodd" clip-rule="evenodd" d="M12 19.5636C11.4933 19.5636 11.0771 19.9939 11.0771 20.5317C11.0771 21.0695 11.4933 21.4998 12 21.4998H20.0771C20.5839 21.4998 21 21.0695 21 20.5317C21 19.9939 20.5839 19.5636 20.0771 19.5636H12Z" fill="#0078D4"/>
<path fill-rule="evenodd" clip-rule="evenodd" d="M17.3848 3.5C16.6361 3.5 15.9174 3.81089 15.3871 4.36532L4.1689 16.0932C4.05042 16.2171 3.96605 16.3726 3.92522 16.5434L3.02776 20.2963C2.94853 20.6276 3.04168 20.9774 3.27144 21.2176C3.50088 21.4575 3.83283 21.5531 4.14602 21.4713L7.73585 20.533C7.89762 20.4908 8.04573 20.4032 8.16419 20.2794L19.3824 8.55147C19.645 8.27691 19.8535 7.95079 19.9958 7.59162C20.1381 7.23245 20.2114 6.84737 20.2114 6.4584C20.2114 6.06943 20.1381 5.68435 19.9958 5.32517C19.8535 4.96601 19.645 4.63988 19.3824 4.36532C19.1198 4.09077 18.8082 3.87316 18.4655 3.72475C18.1227 3.57634 17.7555 3.5 17.3848 3.5ZM18.0795 7.18002L7.042 18.719L5.19229 19.2024L5.65319 17.2751L16.69 5.73677C16.8738 5.5447 17.1236 5.43621 17.3848 5.43621C17.514 5.43621 17.6419 5.46283 17.7612 5.51446C17.8804 5.5661 17.9885 5.64169 18.0795 5.73677C18.1704 5.83185 18.2424 5.94454 18.2914 6.06831C18.3405 6.19209 18.3657 6.32463 18.3657 6.4584C18.3657 6.59216 18.3405 6.7247 18.2914 6.84847C18.2424 6.97226 18.1704 7.08494 18.0795 7.18002Z" fill="#0078D4"/>
</svg>
