<svg width="24" height="24" viewBox="0 0 24 24" fill="none" xmlns="http://www.w3.org/2000/svg">
<g id="ELC/El-Close">
<path id="Vector" d="M17.9067 5.03917L12.0004 10.9454L6.09417 5.03917C5.93767 4.89867 5.76192 4.82842 5.56692 4.82842C5.37192 4.82842 5.19992 4.90267 5.05092 5.05117C4.90192 5.19967 4.82767 5.37167 4.82817 5.56717C4.82867 5.76267 4.89892 5.93842 5.03892 6.09442L10.9452 12.0007L5.03892 17.9069C4.83592 18.1099 4.76942 18.3522 4.83942 18.6337C4.90942 18.9152 5.08142 19.0909 5.35542 19.1609C5.62942 19.2309 5.87542 19.1644 6.09342 18.9614L11.9997 13.0552L17.9059 18.9614C18.0624 19.1019 18.2382 19.1722 18.4332 19.1722C18.6282 19.1722 18.8002 19.0979 18.9492 18.9494C19.0982 18.8009 19.1724 18.6289 19.1719 18.4334C19.1714 18.2379 19.1012 18.0622 18.9612 17.9062L13.0549 11.9999L18.9612 6.09367C19.1642 5.89067 19.2307 5.64842 19.1607 5.36692C19.0907 5.08542 18.9149 4.90967 18.6334 4.83967C18.3519 4.76967 18.1097 4.83617 17.9067 5.03917Z" fill="#2B2F33"/>
</g>
</svg>
