<svg width="20" height="20" viewBox="0 0 20 20" fill="none" xmlns="http://www.w3.org/2000/svg">
<path fill-rule="evenodd" clip-rule="evenodd" d="M11.9641 4.00119C11.1244 3.68929 10.2134 3.51848 9.26144 3.51848C5.06687 3.51848 1.6665 6.83489 1.6665 10.9259C1.6665 15.0169 5.06687 18.3333 9.26144 18.3333C13.456 18.3333 16.8564 15.0169 16.8564 10.9259C16.8564 10.3431 16.7874 9.77608 16.6569 9.2321C16.4468 9.26351 16.2316 9.27979 16.0125 9.27979C13.6822 9.27979 11.7931 7.43735 11.7931 5.16457C11.7931 4.76053 11.8528 4.37009 11.9641 4.00119ZM9.2614 6.05272C9.59255 6.05272 9.861 6.32117 9.861 6.65232V7.16915H11.3112C11.6342 7.16915 11.896 7.43097 11.896 7.75394C11.896 8.07691 11.6342 8.33874 11.3112 8.33874H8.09551C7.82163 8.33874 7.55898 8.44485 7.36532 8.63372C7.17166 8.8226 7.06286 9.07877 7.06286 9.34588C7.06286 9.613 7.17166 9.86917 7.36532 10.058C7.55898 10.2469 7.82163 10.353 8.09551 10.353H10.4273C11.0192 10.353 11.5869 10.5824 12.0054 10.9906C12.424 11.3988 12.6591 11.9525 12.6591 12.5298C12.6591 13.1071 12.424 13.6607 12.0054 14.069C11.5869 14.4772 11.0192 14.7065 10.4273 14.7065H9.861V15.306C9.861 15.6372 9.59255 15.9056 9.2614 15.9056C8.93025 15.9056 8.6618 15.6372 8.6618 15.306V14.7065H6.92653C6.60356 14.7065 6.34174 14.4447 6.34174 14.1217C6.34174 13.7987 6.60356 13.5369 6.92653 13.5369H10.4273C10.7012 13.5369 10.9638 13.4308 11.1575 13.2419C11.3511 13.0531 11.4599 12.7969 11.4599 12.5298C11.4599 12.2627 11.3511 12.0065 11.1575 11.8176C10.9638 11.6287 10.7012 11.5226 10.4273 11.5226H8.09551C7.50359 11.5226 6.93591 11.2933 6.51736 10.8851C6.0988 10.4769 5.86366 9.92319 5.86366 9.34588C5.86366 8.76858 6.0988 8.21492 6.51736 7.8067C6.93591 7.39848 7.50359 7.16915 8.09551 7.16915H8.6618V6.65232C8.6618 6.32117 8.93025 6.05272 9.2614 6.05272Z" fill="#99A2BC"/>
<path d="M15.6162 8.07019C15.369 8.31125 14.9682 8.31125 14.7211 8.07019L13.0333 6.4241C12.9726 6.36492 12.9268 6.29671 12.896 6.2239C12.865 6.15112 12.8479 6.07131 12.8479 5.98761C12.8479 5.90392 12.865 5.82411 12.896 5.75133C12.9268 5.67852 12.9726 5.61031 13.0333 5.55113C13.1564 5.43107 13.3176 5.3708 13.479 5.37033L13.4809 5.37033H17.7003C18.0498 5.37033 18.3332 5.6467 18.3332 5.98761C18.3332 6.32853 18.0498 6.6049 17.7003 6.6049H15.0088L15.6162 7.19722C15.8633 7.43828 15.8633 7.82913 15.6162 8.07019Z" fill="#99A2BC"/>
<path d="M16.46 1.84742C16.2129 1.60636 15.8121 1.60636 15.565 1.84742C15.3178 2.08849 15.3178 2.47933 15.565 2.7204L16.1723 3.31272H13.4809C13.1313 3.31272 12.8479 3.58908 12.8479 3.93C12.8479 4.27092 13.1313 4.54728 13.4809 4.54728H17.7003C17.7861 4.54728 17.8679 4.53063 17.9425 4.50045C18.0172 4.47032 18.0871 4.42567 18.1478 4.36649C18.2709 4.24643 18.3327 4.08921 18.3332 3.93185L18.3332 3.93L18.3332 3.92815C18.3329 3.84513 18.3159 3.76596 18.2851 3.69371C18.2543 3.62091 18.2085 3.5527 18.1478 3.49351L16.46 1.84742Z" fill="#99A2BC"/>
</svg>
