<svg width="20" height="20" viewBox="0 0 20 20" fill="none" xmlns="http://www.w3.org/2000/svg">
<path d="M14.5714 2.5C13.9723 2.5 13.3977 2.74913 12.974 3.19259L3.45021 13.1613C3.36782 13.2475 3.30937 13.3556 3.28111 13.4739L2.51921 16.6639C2.46444 16.8932 2.52863 17.1358 2.6883 17.3029C2.84798 17.47 3.07972 17.5372 3.29879 17.4799L6.34641 16.6824C6.45944 16.6528 6.56267 16.5916 6.64506 16.5054L16.1689 6.53669C16.3786 6.31711 16.545 6.05643 16.6586 5.76954C16.7721 5.48265 16.8305 5.17516 16.8305 4.86464C16.8305 4.55411 16.7721 4.24662 16.6586 3.95973C16.545 3.67284 16.3786 3.41216 16.1689 3.19259C15.9591 2.97301 15.7101 2.79883 15.436 2.68C15.1619 2.56116 14.8681 2.5 14.5714 2.5Z" fill="#525B73" fill-opacity="0.5"/>
<path d="M9.35714 16.8269C9.35714 16.4553 9.64496 16.154 10 16.154H16.8571C17.2122 16.154 17.5 16.4553 17.5 16.8269C17.5 17.1985 17.2122 17.4998 16.8571 17.4998H10C9.64496 17.4998 9.35714 17.1985 9.35714 16.8269Z" fill="#525B73" fill-opacity="0.5"/>
</svg>
