<svg width="20" height="20" viewBox="0 0 20 20" fill="currentColor" xmlns="http://www.w3.org/2000/svg">
<g id="el-icon-plus">
<path id="Vector" d="M9.375 9.375V2.5C9.375 2.3175 9.43354 2.16771 9.55062 2.05062C9.66771 1.93354 9.8175 1.875 10 1.875C10.1825 1.875 10.3323 1.93354 10.4494 2.05062C10.5665 2.16771 10.625 2.3175 10.625 2.5V9.375H17.5C17.6825 9.375 17.8323 9.43354 17.9494 9.55062C18.0665 9.66771 18.125 9.8175 18.125 10C18.125 10.1825 18.0665 10.3323 17.9494 10.4494C17.8323 10.5665 17.6825 10.625 17.5 10.625H10.625V17.5C10.625 17.6825 10.5665 17.8323 10.4494 17.9494C10.3323 18.0665 10.1825 18.125 10 18.125C9.8175 18.125 9.66771 18.0665 9.55062 17.9494C9.43354 17.8323 9.375 17.6825 9.375 17.5V10.625H2.5C2.3175 10.625 2.16771 10.5665 2.05062 10.4494C1.93354 10.3323 1.875 10.1825 1.875 10C1.875 9.8175 1.93354 9.66771 2.05062 9.55062C2.16771 9.43354 2.3175 9.375 2.5 9.375H9.375Z" fill="currentColor"/>
</g>
</svg>
