<svg width="20" height="20" viewBox="0 0 20 20" fill="currentColor" xmlns="http://www.w3.org/2000/svg">
<path d="M6.83326 6.19544C6.83326 4.622 8.09438 3.33301 9.66656 3.33301C11.2387 3.33301 12.4999 4.622 12.4999 6.19544V6.7864C12.4999 8.35984 11.2387 9.64883 9.66656 9.64883C8.09438 9.64883 6.83326 8.35984 6.83326 6.7864V6.19544Z" fill="currentColor"/>
<path d="M4.16663 14.1733C4.16663 12.2456 5.73361 10.6829 7.66659 10.6829H11.1343C11.1387 11.4802 11.4633 12.1995 11.9826 12.7116L11.6942 15.5148C11.6618 15.8291 11.8051 16.1351 12.0641 16.3051C12.3231 16.475 12.6532 16.4797 12.9167 16.3171L13.8887 15.7172L14.7232 16.2322C14.4521 16.5005 14.0787 16.6663 13.6665 16.6663H5.66661C4.83819 16.6663 4.16663 15.9966 4.16663 15.1705V14.1733Z" fill="currentColor"/>
<path d="M13.8888 12.6663C14.9627 12.6663 15.8333 11.7709 15.8333 10.6663C15.8333 9.56177 14.9627 8.66634 13.8888 8.66634C12.815 8.66634 11.9444 9.56177 11.9444 10.6663C11.9444 11.7709 12.815 12.6663 13.8888 12.6663Z" fill="currentColor"/>
<path d="M15.0351 13.2435C14.6861 13.408 14.2979 13.4997 13.8888 13.4997C13.4798 13.4997 13.0916 13.408 12.7426 13.2435L12.4998 15.6025L13.8887 14.7454L15.2776 15.6026L15.0351 13.2435Z" fill="currentColor"/>
</svg>
