<svg width="65" height="64" viewBox="0 0 65 64" fill="none" xmlns="http://www.w3.org/2000/svg">
<g opacity="0.2">
<path fill-rule="evenodd" clip-rule="evenodd" d="M43.9885 18.8347H8.28908C7.52106 18.8347 6.78488 19.1403 6.24167 19.6848C5.69942 20.2283 5.39453 20.9661 5.39453 21.7359V27.5383H43.9885V18.8347Z" fill="#525A67"/>
<path fill-rule="evenodd" clip-rule="evenodd" d="M5.39453 22.3994H43.9885V24.2011H5.39453V22.3994Z" fill="#333B48"/>
<path fill-rule="evenodd" clip-rule="evenodd" d="M43.9879 17.9439C43.9879 17.1751 43.683 16.4372 43.1398 15.8928C42.5966 15.3493 41.8604 15.0427 41.0933 15.0427C37.6382 15.0427 31.9466 15.0427 28.8996 15.0427C27.6578 15.0427 26.555 15.8367 26.1575 17.0155C25.5998 18.6721 24.8926 20.7687 24.8926 20.7687H43.9879V17.9439Z" fill="#525A67"/>
<path fill-rule="evenodd" clip-rule="evenodd" d="M46.3894 28.135C46.563 27.019 46.2408 25.8817 45.5075 25.023C44.7742 24.1642 43.7032 23.67 42.5753 23.67C34.0644 23.67 15.7226 23.67 7.21169 23.67C6.08378 23.67 5.0128 24.1642 4.27952 25.023C3.54623 25.8817 3.22397 27.019 3.39764 28.135C4.37986 34.4325 6.14746 45.7723 7.01583 51.3446C7.3101 53.2284 8.92816 54.6162 10.8299 54.6162H38.9571C40.8589 54.6162 42.4769 53.2284 42.7712 51.3446C43.6395 45.7723 45.4072 34.4325 46.3894 28.135Z" fill="#8D96A4"/>
<path fill-rule="evenodd" clip-rule="evenodd" d="M3.39764 28.135L3.89261 31.307C3.71797 30.19 4.10102 29.0527 4.8343 28.194C5.56759 27.3352 6.63857 26.8411 7.76648 26.8411H42.0205C43.1484 26.8411 44.2194 27.3352 44.9527 28.194C45.686 29.0527 46.069 30.19 45.8944 31.307L46.3894 28.135C46.563 27.019 46.2408 25.8817 45.5075 25.023C44.7742 24.1642 43.7032 23.67 42.5753 23.67C34.0644 23.67 15.7226 23.67 7.21169 23.67C6.08378 23.67 5.0128 24.1642 4.27952 25.023C3.54623 25.8817 3.22397 27.019 3.39764 28.135Z" fill="#E0E9F9"/>
<path fill-rule="evenodd" clip-rule="evenodd" d="M22.6895 46.7319C22.6895 45.6642 21.826 44.7977 20.7598 44.7977C18.6188 44.7977 15.183 44.7977 13.041 44.7977C11.9758 44.7977 11.1113 45.6642 11.1113 46.7319V48.666C11.1113 49.7346 11.9758 50.6001 13.041 50.6001H20.7598C21.826 50.6001 22.6895 49.7346 22.6895 48.666C22.6895 48.0442 22.6895 47.3547 22.6895 46.7319Z" fill="#333B48"/>
<path fill-rule="evenodd" clip-rule="evenodd" d="M50.7836 27.1831L42.9375 35.0284C42.9375 35.0284 45.7277 34.1571 49.7376 35.5514C50.4122 35.7859 51.541 34.6571 51.3065 33.9825C49.9122 29.9725 50.7836 27.1831 50.7836 27.1831Z" fill="#333B48"/>
<path opacity="0.9" fill-rule="evenodd" clip-rule="evenodd" d="M29.7851 14.0304C34.5488 9.26739 42.2825 9.26739 47.0462 14.0304C51.8092 18.7941 51.8092 26.5277 47.0462 31.2914C42.2825 36.0544 34.5488 36.0544 29.7851 31.2914C25.0221 26.5277 25.0221 18.7941 29.7851 14.0304Z" fill="#E0E9F9"/>
<path opacity="0.6" fill-rule="evenodd" clip-rule="evenodd" d="M45.4696 12.6974C46.0229 13.0902 46.5511 13.5347 47.0474 14.0303C51.8104 18.794 51.8104 26.5277 47.0474 31.2914C42.2837 36.0544 34.5501 36.0544 29.7864 31.2914C29.506 31.0103 29.2419 30.7196 28.9941 30.42C33.6114 31.9201 38.8885 30.8372 42.5544 27.1712C46.4645 23.2611 47.4365 17.5181 45.4696 12.6974Z" fill="#8D96A4"/>
<path fill-rule="evenodd" clip-rule="evenodd" d="M28.7399 12.9844C34.0806 7.64371 42.7522 7.64371 48.0928 12.9844C53.4335 18.3251 53.4335 26.9967 48.0928 32.3373C42.7522 37.678 34.0806 37.678 28.7399 32.3373C23.3992 26.9967 23.3992 18.3251 28.7399 12.9844ZM30.3088 14.5533C34.7833 10.0788 42.0494 10.0788 46.5239 14.5533C50.9984 19.0278 50.9984 26.2939 46.5239 30.7684C42.0494 35.2429 34.7833 35.2429 30.3088 30.7684C25.8343 26.2939 25.8343 19.0278 30.3088 14.5533Z" fill="#525A67"/>
<path fill-rule="evenodd" clip-rule="evenodd" d="M26.1561 28.7462C23.6175 23.6281 24.4785 17.246 28.7399 12.9845C32.7417 8.9827 38.6135 7.97966 43.554 9.97539C43.5895 10.4288 43.608 10.8882 43.608 11.352C43.608 11.71 43.5969 12.0658 43.5755 12.4194C39.277 10.255 33.8964 10.9666 30.3088 14.5534C26.506 18.3563 25.935 24.1755 28.5972 28.5842C27.8175 28.6907 27.0216 28.7462 26.2138 28.7462H26.1561Z" fill="#F0F9FF"/>
<path fill-rule="evenodd" clip-rule="evenodd" d="M49.1388 38.0907C47.8391 36.791 47.8391 34.6836 49.1388 33.3832C50.4385 32.0835 52.5466 32.0835 53.8463 33.3832L64.5691 44.106C64.8576 44.3945 64.0372 45.6838 62.7383 46.9827C61.4394 48.2816 60.1501 49.102 59.8616 48.8135L49.1388 38.0907Z" fill="#525A67"/>
<path fill-rule="evenodd" clip-rule="evenodd" d="M49.1388 38.0907C47.8391 36.791 47.8391 34.6836 49.1388 33.3832C50.4385 32.0835 52.5466 32.0835 53.8463 33.3832L63.5513 43.0881C63.8397 43.3766 63.0194 44.6659 61.7205 45.9649C60.4216 47.2638 59.1323 48.0841 58.8438 47.7956L49.1388 38.0907Z" fill="#8D96A4"/>
<path fill-rule="evenodd" clip-rule="evenodd" d="M36.8498 20.3323C36.8328 19.6273 37.0976 19.1125 37.5059 18.8107C38.148 18.3373 39.1074 18.3572 39.6281 18.9438C39.8515 19.1961 39.9809 19.5526 39.9846 20.0038C39.9935 21.086 39.4861 21.7185 38.989 22.3731C38.3203 23.2556 37.6523 24.1625 37.5695 25.6766C37.5473 26.085 37.8609 26.4334 38.2685 26.4555C38.6761 26.4777 39.0252 26.1648 39.0474 25.7573C39.1096 24.607 39.6599 23.9368 40.1681 23.2667C40.8486 22.3694 41.4766 21.4744 41.4641 19.992C41.4567 19.1206 41.166 18.4482 40.734 17.9615C39.725 16.8253 37.872 16.7025 36.6279 17.6198C35.8822 18.1701 35.34 19.0814 35.3704 20.367C35.38 20.7753 35.7195 21.0986 36.1278 21.089C36.5354 21.0794 36.8594 20.7406 36.8498 20.3323Z" fill="#333B48"/>
<path d="M38.2399 29.2027C38.7424 29.2027 39.1498 28.7954 39.1498 28.2929C39.1498 27.7904 38.7424 27.3831 38.2399 27.3831C37.7374 27.3831 37.3301 27.7904 37.3301 28.2929C37.3301 28.7954 37.7374 29.2027 38.2399 29.2027Z" fill="#333B48"/>
</g>
</svg>
