<svg width="24" height="25" viewBox="0 0 24 25" fill="none" xmlns="http://www.w3.org/2000/svg">
<path d="M14.5 3.5H7.872C7.3905 3.5 7 3.8905 7 4.372V8.0015H14.5V3.5Z" fill="#169154"/>
<path d="M7 17.0269V20.6279C7 21.1094 7.3905 21.4999 7.8715 21.4999H14.5V17.0269H7Z" fill="#18482A"/>
<path d="M7 8.00146H14.5V12.5025H7V8.00146Z" fill="#0C8045"/>
<path d="M7 12.5024H14.5V17.0274H7V12.5024Z" fill="#17472A"/>
<path d="M21.128 3.5H14.5V8.0015H22V4.372C22 3.8905 21.6095 3.5 21.128 3.5Z" fill="#29C27F"/>
<path d="M14.5 17.0269V21.4999H21.1285C21.6095 21.4999 22 21.1094 22 20.6284V17.0274L14.5 17.0269Z" fill="#27663F"/>
<path d="M14.5 8.00146H22V12.5025H14.5V8.00146Z" fill="#19AC65"/>
<path d="M14.5 12.5024H22V17.0274H14.5V12.5024Z" fill="#129652"/>
<path d="M11.1595 17.5H2.8405C2.3765 17.5 2 17.1235 2 16.6595V8.3405C2 7.8765 2.3765 7.5 2.8405 7.5H11.1595C11.6235 7.5 12 7.8765 12 8.3405V16.6595C12 17.1235 11.6235 17.5 11.1595 17.5Z" fill="#0C7238"/>
<path d="M4.9032 10H6.0962L7.0642 11.877L8.08719 10H9.20169L7.6662 12.5L9.2367 15H8.06119L7.0062 13.035L5.9557 15H4.7627L6.3592 12.491L4.9032 10Z" fill="white"/>
</svg>
