<svg width="25" height="25" viewBox="0 0 25 25" fill="none" xmlns="http://www.w3.org/2000/svg">
<path fill-rule="evenodd" clip-rule="evenodd" d="M8.25706 3.51523C8.34149 3.51523 8.40993 3.44705 8.40993 3.36294C8.40993 2.88635 8.79776 2.5 9.27617 2.5H15.3908C15.8692 2.5 16.2571 2.88635 16.2571 3.36294C16.2571 3.44705 16.3255 3.51523 16.4099 3.51523H18.4481C19.4894 3.51523 20.3335 4.35612 20.3335 5.3934V20.6218C20.3335 21.6591 19.4894 22.5 18.4481 22.5H6.21885C5.1776 22.5 4.3335 21.6591 4.3335 20.6218V5.3934C4.3335 4.35611 5.1776 3.51523 6.21885 3.51523H8.25706ZM6.21885 5.24112C6.13442 5.24112 6.06598 5.3093 6.06598 5.3934V20.6218C6.06598 20.7059 6.13442 20.7741 6.21885 20.7741H18.4481C18.5326 20.7741 18.601 20.7059 18.601 20.6218V5.3934C18.601 5.3093 18.5326 5.24112 18.4481 5.24112H16.4099C16.3255 5.24112 16.2571 5.3093 16.2571 5.3934V6.40863C16.2571 6.88522 15.8692 7.27157 15.3908 7.27157H9.27617C8.79776 7.27157 8.40993 6.88522 8.40993 6.40863V5.3934C8.40993 5.3093 8.34149 5.24112 8.25706 5.24112H6.21885ZM10.2953 4.22589C10.2109 4.22589 10.1424 4.29407 10.1424 4.37817V5.3934C10.1424 5.47751 10.2109 5.54569 10.2953 5.54569H14.3717C14.4561 5.54569 14.5246 5.47751 14.5246 5.3934V4.37817C14.5246 4.29407 14.4561 4.22589 14.3717 4.22589H10.2953Z" fill="#8100E5"/>
<path fill-rule="evenodd" clip-rule="evenodd" d="M11.7625 11.9372L10.5224 10.4821C10.2515 10.1642 9.78996 10.1642 9.51904 10.4821C9.27152 10.7725 9.27152 11.2272 9.51904 11.5177L11.2608 13.5615C11.5318 13.8794 11.9933 13.8794 12.2642 13.5615L15.7478 9.47388C15.9953 9.18344 15.9953 8.72875 15.7478 8.43831C15.4768 8.12042 15.0153 8.12042 14.7444 8.43831L11.7625 11.9372Z" fill="#8100E5"/>
<path fill-rule="evenodd" clip-rule="evenodd" d="M9.3334 15.7499C9.3334 15.3357 9.66919 14.9999 10.0834 14.9999H14.5834C14.9976 14.9999 15.3334 15.3357 15.3334 15.7499C15.3334 16.1641 14.9976 16.4999 14.5834 16.4999H10.0834C9.66919 16.4999 9.3334 16.1641 9.3334 15.7499Z" fill="#8100E5"/>
<path fill-rule="evenodd" clip-rule="evenodd" d="M9.3334 18.7499C9.3334 18.3357 9.66919 17.9999 10.0834 17.9999H14.5834C14.9976 17.9999 15.3334 18.3357 15.3334 18.7499C15.3334 19.1641 14.9976 19.4999 14.5834 19.4999H10.0834C9.66919 19.4999 9.3334 19.1641 9.3334 18.7499Z" fill="#8100E5"/>
</svg>
