<svg width="20" height="20" viewBox="0 0 20 20" xmlns="http://www.w3.org/2000/svg">
    <path
        d="M2.5 15.2801C2.5 15.8689 2.73292 16.4335 3.14751 16.8498C3.56211 17.2662 4.12442 17.5 4.71074 17.5L15.2893 17.5C15.8756 17.5 16.4379 17.2662 16.8525 16.8498C17.2671 16.4335 17.5 15.8689 17.5 15.2801V12.2452C17.5 11.8572 17.1868 11.5427 16.8005 11.5427C16.4141 11.5427 16.1009 11.8572 16.1009 12.2452V15.2801C16.1009 15.4963 16.0154 15.7036 15.8632 15.8565C15.711 16.0093 15.5045 16.0952 15.2893 16.0952L4.71074 16.0952C4.49547 16.0952 4.28901 16.0093 4.13679 15.8565C3.98457 15.7036 3.89906 15.4963 3.89906 15.2801L3.89906 12.2452C3.89906 11.8572 3.58587 11.5427 3.19953 11.5427C2.81319 11.5427 2.5 11.8572 2.5 12.2452L2.5 15.2801Z" />
    <path
        d="M14.556 9.01087C14.8292 8.73655 14.8292 8.2918 14.556 8.01748C14.2829 7.74317 13.8399 7.74317 13.5668 8.01748L10.9829 10.6121V3.20243C10.9829 2.81449 10.6697 2.5 10.2834 2.5C9.89702 2.5 9.58383 2.81449 9.58383 3.20243V10.6121L6.99997 8.01748C6.72678 7.74317 6.28387 7.74317 6.01068 8.01748C5.7375 8.2918 5.7375 8.73655 6.01068 9.01087L9.78872 12.8046C10.0619 13.0789 10.5048 13.0789 10.778 12.8046L14.556 9.01087Z" />
</svg>