<svg width="16" height="16" viewBox="0 0 16 16" fill="currentColor" xmlns="http://www.w3.org/2000/svg">
<path d="M1.47994 1.4797C1.30243 1.65721 1.28629 1.93499 1.43153 2.13073L1.47994 2.18681L4.16966 4.87652C2.88833 5.77616 1.93068 7.11987 1.53275 8.70951C1.4657 8.97739 1.62849 9.2489 1.89637 9.31596C2.16425 9.38302 2.43576 9.22022 2.50282 8.95234C2.85581 7.54224 3.72758 6.35957 4.88961 5.59627L6.09603 6.80275C5.62435 7.28377 5.3335 7.94276 5.3335 8.66967C5.3335 10.1424 6.5274 11.3363 8.00016 11.3363C8.72708 11.3363 9.38606 11.0455 9.86708 10.5738L13.8133 14.5201C14.0085 14.7154 14.3251 14.7154 14.5204 14.5201C14.6979 14.3426 14.714 14.0649 14.5688 13.8691L14.5204 13.813L10.4447 9.7369L10.4455 9.73592L5.81268 5.10513L5.8135 5.10392L5.05797 4.35024L2.18705 1.4797C1.99179 1.28444 1.6752 1.28444 1.47994 1.4797ZM8.00016 3.66659C7.33332 3.66659 6.68626 3.7653 6.07422 3.94992L6.89887 4.77405C7.25607 4.70346 7.62443 4.66659 8.00016 4.66659C10.6155 4.66659 12.8734 6.45343 13.4983 8.95535C13.5652 9.22327 13.8366 9.38621 14.1045 9.3193C14.3724 9.2524 14.5354 8.98097 14.4685 8.71306C13.7331 5.7684 11.0772 3.66659 8.00016 3.66659ZM8.12995 6.0061L10.6642 8.53992C10.5963 7.16864 9.49832 6.07168 8.12995 6.0061Z" fill="currentColor" />
</svg>
