<svg width="24" height="25" viewBox="0 0 24 25" fill="none" xmlns="http://www.w3.org/2000/svg">
<path d="M12.0001 10.5046C14.2093 10.5046 16.0001 12.2955 16.0001 14.5046C16.0001 16.7138 14.2093 18.5046 12.0001 18.5046C9.79098 18.5046 8.00012 16.7138 8.00012 14.5046C8.00012 12.2955 9.79098 10.5046 12.0001 10.5046ZM12.0001 7C16.6136 7 20.5962 10.15 21.7012 14.5644C21.8018 14.9662 21.5576 15.3735 21.1558 15.4741C20.754 15.5746 20.3467 15.3305 20.2461 14.9286C19.3072 11.178 15.9215 8.5 12.0001 8.5C8.07705 8.5 4.69022 11.1803 3.75298 14.9332C3.65261 15.335 3.24547 15.5794 2.8436 15.4791C2.44173 15.3787 2.19731 14.9716 2.29767 14.5697C3.40076 10.1527 7.3846 7 12.0001 7Z" fill="#059EFB"/>
</svg>
