<svg width="24" height="24" viewBox="0 0 24 24" fill="none" xmlns="http://www.w3.org/2000/svg">
<path d="M9.11417 3.76057C9.11417 3.34052 8.76879 3 8.34275 3C7.9167 3 7.57132 3.34052 7.57132 3.76057V5.99162C7.57132 6.41168 7.9167 6.7522 8.34275 6.7522C8.76879 6.7522 9.11417 6.41168 9.11417 5.99162V3.76057Z" fill="#292663"/>
<path d="M16.4287 3.76057C16.4287 3.34052 16.0833 3 15.6573 3C15.2312 3 14.8858 3.34052 14.8858 3.76057V5.99162C14.8858 6.41168 15.2312 6.7522 15.6573 6.7522C16.0833 6.7522 16.4287 6.41168 16.4287 5.99162V3.76057Z" fill="#292663"/>
<path d="M5.6 4.87569H6.54275V5.99162C6.54275 6.97175 7.34863 7.7663 8.34275 7.7663C9.33686 7.7663 10.1427 6.97175 10.1427 5.99162V4.87569H13.8573V5.99162C13.8573 6.97175 14.6631 7.7663 15.6573 7.7663C16.6514 7.7663 17.4573 6.97175 17.4573 5.99162V4.87569H18.4C19.7575 4.87569 21 5.86927 21 7.25883V9.74415H3V7.25883C3 5.86927 4.24252 4.87569 5.6 4.87569Z" fill="#292663"/>
<path fill-rule="evenodd" clip-rule="evenodd" d="M3 18.6169V11.2653H21V18.6169C21 20.0064 19.7575 21 18.4 21H5.6C4.24251 21 3 20.0064 3 18.6169ZM6.85718 13.1409H8.91432V15.1691H6.85718V13.1409ZM10.9715 13.1409H13.0286V15.1691H10.9715V13.1409ZM17.1429 13.1409H15.0857V15.1691H17.1429V13.1409Z" fill="#292663"/>
</svg>
