<svg width="37" height="26" viewBox="0 0 37 26" fill="none" xmlns="http://www.w3.org/2000/svg">
<path d="M35.9053 7.58333H31.6957L30.5257 4.76667C29.3234 1.87078 26.4539 0 23.2146 0H14.2849C11.0463 0 8.17616 1.87078 6.97311 4.76667L5.80311 7.58333H1.5942C1.04506 7.58333 0.642166 8.08031 0.77576 8.59286L1.19764 10.2179C1.29115 10.5794 1.62865 10.8333 2.01607 10.8333H3.42725C2.48295 11.6276 1.87475 12.782 1.87475 14.0833V17.3333C1.87475 18.4248 2.30787 19.4099 2.99975 20.1723V23.8333C2.99975 25.0297 4.00733 26 5.24975 26H7.49975C8.74218 26 9.74976 25.0297 9.74976 23.8333V21.6667H27.7498V23.8333C27.7498 25.0297 28.7574 26 29.9998 26H32.2498C33.4922 26 34.4998 25.0297 34.4998 23.8333V20.1723C35.1917 19.4106 35.6248 18.4255 35.6248 17.3333V14.0833C35.6248 12.782 35.0166 11.6276 34.073 10.8333H35.4842C35.8716 10.8333 36.2091 10.5794 36.3026 10.2179L36.7245 8.59286C36.8574 8.08031 36.4545 7.58333 35.9053 7.58333ZM11.1511 6.37609C11.6637 5.14245 12.9047 4.33333 14.2849 4.33333H23.2146C24.5949 4.33333 25.8359 5.14245 26.3484 6.37609L27.7498 9.75H9.74976L11.1511 6.37609ZM7.49975 17.3198C6.14975 17.3198 5.24975 16.4558 5.24975 15.1599C5.24975 13.864 6.14975 13 7.49975 13C8.84975 13 10.8748 14.9439 10.8748 16.2398C10.8748 17.5358 8.84975 17.3198 7.49975 17.3198ZM29.9998 17.3198C28.6498 17.3198 26.6248 17.5358 26.6248 16.2398C26.6248 14.9439 28.6498 13 29.9998 13C31.3498 13 32.2498 13.864 32.2498 15.1599C32.2498 16.4558 31.3498 17.3198 29.9998 17.3198Z" fill="#292663"/>
</svg>
