<svg width="20" height="20" viewBox="0 0 20 20" fill="currentColor" xmlns="http://www.w3.org/2000/svg">
<path fill-rule="evenodd" clip-rule="evenodd" d="M11.9643 4.00119C11.1246 3.68929 10.2136 3.51848 9.26168 3.51848C5.06712 3.51848 1.66675 6.83489 1.66675 10.9259C1.66675 15.0169 5.06712 18.3333 9.26168 18.3333C13.4563 18.3333 16.8566 15.0169 16.8566 10.9259C16.8566 10.3431 16.7876 9.77608 16.6572 9.2321C16.4471 9.26351 16.2318 9.27979 16.0127 9.27979C13.6824 9.27979 11.7933 7.43735 11.7933 5.16457C11.7933 4.76053 11.853 4.37009 11.9643 4.00119ZM9.26164 6.05272C9.59279 6.05272 9.86124 6.32117 9.86124 6.65232V7.16915H11.3115C11.6344 7.16915 11.8962 7.43097 11.8962 7.75394C11.8962 8.07691 11.6344 8.33874 11.3115 8.33874H8.09575C7.82188 8.33874 7.55922 8.44485 7.36556 8.63372C7.1719 8.8226 7.06311 9.07877 7.06311 9.34588C7.06311 9.613 7.1719 9.86917 7.36556 10.058C7.55922 10.2469 7.82188 10.353 8.09575 10.353H10.4275C11.0195 10.353 11.5871 10.5824 12.0057 10.9906C12.4242 11.3988 12.6594 11.9525 12.6594 12.5298C12.6594 13.1071 12.4242 13.6607 12.0057 14.069C11.5871 14.4772 11.0195 14.7065 10.4275 14.7065H9.86124V15.306C9.86124 15.6372 9.59279 15.9056 9.26164 15.9056C8.93049 15.9056 8.66204 15.6372 8.66204 15.306V14.7065H6.92678C6.6038 14.7065 6.34198 14.4447 6.34198 14.1217C6.34198 13.7987 6.6038 13.5369 6.92678 13.5369H10.4275C10.7014 13.5369 10.9641 13.4308 11.1577 13.2419C11.3514 13.0531 11.4602 12.7969 11.4602 12.5298C11.4602 12.2627 11.3514 12.0065 11.1577 11.8176C10.9641 11.6287 10.7014 11.5226 10.4275 11.5226H8.09575C7.50383 11.5226 6.93615 11.2933 6.5176 10.8851C6.09905 10.4769 5.86391 9.92319 5.86391 9.34588C5.86391 8.76858 6.09905 8.21492 6.5176 7.8067C6.93615 7.39848 7.50383 7.16915 8.09575 7.16915H8.66204V6.65232C8.66204 6.32117 8.93049 6.05272 9.26164 6.05272Z" fill="currentColor"/>
<path d="M15.6164 8.07019C15.3692 8.31125 14.9685 8.31125 14.7213 8.07019L13.0336 6.4241C12.9729 6.36492 12.9271 6.29671 12.8962 6.2239C12.8653 6.15112 12.8482 6.07131 12.8482 5.98761C12.8482 5.90392 12.8653 5.82411 12.8962 5.75133C12.9271 5.67852 12.9729 5.61031 13.0336 5.55113C13.1567 5.43107 13.3179 5.3708 13.4792 5.37033L13.4811 5.37033H17.7005C18.0501 5.37033 18.3334 5.6467 18.3334 5.98761C18.3334 6.32853 18.0501 6.6049 17.7005 6.6049H15.0091L15.6164 7.19722C15.8636 7.43828 15.8636 7.82913 15.6164 8.07019Z" fill="currentColor"/>
<path d="M16.4603 1.84742C16.2131 1.60636 15.8124 1.60636 15.5652 1.84742C15.318 2.08849 15.318 2.47933 15.5652 2.7204L16.1725 3.31272H13.4811C13.1315 3.31272 12.8482 3.58908 12.8482 3.93C12.8482 4.27092 13.1315 4.54728 13.4811 4.54728H17.7005C17.7863 4.54728 17.8681 4.53063 17.9428 4.50045C18.0174 4.47032 18.0874 4.42567 18.148 4.36649C18.2711 4.24643 18.3329 4.08921 18.3334 3.93185L18.3334 3.93L18.3334 3.92815C18.3332 3.84513 18.3161 3.76596 18.2854 3.69371C18.2545 3.62091 18.2087 3.5527 18.148 3.49351L16.4603 1.84742Z" fill="currentColor"/>
</svg>
