<svg width="20" height="20" viewBox="0 0 20 20" fill="none" xmlns="http://www.w3.org/2000/svg">
<path d="M17.8139 5.8335H2.18736C1.42466 5.8335 0.833984 6.46151 0.833984 7.19821V10.6176C0.833984 11.3543 1.42466 11.9824 2.18736 11.9824H11.954C12.2553 11.9824 12.4702 11.7381 12.4702 11.4725C12.4702 11.2069 12.2553 10.9626 11.954 10.9626H2.18736C2.02687 10.9626 1.86645 10.8237 1.86645 10.6176V7.19821C1.86645 6.99219 2.02687 6.85322 2.18736 6.85322H17.8139C17.9744 6.85322 18.1348 6.99219 18.1348 7.19821V9.76278C18.1348 10.0284 18.3497 10.2726 18.6511 10.2726C18.9524 10.2726 19.1673 10.0284 19.1673 9.76278V7.19821C19.1673 6.46151 18.5766 5.8335 17.8139 5.8335Z" fill="#0078D4"/>
<path d="M6.14485 8.30107C6.06997 8.19084 5.90413 8.15311 5.77445 8.21674L5.17923 8.50877V7.92471C5.17923 7.79745 5.05783 7.69428 4.90807 7.69428C4.75832 7.69428 4.63691 7.79745 4.63691 7.92471V8.50877L4.0417 8.21674C3.91202 8.15308 3.74617 8.19087 3.6713 8.30107C3.59642 8.41128 3.64086 8.55221 3.77054 8.61584L4.36576 8.90787L3.77054 9.1999C3.64086 9.26353 3.59642 9.40446 3.6713 9.51466C3.72152 9.58858 3.81266 9.62991 3.90638 9.62991C3.95236 9.62991 3.999 9.61995 4.0417 9.599L4.63691 9.30697V9.89103C4.63691 10.0183 4.75832 10.1215 4.90807 10.1215C5.05783 10.1215 5.17923 10.0183 5.17923 9.89103V9.30697L5.77445 9.599C5.81714 9.61995 5.86378 9.62991 5.90977 9.62991C6.00348 9.62991 6.09463 9.58858 6.14485 9.51466C6.21973 9.40446 6.17529 9.26353 6.0456 9.1999L5.45039 8.90787L6.0456 8.61584C6.17529 8.55221 6.21973 8.41128 6.14485 8.30107Z" fill="#0078D4"/>
<path d="M9.16944 8.21674C9.29913 8.15311 9.46497 8.19084 9.53985 8.30107C9.61472 8.41128 9.57029 8.55221 9.4406 8.61584L8.84539 8.90787L9.4406 9.1999C9.57029 9.26353 9.61472 9.40446 9.53985 9.51466C9.48963 9.58858 9.39848 9.62991 9.30477 9.62991C9.25878 9.62991 9.21214 9.61995 9.16944 9.599L8.57423 9.30697V9.89103C8.57423 10.0183 8.45282 10.1215 8.30307 10.1215C8.15332 10.1215 8.03191 10.0183 8.03191 9.89103V9.30697L7.4367 9.599C7.394 9.61995 7.34736 9.62991 7.30137 9.62991C7.20766 9.62991 7.11651 9.58858 7.0663 9.51466C6.99142 9.40446 7.03585 9.26353 7.16554 9.1999L7.76075 8.90787L7.16554 8.61584C7.03585 8.55221 6.99142 8.41128 7.0663 8.30107C7.14117 8.19087 7.30701 8.15308 7.4367 8.21674L8.03191 8.50877V7.92471C8.03191 7.79745 8.15332 7.69428 8.30307 7.69428C8.45282 7.69428 8.57423 7.79745 8.57423 7.92471V8.50877L9.16944 8.21674Z" fill="#0078D4"/>
<path d="M12.9351 8.30107C12.8602 8.19084 12.6944 8.15311 12.5647 8.21674L11.9695 8.50877V7.92471C11.9695 7.79745 11.8481 7.69428 11.6983 7.69428C11.5486 7.69428 11.4272 7.79745 11.4272 7.92471V8.50877L10.8319 8.21674C10.7023 8.15308 10.5364 8.19087 10.4615 8.30107C10.3867 8.41128 10.4311 8.55221 10.5608 8.61584L11.156 8.90787L10.5608 9.1999C10.4311 9.26353 10.3867 9.40446 10.4615 9.51466C10.5118 9.58858 10.6029 9.62991 10.6966 9.62991C10.7426 9.62991 10.7892 9.61995 10.8319 9.599L11.4272 9.30697V9.89103C11.4272 10.0183 11.5486 10.1215 11.6983 10.1215C11.8481 10.1215 11.9695 10.0183 11.9695 9.89103V9.30697L12.5647 9.599C12.6074 9.61995 12.654 9.62991 12.7 9.62991C12.7937 9.62991 12.8849 9.58858 12.9351 9.51466C13.01 9.40446 12.9655 9.26353 12.8358 9.1999L12.2406 8.90787L12.8358 8.61584C12.9655 8.55221 13.01 8.41128 12.9351 8.30107Z" fill="#0078D4"/>
<path fill-rule="evenodd" clip-rule="evenodd" d="M14.9028 12.1261C14.9028 11.785 15.2167 11.5074 15.6026 11.5074C15.9884 11.5074 16.3023 11.785 16.3023 12.1261C16.3023 12.3982 16.1025 12.6297 15.8259 12.7123V12.9686C15.8259 13.0776 15.7259 13.166 15.6026 13.166C15.4792 13.166 15.3792 13.0776 15.3792 12.9686V12.7123C15.1026 12.6297 14.9028 12.3982 14.9028 12.1261ZM15.3495 12.1261C15.3495 12.2495 15.463 12.3499 15.6026 12.3499C15.7421 12.3499 15.8557 12.2495 15.8557 12.1261C15.8557 12.0027 15.7421 11.9024 15.6026 11.9024C15.463 11.9024 15.3495 12.0027 15.3495 12.1261Z" fill="#0078D4"/>
<path fill-rule="evenodd" clip-rule="evenodd" d="M17.6725 10.5933C17.9549 10.7224 18.1489 10.983 18.1489 11.2837V13.3899C18.1489 13.8184 17.7548 14.1668 17.2701 14.1668H13.9351C13.4503 14.1668 13.0563 13.8184 13.0563 13.3899V11.2837C13.0563 10.983 13.2503 10.7224 13.5327 10.5933V10.4413C13.5327 9.43208 14.4611 8.61127 15.6026 8.61127C16.7441 8.61127 17.6725 9.43208 17.6725 10.4413V10.5933ZM16.8678 10.4413C16.8678 9.82465 16.3 9.32272 15.6026 9.32272C14.9051 9.32272 14.3374 9.82465 14.3374 10.4413V10.5068H16.8678V10.4413ZM17.2701 13.4554C17.3108 13.4554 17.3442 13.4259 17.3442 13.3899V11.2837C17.3442 11.2478 17.3108 11.2182 17.2701 11.2182H13.9351C13.8944 11.2182 13.861 11.2478 13.861 11.2837V13.3899C13.861 13.4259 13.8944 13.4554 13.9351 13.4554H17.2701Z" fill="#0078D4"/>
</svg>
