<svg width="14" height="12" viewBox="0 0 14 12" fill="colorCurrent" xmlns="http://www.w3.org/2000/svg">
<path d="M3.07353 7.00341C2.94696 7.1838 2.9915 7.4321 3.17136 7.55741L3.44319 7.74663C2.99952 8.17575 2.40451 8.41855 1.78306 8.41855H1.04105V7.55953C1.04105 7.34057 0.863963 7.16306 0.645527 7.16306C0.42709 7.16306 0.25 7.34057 0.25 7.55953V11.6035C0.25 11.8225 0.42709 12 0.645527 12C0.863963 12 1.04105 11.8225 1.04105 11.6035V10.7974H1.57718C2.99664 10.7974 4.38478 10.1991 5.37086 9.08856L5.76654 9.364C5.94619 9.48976 6.19542 9.44361 6.31896 9.26144L6.59003 8.86259L3.38125 6.56544L3.07353 7.00341Z" fill="colorCurrent"/>
<path d="M13.5776 7.0387L13.4318 6.93879L10.3981 9.36863L11.2661 9.99505C11.4356 10.1174 11.6727 10.0865 11.8048 9.9221L13.6622 7.61517C13.8078 7.43425 13.7673 7.1684 13.5776 7.0387Z" fill="colorCurrent"/>
<path d="M12.9649 5.6558L5.35953 0.150295C5.01793 -0.09705 4.54362 -0.0327688 4.27972 0.296513L1.78023 3.41502C1.49598 3.76976 1.56773 4.29244 1.9372 4.55694L8.66566 9.37339C8.80945 9.47632 9.00415 9.47124 9.1424 9.3605L12.9802 6.28698C13.1842 6.12368 13.1771 5.80939 12.9649 5.6558ZM10.1655 6.35691C9.94703 6.35691 9.76994 6.1794 9.76994 5.96044C9.76994 5.74149 9.94703 5.56397 10.1655 5.56397C10.3839 5.56397 10.561 5.74149 10.561 5.96044C10.561 6.1794 10.3839 6.35691 10.1655 6.35691Z" fill="colorCurrent"/>
</svg>
