<svg width="20" height="20" viewBox="0 0 20 20" fill="none" xmlns="http://www.w3.org/2000/svg">
<g id="iconbase">
<g id="Color">
<path fill-rule="evenodd" clip-rule="evenodd" d="M7.81014 9.78055C7.48282 10.0672 7.31843 10.4157 7.3089 10.8354V12.4985C7.31814 12.9184 7.48249 13.2668 7.81003 13.5532C8.13889 13.8407 8.54809 13.9918 9.04839 14.0004H13.8075C14.3082 13.9921 14.7173 13.841 15.0458 13.5533C15.3731 13.2666 15.5375 12.9181 15.547 12.4984V10.8336C15.547 10.5626 15.4725 10.3171 15.3223 10.0929C15.1709 9.86678 14.9598 9.68057 14.6838 9.53563L14.5946 9.4888V8.24755L14.8124 8.31774C15.4049 8.5087 15.8889 8.82483 16.2584 9.26804C16.6306 9.71466 16.8222 10.2376 16.8327 10.8302L16.8327 10.8331L16.8327 12.5046C16.8114 13.2629 16.513 13.897 15.9425 14.3962C15.3733 14.8943 14.6593 15.1484 13.8125 15.1666L13.8089 15.1667L9.04341 15.1666C8.19658 15.1484 7.48263 14.8943 6.91343 14.3962C6.3429 13.897 6.04455 13.2629 6.02325 12.5046L6.02319 10.8285C6.04449 10.0701 6.3429 9.43604 6.91343 8.9368C7.48263 8.43874 8.17591 8.18458 9.02275 8.16637H12.0708V9.33349H9.04836C8.54775 9.34178 8.13863 9.49286 7.81014 9.78055Z" fill="#0078D4"/>
<path d="M7.92795 11.8336V10.6669H10.9504C11.451 10.6586 11.8601 10.5075 12.1886 10.2198C12.5159 9.93316 12.6803 9.58467 12.6899 9.16496V7.50188C12.6806 7.08195 12.5163 6.73353 12.1887 6.44718C11.8599 6.15966 11.4507 6.00858 10.9504 6.00001H6.19121C5.6906 6.00831 5.28149 6.15939 4.95299 6.44708C4.62568 6.73374 4.46129 7.08223 4.45176 7.50193V9.16682C4.45176 9.43781 4.52629 9.6833 4.67642 9.90744C4.8279 10.1336 5.039 10.3198 5.31497 10.4647L5.40414 10.5116V11.7516L5.18716 11.6829C4.58373 11.4918 4.09587 11.1706 3.73092 10.7167C3.36592 10.2628 3.1766 9.74547 3.16607 9.16987L3.16602 9.16682L3.16604 7.4954C3.18735 6.73706 3.48576 6.10298 4.05629 5.60375C4.62549 5.10568 5.33944 4.85157 6.18627 4.83335L10.9553 4.83331C11.8022 4.85153 12.5161 5.10568 13.0853 5.60375C13.6559 6.10298 13.9542 6.73707 13.9755 7.4954V9.16496C13.9542 9.9233 13.6559 10.5639 13.0853 11.0632C12.5161 11.5612 11.8022 11.8153 10.9553 11.8336L7.92795 11.8336Z" fill="#0078D4"/>
</g>
</g>
</svg>
