<svg xmlns="http://www.w3.org/2000/svg" width="24" height="24" viewBox="0 0 24 24" fill="none">
<path d="M5.5 4C5.70833 4 5.90365 4.03906 6.08594 4.11719C6.26823 4.19531 6.42708 4.30208 6.5625 4.4375C6.69792 4.57292 6.80469 4.73177 6.88281 4.91406C6.96094 5.09635 7 5.29167 7 5.5C7 5.70833 6.96094 5.90365 6.88281 6.08594C6.80469 6.26823 6.69792 6.42708 6.5625 6.5625C6.42708 6.69792 6.26823 6.80469 6.08594 6.88281C5.90365 6.96094 5.70833 7 5.5 7C5.29167 7 5.09635 6.96094 4.91406 6.88281C4.73177 6.80469 4.57292 6.69792 4.4375 6.5625C4.30208 6.42708 4.19531 6.26823 4.11719 6.08594C4.03906 5.90365 4 5.70833 4 5.5C4 5.29167 4.03906 5.09635 4.11719 4.91406C4.19531 4.73177 4.30208 4.57292 4.4375 4.4375C4.57292 4.30208 4.73177 4.19531 4.91406 4.11719C5.09635 4.03906 5.29167 4 5.5 4ZM11.5 4C11.7083 4 11.9036 4.03906 12.0859 4.11719C12.2682 4.19531 12.4271 4.30208 12.5625 4.4375C12.6979 4.57292 12.8047 4.73177 12.8828 4.91406C12.9609 5.09635 13 5.29167 13 5.5C13 5.70833 12.9609 5.90365 12.8828 6.08594C12.8047 6.26823 12.6979 6.42708 12.5625 6.5625C12.4271 6.69792 12.2682 6.80469 12.0859 6.88281C11.9036 6.96094 11.7083 7 11.5 7C11.2917 7 11.0964 6.96094 10.9141 6.88281C10.7318 6.80469 10.5729 6.69792 10.4375 6.5625C10.3021 6.42708 10.1953 6.26823 10.1172 6.08594C10.0391 5.90365 10 5.70833 10 5.5C10 5.29167 10.0391 5.09635 10.1172 4.91406C10.1953 4.73177 10.3021 4.57292 10.4375 4.4375C10.5729 4.30208 10.7318 4.19531 10.9141 4.11719C11.0964 4.03906 11.2917 4 11.5 4ZM17.5 7C17.2917 7 17.0964 6.96094 16.9141 6.88281C16.7318 6.80469 16.5729 6.69792 16.4375 6.5625C16.3021 6.42708 16.1953 6.26823 16.1172 6.08594C16.0391 5.90365 16 5.70833 16 5.5C16 5.29167 16.0391 5.09635 16.1172 4.91406C16.1953 4.73177 16.3021 4.57292 16.4375 4.4375C16.5729 4.30208 16.7318 4.19531 16.9141 4.11719C17.0964 4.03906 17.2917 4 17.5 4C17.7083 4 17.9036 4.03906 18.0859 4.11719C18.2682 4.19531 18.4271 4.30208 18.5625 4.4375C18.6979 4.57292 18.8047 4.73177 18.8828 4.91406C18.9609 5.09635 19 5.29167 19 5.5C19 5.70833 18.9609 5.90365 18.8828 6.08594C18.8047 6.26823 18.6979 6.42708 18.5625 6.5625C18.4271 6.69792 18.2682 6.80469 18.0859 6.88281C17.9036 6.96094 17.7083 7 17.5 7ZM5.5 10C5.70833 10 5.90365 10.0391 6.08594 10.1172C6.26823 10.1953 6.42708 10.3021 6.5625 10.4375C6.69792 10.5729 6.80469 10.7318 6.88281 10.9141C6.96094 11.0964 7 11.2917 7 11.5C7 11.7083 6.96094 11.9036 6.88281 12.0859C6.80469 12.2682 6.69792 12.4271 6.5625 12.5625C6.42708 12.6979 6.26823 12.8047 6.08594 12.8828C5.90365 12.9609 5.70833 13 5.5 13C5.29167 13 5.09635 12.9609 4.91406 12.8828C4.73177 12.8047 4.57292 12.6979 4.4375 12.5625C4.30208 12.4271 4.19531 12.2682 4.11719 12.0859C4.03906 11.9036 4 11.7083 4 11.5C4 11.2917 4.03906 11.0964 4.11719 10.9141C4.19531 10.7318 4.30208 10.5729 4.4375 10.4375C4.57292 10.3021 4.73177 10.1953 4.91406 10.1172C5.09635 10.0391 5.29167 10 5.5 10ZM11.5 10C11.7083 10 11.9036 10.0391 12.0859 10.1172C12.2682 10.1953 12.4271 10.3021 12.5625 10.4375C12.6979 10.5729 12.8047 10.7318 12.8828 10.9141C12.9609 11.0964 13 11.2917 13 11.5C13 11.7083 12.9609 11.9036 12.8828 12.0859C12.8047 12.2682 12.6979 12.4271 12.5625 12.5625C12.4271 12.6979 12.2682 12.8047 12.0859 12.8828C11.9036 12.9609 11.7083 13 11.5 13C11.2917 13 11.0964 12.9609 10.9141 12.8828C10.7318 12.8047 10.5729 12.6979 10.4375 12.5625C10.3021 12.4271 10.1953 12.2682 10.1172 12.0859C10.0391 11.9036 10 11.7083 10 11.5C10 11.2917 10.0391 11.0964 10.1172 10.9141C10.1953 10.7318 10.3021 10.5729 10.4375 10.4375C10.5729 10.3021 10.7318 10.1953 10.9141 10.1172C11.0964 10.0391 11.2917 10 11.5 10ZM17.5 10C17.7083 10 17.9036 10.0391 18.0859 10.1172C18.2682 10.1953 18.4271 10.3021 18.5625 10.4375C18.6979 10.5729 18.8047 10.7318 18.8828 10.9141C18.9609 11.0964 19 11.2917 19 11.5C19 11.7083 18.9609 11.9036 18.8828 12.0859C18.8047 12.2682 18.6979 12.4271 18.5625 12.5625C18.4271 12.6979 18.2682 12.8047 18.0859 12.8828C17.9036 12.9609 17.7083 13 17.5 13C17.2917 13 17.0964 12.9609 16.9141 12.8828C16.7318 12.8047 16.5729 12.6979 16.4375 12.5625C16.3021 12.4271 16.1953 12.2682 16.1172 12.0859C16.0391 11.9036 16 11.7083 16 11.5C16 11.2917 16.0391 11.0964 16.1172 10.9141C16.1953 10.7318 16.3021 10.5729 16.4375 10.4375C16.5729 10.3021 16.7318 10.1953 16.9141 10.1172C17.0964 10.0391 17.2917 10 17.5 10ZM5.5 16C5.70833 16 5.90365 16.0391 6.08594 16.1172C6.26823 16.1953 6.42708 16.3021 6.5625 16.4375C6.69792 16.5729 6.80469 16.7318 6.88281 16.9141C6.96094 17.0964 7 17.2917 7 17.5C7 17.7083 6.96094 17.9036 6.88281 18.0859C6.80469 18.2682 6.69792 18.4271 6.5625 18.5625C6.42708 18.6979 6.26823 18.8047 6.08594 18.8828C5.90365 18.9609 5.70833 19 5.5 19C5.29167 19 5.09635 18.9609 4.91406 18.8828C4.73177 18.8047 4.57292 18.6979 4.4375 18.5625C4.30208 18.4271 4.19531 18.2682 4.11719 18.0859C4.03906 17.9036 4 17.7083 4 17.5C4 17.2917 4.03906 17.0964 4.11719 16.9141C4.19531 16.7318 4.30208 16.5729 4.4375 16.4375C4.57292 16.3021 4.73177 16.1953 4.91406 16.1172C5.09635 16.0391 5.29167 16 5.5 16ZM11.5 16C11.7083 16 11.9036 16.0391 12.0859 16.1172C12.2682 16.1953 12.4271 16.3021 12.5625 16.4375C12.6979 16.5729 12.8047 16.7318 12.8828 16.9141C12.9609 17.0964 13 17.2917 13 17.5C13 17.7083 12.9609 17.9036 12.8828 18.0859C12.8047 18.2682 12.6979 18.4271 12.5625 18.5625C12.4271 18.6979 12.2682 18.8047 12.0859 18.8828C11.9036 18.9609 11.7083 19 11.5 19C11.2917 19 11.0964 18.9609 10.9141 18.8828C10.7318 18.8047 10.5729 18.6979 10.4375 18.5625C10.3021 18.4271 10.1953 18.2682 10.1172 18.0859C10.0391 17.9036 10 17.7083 10 17.5C10 17.2917 10.0391 17.0964 10.1172 16.9141C10.1953 16.7318 10.3021 16.5729 10.4375 16.4375C10.5729 16.3021 10.7318 16.1953 10.9141 16.1172C11.0964 16.0391 11.2917 16 11.5 16ZM17.5 16C17.7083 16 17.9036 16.0391 18.0859 16.1172C18.2682 16.1953 18.4271 16.3021 18.5625 16.4375C18.6979 16.5729 18.8047 16.7318 18.8828 16.9141C18.9609 17.0964 19 17.2917 19 17.5C19 17.7083 18.9609 17.9036 18.8828 18.0859C18.8047 18.2682 18.6979 18.4271 18.5625 18.5625C18.4271 18.6979 18.2682 18.8047 18.0859 18.8828C17.9036 18.9609 17.7083 19 17.5 19C17.2917 19 17.0964 18.9609 16.9141 18.8828C16.7318 18.8047 16.5729 18.6979 16.4375 18.5625C16.3021 18.4271 16.1953 18.2682 16.1172 18.0859C16.0391 17.9036 16 17.7083 16 17.5C16 17.2917 16.0391 17.0964 16.1172 16.9141C16.1953 16.7318 16.3021 16.5729 16.4375 16.4375C16.5729 16.3021 16.7318 16.1953 16.9141 16.1172C17.0964 16.0391 17.2917 16 17.5 16Z" fill="white"/>
</svg>