<svg width="21" height="20" viewBox="0 0 21 20" fill="none" xmlns="http://www.w3.org/2000/svg">
<path fill-rule="evenodd" clip-rule="evenodd" d="M9.57541 4.00794C6.33349 4.00794 3.68115 6.67723 3.68115 10C3.68115 13.3228 6.33349 15.9921 9.57541 15.9921C11.4211 15.9921 13.0719 15.1301 14.1558 13.7716C14.416 13.4455 14.8925 13.3911 15.2202 13.6501C15.5478 13.909 15.6025 14.3833 15.3423 14.7094C13.9873 16.4076 11.9089 17.5 9.57541 17.5C5.46993 17.5 2.16602 14.1287 2.16602 10C2.16602 5.87131 5.46993 2.5 9.57541 2.5C12.8816 2.5 15.668 4.68641 16.6276 7.69403L17.4098 6.26608C17.6101 5.90048 18.0703 5.76568 18.4376 5.96501C18.8049 6.16433 18.9404 6.62229 18.7401 6.98789L16.8924 10.3609C16.7865 10.5541 16.6011 10.6917 16.3848 10.7375C16.1685 10.7833 15.9429 10.7327 15.7672 10.5991L12.8109 8.35037C12.4784 8.09752 12.4149 7.62434 12.669 7.29349C12.923 6.96265 13.3985 6.89942 13.7309 7.15227L15.2265 8.28987C14.5011 5.80706 12.237 4.00794 9.57541 4.00794Z" fill="white"/>
</svg>
