<svg width="20" height="20" viewBox="0 0 20 20" fill="currentColor" xmlns="http://www.w3.org/2000/svg">
<path fill-rule="evenodd" clip-rule="evenodd" d="M16.0667 10.4083V9.58633L17.1261 8.68377C17.3214 8.51618 17.4496 8.28677 17.4879 8.03608C17.5263 7.7854 17.4724 7.52957 17.3358 7.31382L16.0336 5.16488C15.9368 5.00171 15.7977 4.86617 15.6302 4.77188C15.4626 4.67758 15.2726 4.62784 15.079 4.62765C14.9591 4.62675 14.8398 4.6449 14.7259 4.68137L13.3851 5.12191C13.1536 4.97213 12.9121 4.83752 12.6622 4.71898L12.3808 3.36515C12.3304 3.11781 12.1922 2.89562 11.9904 2.7375C11.7887 2.57937 11.5362 2.49537 11.2773 2.5002H8.69493C8.43598 2.49537 8.18353 2.57937 7.98178 2.7375C7.78003 2.89562 7.64183 3.11781 7.59137 3.36515L7.30996 4.71898C7.05831 4.83749 6.815 4.9721 6.58161 5.12191L5.26837 4.65988C5.15322 4.63067 5.03396 4.61978 4.91523 4.62765C4.72171 4.62784 4.53164 4.67758 4.3641 4.77188C4.19655 4.86617 4.05742 5.00171 3.96065 5.16488L2.65845 7.31382C2.52966 7.52925 2.4818 7.78157 2.52307 8.02758C2.56434 8.27358 2.69218 8.49796 2.88468 8.66229L3.92755 9.5917V10.4137L2.88468 11.3162C2.68674 11.4817 2.55541 11.7101 2.514 11.9609C2.47258 12.2117 2.52376 12.4686 2.65845 12.6862L3.96065 14.8351C4.05742 14.9983 4.19655 15.1338 4.3641 15.2281C4.53164 15.3224 4.72171 15.3722 4.91523 15.3724C5.03516 15.3732 5.15444 15.3551 5.26837 15.3186L6.6092 14.8781C6.84069 15.0279 7.08217 15.1625 7.33203 15.281L7.61344 16.6349C7.6639 16.8822 7.8021 17.1044 8.00385 17.2625C8.2056 17.4206 8.45805 17.5046 8.717 17.4998H11.3214C11.5804 17.5046 11.8328 17.4206 12.0346 17.2625C12.2363 17.1044 12.3745 16.8822 12.425 16.6349L12.7064 15.281C12.958 15.1625 13.2013 15.0279 13.4347 14.8781L14.77 15.3186C14.884 15.3551 15.0032 15.3732 15.1232 15.3724C15.3167 15.3722 15.5068 15.3224 15.6743 15.2281C15.8419 15.1338 15.981 14.9983 16.0778 14.8351L17.3358 12.6862C17.4646 12.4708 17.5125 12.2184 17.4712 11.9724C17.4299 11.7264 17.3021 11.502 17.1096 11.3377L16.0667 10.4083ZM10 13.3333C11.8409 13.3333 13.3333 11.841 13.3333 10C13.3333 8.15905 11.8409 6.66667 10 6.66667C8.15905 6.66667 6.66667 8.15905 6.66667 10C6.66667 11.841 8.15905 13.3333 10 13.3333Z" fill="currentColor"/>
</svg>
