<svg width="20" height="20" viewBox="0 0 20 20" fill="currentColor" xmlns="http://www.w3.org/2000/svg">
<path d="M13.3333 14.9074C12.8094 14.9074 12.3333 14.5833 12.1428 14.0741C12.1428 14.0278 12.1428 13.9815 12.0952 13.9815H7.85706C7.85706 14.0278 7.85706 14.0741 7.80944 14.0741C7.66658 14.5833 7.19039 14.9074 6.66659 14.9074C6.38087 14.9074 6.19039 15.0926 6.19039 15.3704C6.19039 15.6482 6.38087 15.8333 6.66659 15.8333H13.3333C13.619 15.8333 13.8094 15.6482 13.8094 15.3704C13.8094 15.0926 13.619 14.9074 13.3333 14.9074Z" fill="currentColor"/>
<path d="M15.238 4.16669H4.76182C3.9523 4.16669 3.33325 4.76854 3.33325 5.55558V11.6667C3.33325 12.4537 3.9523 13.0556 4.76182 13.0556H15.238C16.0475 13.0556 16.6666 12.4537 16.6666 11.6667V5.55558C16.6666 4.76854 16.0475 4.16669 15.238 4.16669ZM14.2856 8.88889H11.9047C11.7618 8.88889 11.619 8.7963 11.5237 8.70371L11.0952 8.05556L10.4761 9.53704C10.3809 9.67593 10.1904 9.81482 9.99992 9.81482C9.80944 9.81482 9.66659 9.72223 9.57135 9.53704L8.90468 8.24074L8.42849 8.70371C8.33325 8.8426 8.23801 8.88889 8.09516 8.88889H5.7142C5.42849 8.88889 5.23801 8.70371 5.23801 8.42593C5.23801 8.14815 5.42849 7.96297 5.7142 7.96297H7.90468L8.7142 7.17593C8.80944 7.08334 8.99992 7.03704 9.14278 7.03704C9.28563 7.08334 9.42849 7.17593 9.47611 7.26852L9.9523 8.19445L10.5237 6.85186C10.5713 6.71297 10.7618 6.57408 10.9047 6.57408C11.0952 6.57408 11.238 6.62037 11.3333 6.75926L12.1428 7.96297H14.2856C14.5713 7.96297 14.7618 8.14815 14.7618 8.42593C14.7618 8.70371 14.5713 8.88889 14.2856 8.88889Z" fill="currentColor"/>
</svg>
