<svg width="20" height="20" viewBox="0 0 20 20" fill="currentColor" xmlns="http://www.w3.org/2000/svg">
<path fill-rule="evenodd" clip-rule="evenodd" d="M2.5 5.251C2.5 4.55233 3.06753 3.98594 3.76761 3.98594H13.9085C14.6085 3.98594 15.1761 4.55233 15.1761 5.251V17.9016C15.1761 18.6003 14.6085 19.1667 13.9085 19.1667H3.76761C3.06753 19.1667 2.5 18.6003 2.5 17.9016V5.251ZM6.46144 7.57028C6.1114 7.57028 5.82764 7.85348 5.82764 8.20281C5.82764 8.55215 6.1114 8.83534 6.46144 8.83534H11.215C11.565 8.83534 11.8488 8.55215 11.8488 8.20281C11.8488 7.85348 11.565 7.57028 11.215 7.57028H6.46144ZM5.82764 11.5763C5.82764 11.2269 6.1114 10.9437 6.46144 10.9437H11.215C11.565 10.9437 11.8488 11.2269 11.8488 11.5763C11.8488 11.9256 11.565 12.2088 11.215 12.2088H6.46144C6.1114 12.2088 5.82764 11.9256 5.82764 11.5763ZM6.46144 14.3173C6.1114 14.3173 5.82764 14.6005 5.82764 14.9498C5.82764 15.2991 6.1114 15.5823 6.46144 15.5823H11.215C11.565 15.5823 11.8488 15.2991 11.8488 14.9498C11.8488 14.6005 11.565 14.3173 11.215 14.3173H6.46144Z" fill="currentColor"/>
<path fill-rule="evenodd" clip-rule="evenodd" d="M5.24648 2.29919C5.24648 1.94985 5.53024 1.66666 5.88028 1.66666H16.2324C16.9325 1.66666 17.5 2.23304 17.5 2.93172V14.9498C17.5 15.2991 17.2162 15.5823 16.8662 15.5823C16.5162 15.5823 16.2324 15.2991 16.2324 14.9498L16.2324 2.93172H5.88028C5.53024 2.93172 5.24648 2.64852 5.24648 2.29919Z" fill="currentColor"/>
</svg>
