<svg width="20" height="20" viewBox="0 0 20 20" fill="currentColor" xmlns="http://www.w3.org/2000/svg">
<path d="M15.3611 6.49982H11.922C12.2843 6.07662 12.5028 5.53246 12.5028 4.93942C12.5028 3.59428 11.3801 2.5 10.0001 2.5C8.61993 2.5 7.49718 3.59428 7.49718 4.93942C7.49718 5.53246 7.7157 6.07662 8.07805 6.49982H4.63888L2.5 17.5H17.5L15.3611 6.49982ZM10.0001 3.37891C10.8828 3.37891 11.6011 4.07894 11.6011 4.93942C11.6011 5.79979 10.8828 6.49982 10.0001 6.49982C9.11719 6.49982 8.39895 5.79979 8.39895 4.93942C8.39895 4.07894 9.11719 3.37891 10.0001 3.37891ZM9.05567 13.7641L7.93468 12.2111L7.56376 12.5636V13.7641H6.82825V10.2517H7.56376V11.6443L8.99473 10.2517H10.0183L8.45989 11.7186L10.0051 13.7641H9.05567ZM13.1717 13.2404L13.1156 13.2841C12.8895 13.4598 12.6522 13.5941 12.4103 13.6833C12.1658 13.7733 11.9115 13.819 11.654 13.819C11.3064 13.819 10.9854 13.7451 10.6998 13.5992C10.408 13.4502 10.1845 13.2314 10.0355 12.949C9.8898 12.6731 9.81595 12.3616 9.81595 12.0233C9.81595 11.6891 9.88886 11.3725 10.0326 11.0822C10.1805 10.7833 10.3974 10.5578 10.6771 10.4118C10.9503 10.2691 11.2676 10.1967 11.6202 10.1967C11.8772 10.1967 12.1139 10.2384 12.3239 10.3203C12.5405 10.405 12.7141 10.5262 12.8396 10.6802C12.9619 10.8305 13.0554 11.0262 13.1175 11.2618L13.1539 11.4003L12.4769 11.5813L12.4355 11.4446C12.3914 11.2983 12.3374 11.1841 12.2753 11.105C12.2178 11.0319 12.1319 10.9714 12.0199 10.9253C11.9021 10.8767 11.7684 10.8521 11.6224 10.8521C11.4432 10.8521 11.288 10.8782 11.1612 10.9298C11.0366 10.9806 10.9358 11.047 10.8616 11.1271C10.7839 11.2111 10.7228 11.3045 10.6798 11.4045C10.6038 11.5845 10.5651 11.7841 10.5651 11.9969C10.5651 12.2595 10.6107 12.4798 10.7009 12.6516C10.7883 12.8181 10.9115 12.9382 11.0776 13.0184C11.2499 13.1017 11.4354 13.1439 11.6292 13.1439C11.7985 13.1439 11.9663 13.1116 12.128 13.0479C12.2608 12.9956 12.3671 12.9411 12.4453 12.8856V12.5004H11.4733V11.8321L13.1717 11.8295V13.2404Z" fill="currentColor"/>
</svg>
