<svg width="20" height="20" viewBox="0 0 20 20" fill="currentColor" xmlns="http://www.w3.org/2000/svg">
<path fill-rule="evenodd" clip-rule="evenodd" d="M2.49935 3.33301H17.4993V4.35862H18.3327V6.4099H17.4993V6.40994V7.43558V10.1389H18.3327V10.5589V10.8476V11.0623V11.3506V13.247V16.6663H15.8745V13.5998L15.7661 13.4793L15.7664 13.4807L15.3777 13.0484L15.3775 13.0469L14.9623 12.585L14.9624 12.5856L14.5741 12.1532L14.1583 11.6907L14.1586 11.6924L13.77 11.2601L13.7697 11.2583L13.1495 10.5684C13.0627 10.4719 13.057 10.3086 13.1368 10.2035L13.1522 10.1832C13.232 10.0782 13.3669 10.0713 13.4537 10.1679L14.409 11.2306L14.4118 11.2336L15.8745 12.8608V12.7437V12.4457V12.2407V11.4806V10.5589V10.1389H16.666V7.43558H10.1804V10.1389H11.1252V10.5589V13.247V16.6663H8.66695V13.247V12.7437V12.4457V12.2407V11.4806V10.5589V10.1389H9.572V7.43558H3.33268V10.0893H4.12422V10.5048V10.7897V11.0015V11.2864V13.1572V13.4648H4.3042V13.4648H7.67932C7.79722 13.4648 7.89271 13.5804 7.89271 13.7231V13.7507C7.89271 13.8933 7.79722 14.0089 7.67932 14.0089H6.83583L6.83543 14.0093H6.30764L6.30806 14.0089H5.74372L5.74333 14.0093H5.21592L5.21635 14.0089H4.65191L4.65151 14.0093H4.12422V16.53H3.62669V16.5307H2.07434V16.53H1.66602V13.1572V12.6605V12.3665V12.1643V11.4144V10.5048V10.0893H2.49935V7.43558V6.40994V6.4099H1.66602V4.35862H2.49935V3.33301ZM4.12422 14.0092V14.0089H4.12453L4.12422 14.0092Z" fill="currentColor"/>
</svg>
