<svg width="32" height="32" viewBox="0 0 32 32" fill="none" xmlns="http://www.w3.org/2000/svg">
<path d="M6.66634 8.00002V11.6667H7.99967V9.33335H9.33301V8.00002H6.66634Z" fill="white" fill-opacity="0.4"/>
<path d="M14.6663 8.00002H19.9997V9.33335H14.6663V8.00002Z" fill="white" fill-opacity="0.4"/>
<path d="M23.9997 9.33333V8H26.6663V11.6667H25.333V9.33333H23.9997Z" fill="white" fill-opacity="0.4"/>
<path d="M25.333 19H26.6663V22.6667H23.9997V21.3333H25.333V19Z" fill="white" fill-opacity="0.4"/>
<path d="M11.9992 17.6905C11.1492 17.6905 10.4388 18.3584 10.4388 19.2075C10.4388 20.0567 11.1492 20.7246 11.9992 20.7246C12.8491 20.7246 13.5595 20.0567 13.5595 19.2075C13.5595 18.3584 12.8491 17.6905 11.9992 17.6905Z" fill="white" fill-opacity="0.4"/>
<path fill-rule="evenodd" clip-rule="evenodd" d="M19.9997 21.3334V22.6667H18.6517C18.605 22.9953 18.4481 23.3041 18.1994 23.5441C17.8983 23.8344 17.487 24 17.0551 24H6.94424C6.51231 24 6.101 23.8344 5.79999 23.5441C5.49945 23.2542 5.33301 22.8637 5.33301 22.4593V16.4995C5.33301 16.095 5.49945 15.7046 5.79999 15.4147C6.101 15.1244 6.51231 14.9587 6.94424 14.9587H8.92587L9.90511 13.542C9.99502 13.4119 10.1491 13.3334 10.3145 13.3334H13.6848C13.8502 13.3334 14.0043 13.4119 14.0942 13.542L15.0735 14.9587H17.0551C17.487 14.9587 17.8983 15.1244 18.1994 15.4147C18.4999 15.7046 18.6663 16.095 18.6663 16.4995V21.3334H19.9997ZM9.06575 19.2075C9.06575 17.6629 10.3673 16.3902 11.9992 16.3902C13.631 16.3902 14.9326 17.6629 14.9326 19.2075C14.9326 20.7522 13.631 22.0249 11.9992 22.0249C10.3673 22.0249 9.06575 20.7522 9.06575 19.2075Z" fill="white" fill-opacity="0.4"/>
</svg>
