<svg width="53" height="52" viewBox="0 0 53 52" fill="none" xmlns="http://www.w3.org/2000/svg">
<rect x="0.5" width="52" height="52" rx="6" fill="#E8EAF3"/>
<path d="M16.0001 33.3921C16.0001 34.2164 16.3262 35.0069 16.9066 35.5897C17.4871 36.1726 18.2743 36.5 19.0952 36.5L33.9051 36.5C34.7259 36.5 35.5132 36.1726 36.0936 35.5897C36.674 35.0069 37.0001 34.2164 37.0001 33.3921V29.1432C37.0001 28.6001 36.5617 28.1598 36.0208 28.1598C35.4799 28.1598 35.0414 28.6001 35.0414 29.1432V33.3921C35.0414 33.6948 34.9217 33.985 34.7086 34.199C34.4955 34.413 34.2065 34.5332 33.9051 34.5332L19.0952 34.5332C18.7938 34.5332 18.5047 34.413 18.2916 34.199C18.0785 33.985 17.9588 33.6948 17.9588 33.3921L17.9588 29.1432C17.9588 28.6001 17.5203 28.1598 16.9795 28.1598C16.4386 28.1598 16.0001 28.6001 16.0001 29.1432L16.0001 33.3921Z" fill="#292663"/>
<path d="M20.9151 21.0992C20.5327 21.4833 20.5327 22.1059 20.9151 22.49C21.2976 22.874 21.9177 22.874 22.3001 22.49L25.9176 18.8575V29.231C25.9176 29.7741 26.356 30.2144 26.8969 30.2144C27.4378 30.2144 27.8762 29.7741 27.8762 29.231V18.8575L31.4937 22.49C31.8761 22.874 32.4962 22.874 32.8787 22.49C33.2611 22.1059 33.2611 21.4833 32.8787 21.0992L27.5894 15.788C27.2069 15.404 26.5869 15.404 26.2044 15.788L20.9151 21.0992Z" fill="#292663"/>
</svg>
