<svg width="20" height="20" viewBox="0 0 20 20" fill="none" xmlns="http://www.w3.org/2000/svg">
<path d="M2.5 15.2801C2.5 15.8688 2.73292 16.4334 3.14751 16.8498C3.56211 17.2661 4.12442 17.5 4.71074 17.5L15.2893 17.5C15.8756 17.5 16.4379 17.2661 16.8525 16.8498C17.2671 16.4334 17.5 15.8688 17.5 15.28V12.2451C17.5 11.8571 17.1868 11.5427 16.8005 11.5427C16.4141 11.5427 16.1009 11.8571 16.1009 12.2451V15.28C16.1009 15.4962 16.0154 15.7035 15.8632 15.8564C15.711 16.0092 15.5045 16.0951 15.2893 16.0951L4.71074 16.0951C4.49547 16.0951 4.28901 16.0092 4.13679 15.8564C3.98457 15.7035 3.89906 15.4962 3.89906 15.2801L3.89906 12.2451C3.89906 11.8571 3.58587 11.5427 3.19953 11.5427C2.81319 11.5427 2.5 11.8571 2.5 12.2451L2.5 15.2801Z" fill="#525B73"/>
<path d="M6.0108 7.33269C5.73761 7.60701 5.73761 8.05176 6.0108 8.32608C6.28398 8.60039 6.7269 8.60039 7.00008 8.32608L9.58396 5.73148V13.1411C9.58396 13.5291 9.89715 13.8436 10.2835 13.8436C10.6698 13.8436 10.983 13.5291 10.983 13.1411V5.7315L13.5669 8.32608C13.8401 8.60039 14.283 8.60039 14.5562 8.32608C14.8293 8.05176 14.8293 7.60701 14.5562 7.33269L10.7781 3.53899C10.5049 3.26467 10.062 3.26467 9.78884 3.53899L6.0108 7.33269Z" fill="#525B73"/>
</svg>
