<svg width="52" height="52" viewBox="0 0 52 52" fill="none" xmlns="http://www.w3.org/2000/svg">
<rect width="52" height="52" rx="6" fill="#E8EAF3"/>
<path d="M15.5 33.3921C15.5 34.2164 15.8261 35.0069 16.4065 35.5897C16.9869 36.1726 17.7742 36.5 18.595 36.5L33.405 36.5C34.2258 36.5 35.0131 36.1726 35.5935 35.5897C36.1739 35.0069 36.5 34.2164 36.5 33.3921V29.1432C36.5 28.6001 36.0615 28.1598 35.5207 28.1598C34.9798 28.1598 34.5413 28.6001 34.5413 29.1432V33.3921C34.5413 33.6948 34.4216 33.985 34.2085 34.199C33.9954 34.413 33.7063 34.5332 33.405 34.5332L18.595 34.5332C18.2937 34.5332 18.0046 34.413 17.7915 34.199C17.5784 33.985 17.4587 33.6948 17.4587 33.3921L17.4587 29.1432C17.4587 28.6001 17.0202 28.1598 16.4793 28.1598C15.9385 28.1598 15.5 28.6001 15.5 29.1432L15.5 33.3921Z" fill="#292663"/>
<path d="M20.415 21.0992C20.0326 21.4833 20.0326 22.1059 20.415 22.49C20.7975 22.874 21.4176 22.874 21.8 22.49L25.4174 18.8575V29.231C25.4174 29.7741 25.8559 30.2144 26.3968 30.2144C26.9377 30.2144 27.3761 29.7741 27.3761 29.231V18.8575L30.9935 22.49C31.376 22.874 31.9961 22.874 32.3785 22.49C32.761 22.1059 32.761 21.4833 32.3785 21.0992L27.0893 15.788C26.7068 15.404 26.0867 15.404 25.7043 15.788L20.415 21.0992Z" fill="#292663"/>
</svg>
