<svg width="20" height="20" viewBox="0 0 20 20" fill="currentColor" xmlns="http://www.w3.org/2000/svg">
<path fill-rule="evenodd" clip-rule="evenodd" d="M11.0873 1.85426C11.2075 1.73404 11.3706 1.6665 11.5406 1.6665C12.4329 1.6665 13.3165 1.84226 14.1409 2.18373C14.9653 2.52521 15.7143 3.02571 16.3453 3.65668C16.9763 4.28764 17.4768 5.0367 17.8182 5.86109C18.1597 6.68548 18.3355 7.56906 18.3355 8.46138C18.3355 8.8154 18.0485 9.1024 17.6944 9.1024H11.5406C11.1866 9.1024 10.8996 8.8154 10.8996 8.46138V2.30753C10.8996 2.13752 10.9671 1.97447 11.0873 1.85426Z" fill="currentColor"/>
<path d="M9.16699 3.39016C9.16699 3.2919 9.0957 3.20547 8.99748 3.20845C4.92782 3.3321 1.66699 6.66963 1.66699 10.769C1.66699 14.9466 5.05356 18.3331 9.23109 18.3331C13.3305 18.3331 16.668 15.0723 16.7917 11.0026C16.7946 10.9044 16.7082 10.8332 16.61 10.8332H9.16699V3.39016Z" fill="currentColor"/>
</svg>
