<svg width="56" height="56" viewBox="0 0 56 56" fill="none" xmlns="http://www.w3.org/2000/svg">
<path d="M5.5998 2.7998H50.3998V6.9998H53.1998V48.9998H50.3998V53.1998H5.5998V48.9998H2.7998V6.9998H5.5998V2.7998Z" fill="#FF3B49" fill-opacity="0.2"/>
<path fill-rule="evenodd" clip-rule="evenodd" d="M5.5998 2.7998H50.3998V5.5998H49.6654V3.53024H29.3795L27.9998 5.5998L26.6201 3.53024H6.33423V5.5998H5.5998V2.7998ZM5.5998 53.1998H50.3998V50.3998H49.6654V52.4694H29.3795L27.9998 50.3998L26.6201 52.4694H6.33423V50.3998H5.5998V53.1998ZM50.3998 6.9998H53.1998V48.9998H50.3998V48.3113H52.4694V29.3795L50.3998 27.9998L52.4694 26.6201V7.68833H50.3998V6.9998ZM2.7998 48.9998V6.9998H5.5998V7.68833H3.53024L3.53024 26.6201L5.5998 27.9998L3.53024 29.3795L3.53024 48.3113H5.5998V48.9998H2.7998Z" fill="#FF3B49"/>
</svg>
