<svg width="56" height="56" viewBox="0 0 56 56" fill="none" xmlns="http://www.w3.org/2000/svg">
<path d="M5.60005 2.7998H50.4V6.9998H53.2V48.9998H50.4V53.1998H5.60005V48.9998H2.80005V6.9998H5.60005V2.7998Z" fill="#34C759" fill-opacity="0.2"/>
<path fill-rule="evenodd" clip-rule="evenodd" d="M5.60005 2.7998H50.4V5.5998H49.6656V3.53024H29.3798L28 5.5998L26.6203 3.53024H6.33447V5.5998H5.60005V2.7998ZM5.60005 53.1998H50.4V50.3998H49.6656V52.4694H29.3798L28 50.3998L26.6203 52.4694H6.33447V50.3998H5.60005V53.1998ZM50.4001 6.9998H53.2001V48.9998H50.4001V48.3113H52.4696V29.3795L50.4001 27.9998L52.4696 26.6201V7.68833H50.4001V6.9998ZM2.80005 48.9998V6.9998H5.60005V7.68833H3.53048L3.53048 26.6201L5.60005 27.9998L3.53048 29.3795L3.53048 48.3113H5.60005V48.9998H2.80005Z" fill="#34C759"/>
</svg>
