<svg width="178" height="113" viewBox="0 0 178 113" fill="none" xmlns="http://www.w3.org/2000/svg">
<g opacity="0.15">
<path d="M13.6924 25.0698C13.6924 18.1118 18.1885 11.9132 24.8698 9.9704C71.3259 -3.53821 102.752 -3.16981 152.707 10.1624C159.594 12.0004 164.308 18.2978 164.308 25.4256V105C164.308 109.418 160.726 113 156.308 113H21.6924C17.2741 113 13.6924 109.418 13.6924 105V25.0698Z" fill="#CDCDCE"/>
<path d="M13.6924 94.3086H164.308V105C164.308 109.419 160.726 113 156.308 113H21.6924C17.2741 113 13.6924 109.419 13.6924 105V94.3086Z" fill="#7C7E81"/>
<path d="M21.6997 21.2913C20.6372 19.0912 21.7826 16.4577 24.1224 15.7545C72.0755 1.34268 102.003 1.72234 153.711 15.8373C156.111 16.4927 157.324 19.1709 156.242 21.412L150.418 33.4704C150.029 34.2772 149.125 34.7218 148.243 34.5662C96.2151 25.3848 83.0182 25.6007 29.747 34.58C28.8694 34.7279 27.974 34.2831 27.5869 33.4816L21.6997 21.2913Z" fill="#7C7E81"/>
<path d="M160.885 41.6318L166.368 44.9198L166.008 45.8592C170.805 48.6775 178 54.6663 178 54.6663C178 54.6663 177.281 55.7232 176.081 55.8406C174.882 55.958 164.569 52.2003 164.569 52.2003L163.97 50.0866C163.73 49.8518 163.13 49.1472 162.171 49.0298C160.972 48.7949 160.885 49.2785 160.885 49.2785V41.6318Z" fill="#7C7E81"/>
<path d="M163.01 44.5674C162.89 44.5674 162.771 44.8022 162.89 44.9197C163.73 45.6242 165.529 47.1508 166.248 48.2076C167.207 49.6168 167.927 51.1433 167.927 51.1433L177.76 54.7836C177.76 54.7836 176.801 51.7305 174.163 49.1471C170.325 45.1545 164.809 44.5674 163.01 44.5674Z" fill="url(#paint0_linear_23526_252793)"/>
<path d="M164.45 52.2004C164.45 52.2004 171.165 55.6058 175.722 56.0755C176.082 56.0755 177.161 55.9581 177.641 55.4884C178 55.1361 177.88 54.9012 177.76 54.6664C175.122 51.6133 168.047 51.1436 168.047 51.1436L164.45 52.2004Z" fill="url(#paint1_linear_23526_252793)"/>
<path d="M168.047 51.2602C168.647 51.2602 175.482 51.9648 177.521 54.5482C177.641 54.6657 177.88 55.1354 177.521 55.4876C177.281 55.7225 176.921 55.8399 176.321 55.8399C176.082 55.8399 175.842 55.8399 175.722 55.8399C172.004 55.3702 166.728 53.0217 165.049 52.1997L168.047 51.2602ZM168.047 51.0254L164.45 52.0822C164.45 52.0822 171.165 55.4876 175.722 55.9574C175.842 55.9574 176.082 55.9574 176.321 55.9574C176.801 55.9574 177.281 55.8399 177.641 55.4876C178.12 55.0179 177.88 54.4308 177.76 54.1959C175.482 51.6125 168.047 51.0254 168.047 51.0254Z" fill="#1E1E1E"/>
<path d="M17.1154 41.6318L11.6319 44.9198L11.9917 45.8592C7.195 48.6775 0 54.6663 0 54.6663C0 54.6663 0.7195 55.7231 1.91867 55.8406C3.11783 55.958 13.4307 52.2003 13.4307 52.2003L14.0303 50.0866C14.2701 49.8518 14.8697 49.1472 15.829 49.0298C17.0282 48.7949 17.1154 49.2785 17.1154 49.2785V41.6318Z" fill="#7C7E81"/>
<path d="M14.8699 44.5674C14.9898 44.5674 15.1097 44.8022 14.9898 44.9197C14.1504 45.5068 12.3516 47.1508 11.6321 48.0902C10.6728 49.4993 9.95329 51.0259 9.95329 51.0259L0.120117 54.6661C0.120117 54.6661 1.07945 51.613 3.71762 49.0296C7.67487 45.1545 13.0711 44.5674 14.8699 44.5674Z" fill="url(#paint2_linear_23526_252793)"/>
<path d="M13.431 52.2004C13.431 52.2004 6.71569 55.6058 2.15886 56.0755C1.79911 56.0755 0.719855 55.9581 0.240188 55.4884C0.00035499 55.0187 0.000354994 54.7838 0.120272 54.6664C2.75844 51.6133 9.83353 51.1436 9.83353 51.1436L13.431 52.2004Z" fill="url(#paint3_linear_23526_252793)"/>
<path d="M9.83308 51.2602L12.831 52.1997C11.1522 53.0217 5.87583 55.3702 2.15841 55.8399C2.03849 55.8399 1.79866 55.8399 1.55883 55.8399C0.959245 55.8399 0.599495 55.7225 0.359661 55.4876C-8.88919e-05 55.1354 0.239744 54.6656 0.359661 54.5482C2.39824 51.9648 9.2335 51.3777 9.83308 51.2602ZM9.953 51.0254C9.953 51.0254 2.51816 51.6125 0.239744 54.3134C-8.88919e-05 54.6656 -0.120006 55.1354 0.239744 55.6051C0.599495 55.9573 1.19908 56.0748 1.67874 56.0748C1.91858 56.0748 2.15841 56.0748 2.27833 56.0748C6.83516 55.6051 13.5505 52.1997 13.5505 52.1997L9.953 51.0254Z" fill="#1E1E1E"/>
</g>
<defs>
<linearGradient id="paint0_linear_23526_252793" x1="173.532" y1="47.5688" x2="168.579" y2="50.916" gradientUnits="userSpaceOnUse">
<stop offset="0.00515464" stop-color="#C0C0BF"/>
<stop offset="0.0179" stop-color="#C8C9C8"/>
<stop offset="0.0516" stop-color="#D9DAD9"/>
<stop offset="0.093" stop-color="#E4E6E5"/>
<stop offset="0.1499" stop-color="#EBEDEC"/>
<stop offset="0.2949" stop-color="#EDEFEE"/>
<stop offset="0.5306" stop-color="#EAECEB"/>
<stop offset="0.6827" stop-color="#E2E4E3"/>
<stop offset="0.8112" stop-color="#D3D6D4"/>
<stop offset="0.9258" stop-color="#BFC2BF"/>
<stop offset="1" stop-color="#ADB1AD"/>
</linearGradient>
<linearGradient id="paint1_linear_23526_252793" x1="177.861" y1="53.5532" x2="164.463" y2="53.5532" gradientUnits="userSpaceOnUse">
<stop stop-color="#5A5A57"/>
<stop offset="0.1402" stop-color="#636360"/>
<stop offset="0.3724" stop-color="#7C7C7A"/>
<stop offset="0.6679" stop-color="#A4A4A3"/>
<stop offset="0.9948" stop-color="#D9D9D8"/>
</linearGradient>
<linearGradient id="paint2_linear_23526_252793" x1="4.38555" y1="47.5688" x2="9.33824" y2="50.916" gradientUnits="userSpaceOnUse">
<stop offset="0.00515464" stop-color="#C0C0BF"/>
<stop offset="0.0179" stop-color="#C8C9C8"/>
<stop offset="0.0516" stop-color="#D9DAD9"/>
<stop offset="0.093" stop-color="#E4E6E5"/>
<stop offset="0.1499" stop-color="#EBEDEC"/>
<stop offset="0.2949" stop-color="#EDEFEE"/>
<stop offset="0.5306" stop-color="#EAECEB"/>
<stop offset="0.6827" stop-color="#E2E4E3"/>
<stop offset="0.8112" stop-color="#D3D6D4"/>
<stop offset="0.9258" stop-color="#BFC2BF"/>
<stop offset="1" stop-color="#ADB1AD"/>
</linearGradient>
<linearGradient id="paint3_linear_23526_252793" x1="0.0555562" y1="53.5532" x2="13.455" y2="53.5532" gradientUnits="userSpaceOnUse">
<stop stop-color="#5A5A57"/>
<stop offset="0.1402" stop-color="#636360"/>
<stop offset="0.3724" stop-color="#7C7C7A"/>
<stop offset="0.6679" stop-color="#A4A4A3"/>
<stop offset="0.9948" stop-color="#D9D9D8"/>
</linearGradient>
</defs>
</svg>
