<svg width="14" height="14" viewBox="0 0 14 14" fill="none" xmlns="http://www.w3.org/2000/svg">
<path fill-rule="evenodd" clip-rule="evenodd" d="M3.8756 1.16699H3.04211C2.69687 1.16699 2.41699 1.44681 2.41699 1.79199V3.87533C2.41699 4.2205 2.69687 4.50033 3.04211 4.50033H3.8756C4.22085 4.50033 4.50072 4.2205 4.50072 3.87533V3.04199H5.95933V3.66699C5.95933 3.78205 6.05262 3.87533 6.1677 3.87533H7.83469C7.94977 3.87533 8.04306 3.78205 8.04306 3.66699V3.04199H9.50167V3.87533C9.50167 4.2205 9.78154 4.50033 10.1268 4.50033H10.9603C11.3055 4.50033 11.5854 4.2205 11.5854 3.87533V1.79199C11.5854 1.44681 11.3055 1.16699 10.9603 1.16699H10.1268C9.78154 1.16699 9.50167 1.44681 9.50167 1.79199V2.62533H8.04306V2.00033C8.04306 1.88527 7.94977 1.79199 7.83469 1.79199H6.1677C6.05262 1.79199 5.95933 1.88527 5.95933 2.00033V2.62533H4.50072V1.79199C4.50072 1.44681 4.22085 1.16699 3.8756 1.16699ZM3.04211 9.50033H3.8756C4.22085 9.50033 4.50072 9.78015 4.50072 10.1253V10.9587H6.1677V10.542C6.1677 10.4269 6.26099 10.3337 6.37608 10.3337H6.79282V5.54199H6.58445C6.52918 5.54199 6.47618 5.52004 6.43711 5.48097C6.39803 5.4419 6.37608 5.38891 6.37608 5.33366V4.29199H7.62631V5.33366C7.62631 5.38891 7.60436 5.4419 7.56528 5.48097C7.5262 5.52004 7.4732 5.54199 7.41794 5.54199H7.20957V10.3337H7.62631C7.74139 10.3337 7.83469 10.4269 7.83469 10.542V10.9587H9.50167V10.1253C9.50167 9.78015 9.78154 9.50033 10.1268 9.50033H10.9603C11.3055 9.50033 11.5854 9.78015 11.5854 10.1253V12.2087C11.5854 12.5538 11.3055 12.8337 10.9603 12.8337H10.1268C9.78154 12.8337 9.50167 12.5538 9.50167 12.2087V11.3753H7.83469V11.792C7.83469 11.9071 7.74139 12.0003 7.62631 12.0003H6.37608C6.26099 12.0003 6.1677 11.9071 6.1677 11.792V11.3753H4.50072V12.2087C4.50072 12.5538 4.22085 12.8337 3.8756 12.8337H3.04211C2.69687 12.8337 2.41699 12.5538 2.41699 12.2087V10.1253C2.41699 9.78015 2.69687 9.50033 3.04211 9.50033Z" fill="#2B2F33"/>
</svg>
