<svg width="28" height="14" viewBox="0 0 28 14" fill="none" xmlns="http://www.w3.org/2000/svg">
<path d="M0 2.08789C0 0.983322 0.895431 0.0878906 2 0.0878906H26C27.1046 0.0878906 28 0.983321 28 2.08789V12.0879H6.53333V9.20789H0V2.08789Z" fill="#A4A6A7"/>
<path d="M15.8127 11.6373C15.8127 12.8938 14.8022 13.9123 13.5558 13.9123C12.3093 13.9123 11.2988 12.8938 11.2988 11.6373C11.2988 10.3809 12.3093 9.3623 13.5558 9.3623C14.8022 9.3623 15.8127 10.3809 15.8127 11.6373Z" fill="#2B2F33"/>
<path d="M14.4586 11.6373C14.4586 12.1399 14.0544 12.5473 13.5558 12.5473C13.0572 12.5473 12.653 12.1399 12.653 11.6373C12.653 11.1347 13.0572 10.7273 13.5558 10.7273C14.0544 10.7273 14.4586 11.1347 14.4586 11.6373Z" fill="white"/>
<path d="M20.7776 11.6373C20.7776 12.8938 19.7671 13.9123 18.5206 13.9123C17.2741 13.9123 16.2637 12.8938 16.2637 11.6373C16.2637 10.3809 17.2741 9.3623 18.5206 9.3623C19.7671 9.3623 20.7776 10.3809 20.7776 11.6373Z" fill="#2B2F33"/>
<path d="M19.4234 11.6373C19.4234 12.1399 19.0192 12.5473 18.5206 12.5473C18.022 12.5473 17.6178 12.1399 17.6178 11.6373C17.6178 11.1347 18.022 10.7273 18.5206 10.7273C19.0192 10.7273 19.4234 11.1347 19.4234 11.6373Z" fill="white"/>
<path d="M25.7429 11.6373C25.7429 12.8938 24.7324 13.9123 23.4859 13.9123C22.2395 13.9123 21.229 12.8938 21.229 11.6373C21.229 10.3809 22.2395 9.3623 23.4859 9.3623C24.7324 9.3623 25.7429 10.3809 25.7429 11.6373Z" fill="#2B2F33"/>
<path d="M24.3887 11.6373C24.3887 12.1399 23.9845 12.5473 23.4859 12.5473C22.9874 12.5473 22.5832 12.1399 22.5832 11.6373C22.5832 11.1347 22.9874 10.7273 23.4859 10.7273C23.9845 10.7273 24.3887 11.1347 24.3887 11.6373Z" fill="white"/>
</svg>
