<svg width="240" height="521" viewBox="0 0 240 521" fill="none" xmlns="http://www.w3.org/2000/svg">
<g opacity="0.15">
<path d="M221.743 85.5545C222.541 65.13 214.669 51.3678 214.669 51.3678C209.962 30.5575 192.984 18.9304 172.251 9.33551C153.781 0.821003 133.203 1.00107 120.006 1.00107C106.81 1.00107 86.7201 0.718109 67.7618 9.36123C46.9514 18.8532 30.051 30.5832 25.3436 51.3936C25.3436 51.3936 17.4722 65.1557 18.2696 85.5802C18.2696 85.5802 17.8581 112.307 22.2053 137.825C22.2053 137.825 23.7745 171.214 23.0028 181.838C22.2053 192.436 22.2053 341.298 22.2053 341.298C22.2053 341.298 21.8195 359.356 20.6362 370.752C19.4529 382.147 16.7005 414.353 23.3886 432.411C23.3886 432.411 27.7102 444.193 28.8935 459.138C28.8935 459.138 29.4079 463.537 30.4369 469.53C30.4369 469.53 30.4369 469.53 30.4369 469.556C32.006 478.534 34.8356 491.035 39.08 497.62C41.5752 501.53 47.9289 505.466 56.6749 508.913C72.6493 515.241 96.6494 520 120.006 520C143.363 520 167.363 515.241 183.338 508.913C192.084 505.44 198.438 501.505 200.933 497.62C205.151 491.035 207.981 478.508 209.576 469.556C209.576 469.556 209.576 469.556 209.576 469.53C210.631 463.537 211.119 459.138 211.119 459.138C212.303 444.218 216.624 432.411 216.624 432.411C223.312 414.353 220.56 382.147 219.377 370.752C218.193 359.356 217.807 341.298 217.807 341.298C217.807 341.298 217.807 192.436 217.01 181.838C216.238 171.24 217.807 137.825 217.807 137.825C222.129 112.281 221.743 85.5545 221.743 85.5545Z" fill="#CDCDCE" stroke="#7C7E81" stroke-miterlimit="10"/>
<path d="M73.6525 15.251C73.6525 15.251 46.4113 36.2157 33.5752 49.8235C33.5752 49.8235 34.3726 34.9038 47.3116 27.444L73.6525 15.251Z" fill="#7C7E81"/>
<path d="M32.4172 168.437L38.6938 205.35C38.6938 205.35 43.7099 227.729 43.5555 273.312C43.4012 318.868 43.5555 361.698 43.5555 361.698C43.5555 361.698 40.8031 390.38 37.9735 396.27C37.9735 396.27 33.1889 370.341 32.3915 352.669C31.5941 334.997 30.4365 204.192 30.4365 204.192L32.4172 168.437Z" fill="#F8F8F8" stroke="#7C7E81" stroke-miterlimit="10"/>
<path opacity="0.25" d="M35.2573 352.543L35.2573 352.541C34.9262 345.386 34.5442 319.269 34.2117 290.892L40.6622 293.383C40.598 323.758 40.6617 350.13 40.6826 358.75C40.6862 360.258 40.6886 361.223 40.6887 361.57C40.1617 367.231 39.3169 374.571 38.3625 381.019C37.0603 372.316 35.644 361.345 35.2573 352.543Z" fill="#7C7E81" stroke="#7C7E81"/>
<path opacity="0.25" d="M35.9111 205.974L35.9132 205.986L35.9159 205.999C35.9594 206.194 40.8686 228.665 40.7143 273.336L40.7136 273.488C40.6894 278.126 40.6655 282.721 40.6631 287.27L34.1475 284.749C33.7759 253.9 33.4708 221.801 33.3532 209.438C33.3254 206.511 33.3081 204.69 33.3029 204.255L33.8769 194.013L35.9111 205.974Z" fill="#7C7E81" stroke="#7C7E81"/>
<path d="M120.007 8.17676C120.007 8.17676 90.9394 9.7459 84.2513 13.2957C77.5632 16.8199 51.1708 44.3184 41.19 77.7076C31.2093 111.097 33.7045 124.061 33.7045 124.061C33.7045 124.061 35.4794 134.66 43.5566 143.689" stroke="#7C7E81" stroke-miterlimit="10"/>
<path d="M120.006 507.42C120.006 507.42 76.7907 510.173 52.4562 492.887C52.4562 492.887 43.8131 489.362 50.8871 502.713" stroke="#7C7E81" stroke-miterlimit="10"/>
<path d="M30.4365 469.531C32.0057 478.509 34.8353 491.01 39.0796 497.596C41.5748 501.506 47.9286 505.441 56.6746 508.888C55.2341 506.625 53.1504 503.949 50.861 502.689C46.5652 500.348 35.5555 484.631 30.4365 469.531Z" stroke="#7C7E81" stroke-miterlimit="10"/>
<path d="M189.331 467.755C171.607 474.546 147.17 478.739 120.16 478.739C93.1245 478.739 68.6614 474.52 50.9121 467.729L52.224 437.221L53.253 413.504L54.0247 395.832C71.4653 400.488 94.6679 403.343 120.16 403.343C145.601 403.343 168.803 400.514 186.218 395.832L186.99 413.453L188.019 437.221L189.331 467.755Z" fill="#7C7E81" stroke="#7C7E81" stroke-miterlimit="10"/>
<path d="M197.435 143.2L195.351 164.705L194.631 172.113L189.898 221.091C174.515 217.284 148.946 214.788 120.007 214.788C91.0418 214.788 65.4983 217.284 50.1156 221.091L45.3825 172.113L44.6622 164.705L42.5786 143.2C56.032 134.814 85.6142 128.975 120.007 128.975C154.373 128.975 183.981 134.814 197.435 143.2Z" fill="#7C7E81" stroke="#7C7E81" stroke-miterlimit="10"/>
<path d="M207.904 173.94H216.804C216.804 173.94 223.312 175.51 232.341 182.969C241.37 190.429 238.618 193.568 238.618 193.568C238.618 193.568 226.039 197.889 213.872 183.741H208.444L207.904 173.94Z" fill="#7C7E81" stroke="#7C7E81" stroke-miterlimit="10"/>
<path d="M32.1088 173.94H23.2085C23.2085 173.94 16.7004 175.51 7.67141 182.969C-1.35756 190.429 1.39486 193.568 1.39486 193.568C1.39486 193.568 13.9737 197.889 26.1409 183.741H31.5686L32.1088 173.94Z" fill="#7C7E81" stroke="#7C7E81" stroke-miterlimit="10"/>
<path d="M207.594 168.437L201.318 205.35C201.318 205.35 196.302 227.729 196.456 273.312C196.61 318.868 196.456 361.698 196.456 361.698C196.456 361.698 199.209 390.38 202.038 396.27C202.038 396.27 206.823 370.341 207.62 352.669C208.418 334.997 209.575 204.192 209.575 204.192L207.594 168.437Z" fill="#F8F8F8" stroke="#7C7E81" stroke-miterlimit="10"/>
<path opacity="0.25" d="M199.349 293.383L205.8 290.892C205.467 319.269 205.085 345.386 204.754 352.541L204.754 352.543C204.367 361.345 202.951 372.316 201.649 381.019C200.695 374.571 199.85 367.231 199.323 361.57C199.323 361.223 199.325 360.258 199.329 358.75C199.35 350.131 199.413 323.758 199.349 293.383Z" fill="#7C7E81" stroke="#7C7E81"/>
<path opacity="0.25" d="M204.096 205.999L204.099 205.986L204.101 205.974L206.135 194.013L206.709 204.255C206.704 204.69 206.686 206.511 206.659 209.438C206.541 221.801 206.236 253.9 205.864 284.749L199.349 287.27C199.346 282.72 199.322 278.124 199.298 273.485L199.298 273.336C199.298 273.335 199.298 273.335 199.298 273.335C199.143 228.665 204.052 206.194 204.096 205.999Z" fill="#7C7E81" stroke="#7C7E81"/>
<path d="M120.007 507.42C120.007 507.42 163.222 510.173 187.557 492.887C187.557 492.887 196.2 489.362 189.126 502.713" stroke="#7C7E81" stroke-miterlimit="10"/>
<path d="M209.55 469.531C207.981 478.509 205.151 491.01 200.907 497.596C198.412 501.506 192.058 505.441 183.312 508.888C184.753 506.625 186.836 503.949 189.126 502.689C193.447 500.348 204.457 484.631 209.55 469.531Z" stroke="#7C7E81" stroke-miterlimit="10"/>
<path d="M166.361 15.251C166.361 15.251 193.602 36.2157 206.438 49.8235C206.438 49.8235 205.641 34.9038 192.702 27.444L166.361 15.251Z" fill="#7C7E81"/>
<path d="M120.007 8.17676C120.007 8.17676 149.074 9.7459 155.763 13.2957C162.451 16.8199 188.843 44.3184 198.824 77.7076C208.805 111.097 206.309 124.061 206.309 124.061C206.309 124.061 204.535 134.66 196.457 143.689" stroke="#7C7E81" stroke-miterlimit="10"/>
</g>
</svg>
