<svg width="70" height="6" viewBox="0 0 70 6" fill="none" xmlns="http://www.w3.org/2000/svg">
<path d="M5.58825 0.571493L1.90903 0.571494V0L0 7.51029e-08L2.84503e-07 5.85791H1.90903V5.48642L5.58825 5.48642L6.24773 4.45771L6.24773 1.62878L5.58825 0.571493Z" fill="#C7C7C7"/>
<path d="M6.32188 0.35146L5.55827 0.35146L5.55827 5.75216H6.32188L6.32188 0.35146Z" fill="currentColor"/>
<path d="M6.83741 6C6.59445 6 6.4209 5.82854 6.4209 5.65709L6.4209 0.39928C6.4209 0.199254 6.62916 0.0563707 6.83741 0.0563707C7.08038 0.0563707 7.25393 0.227829 7.25393 0.39928L7.25393 5.65709C7.28864 5.85712 7.08038 6 6.83741 6Z" fill="currentColor"/>
<path d="M7.35677 5.11365C7.35677 5.2851 7.53032 5.45653 7.77329 5.45653C7.98154 5.45653 8.1898 5.2851 8.1898 5.11365V0.998822C8.1898 0.827371 8.01625 0.655913 7.77329 0.655913C7.56503 0.655913 7.35677 0.798796 7.35677 0.998822V5.11365Z" fill="currentColor"/>
<path d="M8.67661 4.99949C8.43364 4.99949 8.26009 4.85661 8.26009 4.65658V1.4276C8.26009 1.22758 8.46835 1.0847 8.67661 1.0847C8.91957 1.0847 9.09312 1.25615 9.09312 1.4276V4.65658C9.09312 4.85661 8.91957 4.99949 8.67661 4.99949Z" fill="currentColor"/>
<path d="M9.16341 3.88608C9.16341 4.05754 9.33696 4.22897 9.57993 4.22897C9.8229 4.22897 10.0312 4.08611 9.99644 3.88608V2.20014C9.99644 2.02869 9.8229 1.85725 9.57993 1.85725C9.37167 1.85725 9.16341 2.00012 9.16341 2.20014V3.88608Z" fill="currentColor"/>
<path d="M69.9948 2L10 2L10 4L69.9948 4V2Z" fill="currentColor"/>
<path d="M69.9607 2.08936L68.4768 2.08936V2.14656H69.9607V2.08936Z" fill="white"/>
<path d="M69.9949 2.32397H68.511V2.38118H69.9949V2.32397Z" fill="white"/>
<path d="M69.9802 2.56689H68.4963V2.6241L69.9802 2.6241V2.56689Z" fill="white"/>
<path d="M69.9656 2.80151H68.4817V2.85872L69.9656 2.85872V2.80151Z" fill="white"/>
<path d="M69.9998 3.03906H68.5159V3.09627H69.9998V3.03906Z" fill="white"/>
<path d="M69.9802 3.27637H68.4963V3.33357H69.9802V3.27637Z" fill="white"/>
<path d="M69.9656 3.5166H68.4817V3.57381H69.9656V3.5166Z" fill="white"/>
<path d="M69.9998 3.75415H68.5159V3.81136H69.9998V3.75415Z" fill="white"/>
</svg>
