<svg width="70" height="6" viewBox="0 0 70 6" fill="none" xmlns="http://www.w3.org/2000/svg">
<path d="M64.4118 0.571493L68.091 0.571494V0L70 7.51029e-08L70 5.85791H68.091V5.48642L64.4118 5.48642L63.7523 4.45771L63.7523 1.62878L64.4118 0.571493Z" fill="#C7C7C7"/>
<path d="M63.6781 0.35146L64.4417 0.35146L64.4417 5.75216H63.6781L63.6781 0.35146Z" fill="currentColor"/>
<path d="M63.1626 6C63.4056 6 63.5791 5.82854 63.5791 5.65709L63.5791 0.39928C63.5791 0.199254 63.3708 0.0563707 63.1626 0.0563707C62.9196 0.0563707 62.7461 0.227829 62.7461 0.39928L62.7461 5.65709C62.7114 5.85712 62.9196 6 63.1626 6Z" fill="currentColor"/>
<path d="M62.6432 5.11365C62.6432 5.2851 62.4697 5.45653 62.2267 5.45653C62.0185 5.45653 61.8102 5.2851 61.8102 5.11365V0.998822C61.8102 0.827371 61.9837 0.655913 62.2267 0.655913C62.435 0.655913 62.6432 0.798796 62.6432 0.998822V5.11365Z" fill="currentColor"/>
<path d="M61.3234 4.99949C61.5664 4.99949 61.7399 4.85661 61.7399 4.65658V1.4276C61.7399 1.22758 61.5317 1.0847 61.3234 1.0847C61.0804 1.0847 60.9069 1.25615 60.9069 1.4276V4.65658C60.9069 4.85661 61.0804 4.99949 61.3234 4.99949Z" fill="currentColor"/>
<path d="M60.8366 3.88608C60.8366 4.05754 60.663 4.22897 60.4201 4.22897C60.1771 4.22897 59.9688 4.08611 60.0036 3.88608V2.20014C60.0036 2.02869 60.1771 1.85725 60.4201 1.85725C60.6283 1.85725 60.8366 2.00012 60.8366 2.20014V3.88608Z" fill="currentColor"/>
<path d="M0.00523758 2L60 2L60 4L0.00523758 4V2Z" fill="currentColor"/>
<path d="M0.0393066 2.08936L1.52319 2.08936V2.14656H0.0393066V2.08936Z" fill="white"/>
<path d="M0.00512695 2.32397H1.48901V2.38118H0.00512695V2.32397Z" fill="white"/>
<path d="M0.0197754 2.56689H1.50366V2.6241L0.0197754 2.6241V2.56689Z" fill="white"/>
<path d="M0.0344238 2.80151H1.51831V2.85872L0.0344238 2.85872V2.80151Z" fill="white"/>
<path d="M0.000244141 3.03906H1.48413V3.09627H0.000244141V3.03906Z" fill="white"/>
<path d="M0.0197716 3.27637H1.50366V3.33357H0.0197716V3.27637Z" fill="white"/>
<path d="M0.03442 3.5166H1.51831V3.57381H0.03442V3.5166Z" fill="white"/>
<path d="M0.000240326 3.75415H1.48413V3.81136H0.000240326V3.75415Z" fill="white"/>
</svg>
