<svg width="22" height="50" viewBox="0 0 22 50" fill="none" xmlns="http://www.w3.org/2000/svg">
<path d="M1 5C1 2.23858 3.23858 0 6 0H16C18.7614 0 21 2.23858 21 5V45C21 47.7614 18.7614 50 16 50H6C3.23858 50 1 47.7614 1 45V5Z" fill="#FEC318"/>
<path d="M21 6C21.5523 6 22 6.44772 22 7V43C22 43.5523 21.5523 44 21 44V6Z" fill="#FEA20F"/>
<path d="M0 7C0 6.44772 0.447715 6 1 6V44C0.447715 44 0 43.5523 0 43V7Z" fill="#FEA20F"/>
<mask id="mask0_24057_5864" style="mask-type:alpha" maskUnits="userSpaceOnUse" x="1" y="0" width="20" height="50">
<path d="M1 5C1 2.23858 3.23858 0 6 0H16C18.7614 0 21 2.23858 21 5V45C21 47.7614 18.7614 50 16 50H6C3.23858 50 1 47.7614 1 45V5Z" fill="#85DD9B"/>
</mask>
<g mask="url(#mask0_24057_5864)">
<path fill-rule="evenodd" clip-rule="evenodd" d="M6.17093 -0.725683L5.88077 -1L3 1.72344L5.73569 4.30973L3 6.89601L5.73569 9.48229L3 12.0686L5.73569 14.6549L3 17.2411L5.73569 19.8274L3 22.4137L5.73569 25L3 27.5863L5.73569 30.1726L3 32.7589L5.73569 35.3451L3 37.9314L5.73569 40.5177L3 43.104L5.73569 45.6903L3 48.2766L5.88077 51L6.17093 50.7257L3.58033 48.2766L6.31602 45.6903L3.58033 43.104L6.31602 40.5177L3.58033 37.9314L6.31602 35.3451L3.58033 32.7589L6.31602 30.1726L3.58033 27.5863L6.31602 25L3.58033 22.4137L6.31602 19.8274L3.58033 17.2411L6.31602 14.6549L3.58033 12.0686L6.31602 9.48229L3.58033 6.89601L6.31602 4.30973L3.58033 1.72344L6.17093 -0.725683ZM6.85478 -0.725683L6.56461 -1L3.68384 1.72344L6.41953 4.30973L3.68384 6.89601L6.41953 9.48229L3.68384 12.0686L6.41953 14.6549L3.68384 17.2411L6.41953 19.8274L3.68384 22.4137L6.41953 25L3.68384 27.5863L6.41953 30.1726L3.68384 32.7589L6.41953 35.3451L3.68384 37.9314L6.41953 40.5177L3.68384 43.104L6.41953 45.6903L3.68384 48.2766L6.56461 51L6.85478 50.7257L4.26417 48.2766L6.99986 45.6903L4.26417 43.104L6.99986 40.5177L4.26417 37.9314L6.99986 35.3451L4.26417 32.7589L6.99986 30.1726L4.26417 27.5863L6.99986 25L4.26417 22.4137L6.99986 19.8274L4.26417 17.2411L6.99986 14.6549L4.26417 12.0686L6.99986 9.48229L4.26417 6.89601L6.99986 4.30973L4.26417 1.72344L6.85478 -0.725683ZM12.1708 -0.725683L11.8807 -1L8.9999 1.72344L11.7356 4.30973L8.9999 6.89601L11.7356 9.48229L8.9999 12.0686L11.7356 14.6549L8.9999 17.2411L11.7356 19.8274L8.9999 22.4137L11.7356 25L8.9999 27.5863L11.7356 30.1726L8.9999 32.7589L11.7356 35.3451L8.9999 37.9314L11.7356 40.5177L8.9999 43.104L11.7356 45.6903L8.9999 48.2766L11.8807 51L12.1708 50.7257L9.58023 48.2766L12.3159 45.6903L9.58023 43.104L12.3159 40.5177L9.58023 37.9314L12.3159 35.3451L9.58023 32.7589L12.3159 30.1726L9.58023 27.5863L12.3159 25L9.58023 22.4137L12.3159 19.8274L9.58023 17.2411L12.3159 14.6549L9.58023 12.0686L12.3159 9.48229L9.58023 6.89601L12.3159 4.30973L9.58023 1.72344L12.1708 -0.725683ZM12.8546 -0.725683L12.5644 -1L9.68364 1.72344L12.4193 4.30973L9.68364 6.89601L12.4193 9.48229L9.68364 12.0686L12.4193 14.6549L9.68364 17.2411L12.4193 19.8274L9.68364 22.4137L12.4193 25L9.68364 27.5863L12.4193 30.1726L9.68364 32.7589L12.4193 35.3451L9.68364 37.9314L12.4193 40.5177L9.68364 43.104L12.4193 45.6903L9.68364 48.2766L12.5644 51L12.8546 50.7257L10.264 48.2766L12.9997 45.6903L10.264 43.104L12.9997 40.5177L10.264 37.9314L12.9997 35.3451L10.264 32.7589L12.9997 30.1726L10.264 27.5863L12.9997 25L10.264 22.4137L12.9997 19.8274L10.264 17.2411L12.9997 14.6549L10.264 12.0686L12.9997 9.48229L10.264 6.89601L12.9997 4.30973L10.264 1.72344L12.8546 -0.725683ZM17.8811 -1L18.1713 -0.725683L15.5806 1.72344L18.3163 4.30973L15.5806 6.89601L18.3163 9.48229L15.5806 12.0686L18.3163 14.6549L15.5806 17.2411L18.3163 19.8274L15.5806 22.4137L18.3163 25L15.5806 27.5863L18.3163 30.1726L15.5806 32.7589L18.3163 35.3451L15.5806 37.9314L18.3163 40.5177L15.5807 43.104L18.3163 45.6903L15.5807 48.2766L18.1713 50.7257L17.8811 51L15.0003 48.2766L17.736 45.6903L15.0003 43.104L17.736 40.5177L15.0003 37.9314L17.736 35.3451L15.0003 32.7589L17.736 30.1726L15.0003 27.5863L17.736 25L15.0003 22.4137L17.736 19.8274L15.0003 17.2411L17.736 14.6549L15.0003 12.0686L17.736 9.48229L15.0003 6.89601L17.736 4.30973L15.0003 1.72344L17.8811 -1ZM18.5648 -1L18.8549 -0.725683L16.2643 1.72344L19 4.30973L16.2643 6.89601L19 9.48229L16.2643 12.0686L19 14.6549L16.2643 17.2411L19 19.8274L16.2643 22.4137L19 25L16.2643 27.5863L19 30.1726L16.2643 32.7589L19 35.3451L16.2643 37.9314L19 40.5177L16.2643 43.104L19 45.6903L16.2643 48.2766L18.8549 50.7257L18.5648 51L15.684 48.2766L18.4197 45.6903L15.684 43.104L18.4197 40.5177L15.684 37.9314L18.4197 35.3451L15.684 32.7589L18.4197 30.1726L15.684 27.5863L18.4197 25L15.684 22.4137L18.4197 19.8274L15.684 17.2411L18.4197 14.6549L15.684 12.0686L18.4197 9.48229L15.684 6.89601L18.4197 4.30973L15.684 1.72344L18.5648 -1Z" fill="white" fill-opacity="0.6"/>
</g>
</svg>
