<svg width="28" height="28" viewBox="0 0 28 28" fill="none" xmlns="http://www.w3.org/2000/svg">
<g id="Frame 48096404">
<path id="Icon" d="M10.85 16.4C10.85 17.5598 11.7902 18.5 12.95 18.5H14.9C16.1426 18.5 17.15 17.4926 17.15 16.25C17.15 15.0074 16.1426 14 14.9 14H13.1C11.8574 14 10.85 12.9926 10.85 11.75C10.85 10.5074 11.8574 9.5 13.1 9.5H15.05C16.2098 9.5 17.15 10.4402 17.15 11.6M14 8.15V9.5M14 18.5V19.85M23 14C23 18.9706 18.9706 23 14 23C9.02944 23 5 18.9706 5 14C5 9.02944 9.02944 5 14 5C18.9706 5 23 9.02944 23 14Z" stroke="white" stroke-width="1.5" stroke-linecap="round" stroke-linejoin="round"/>
</g>
</svg>
