<svg width="20" height="20" viewBox="0 0 20 20" fill="none" xmlns="http://www.w3.org/2000/svg">
    <path fill-rule="evenodd" clip-rule="evenodd"
        d="M9.35418 2.5C5.5681 2.5 2.5 5.50445 2.5 9.20926C2.5 12.9141 5.5681 15.9185 9.35418 15.9185C10.8766 15.9185 12.2842 15.4319 13.4217 14.6099L16.1408 17.2717C16.4515 17.5759 16.9556 17.5761 17.2666 17.2722C17.5776 16.9682 17.5778 16.4751 17.2671 16.1709L14.5849 13.5452C15.597 12.3762 16.2084 10.8621 16.2084 9.20926C16.2084 5.50445 13.1403 2.5 9.35418 2.5ZM4.09218 9.20926C4.09218 6.36335 6.44867 4.05738 9.35418 4.05738C12.2597 4.05738 14.6162 6.36335 14.6162 9.20926C14.6162 10.7022 13.9686 12.0458 12.9313 12.9876C11.9918 13.8407 10.7359 14.3611 9.35418 14.3611C6.44867 14.3611 4.09218 12.0552 4.09218 9.20926Z"
        fill="currentColor" />
</svg>