<svg width="20" height="20" viewBox="0 0 20 20" fill="none" xmlns="http://www.w3.org/2000/svg">
<path d="M6.83314 6.19581C6.83314 4.62236 8.09426 3.33337 9.66644 3.33337C11.2386 3.33337 12.4997 4.62236 12.4997 6.19581V6.78676C12.4997 8.36021 11.2386 9.6492 9.66644 9.6492C8.09426 9.6492 6.83314 8.36021 6.83314 6.78676V6.19581Z" fill="#292663"/>
<path d="M4.1665 14.1736C4.1665 12.246 5.73349 10.6833 7.66646 10.6833H11.1341C11.1386 11.4806 11.4632 12.1999 11.9824 12.712L11.694 15.5152C11.6617 15.8294 11.8049 16.1355 12.0639 16.3054C12.3229 16.4754 12.6531 16.48 12.9166 16.3175L13.8886 15.7176L14.7231 16.2325C14.4519 16.5009 14.0786 16.6667 13.6664 16.6667H5.66649C4.83807 16.6667 4.1665 15.997 4.1665 15.1709V14.1736Z" fill="#292663"/>
<path d="M13.8887 12.6667C14.9626 12.6667 15.8332 11.7713 15.8332 10.6667C15.8332 9.56214 14.9626 8.66671 13.8887 8.66671C12.8148 8.66671 11.9443 9.56214 11.9443 10.6667C11.9443 11.7713 12.8148 12.6667 13.8887 12.6667Z" fill="#292663"/>
<path d="M15.035 13.2438C14.686 13.4083 14.2978 13.5 13.8887 13.5C13.4797 13.5 13.0915 13.4083 12.7424 13.2438L12.4997 15.6029L13.8886 14.7457L15.2775 15.603L15.035 13.2438Z" fill="#292663"/>
</svg>
