<svg width="20" height="20" viewBox="0 0 20 20" fill="none" xmlns="http://www.w3.org/2000/svg">
<g id="item">
<g id="Color">
<path d="M8.45512 2.29171C5.98319 2.96888 4.16667 5.23145 4.16667 7.91828V11.8326L2.63996 14.1227C2.46948 14.3784 2.45359 14.7072 2.59861 14.9782C2.74362 15.2491 3.02601 15.4183 3.33333 15.4183H16.6667C16.974 15.4183 17.2564 15.2491 17.4014 14.9782C17.5464 14.7072 17.5305 14.3784 17.36 14.1227L15.8333 11.8326V7.91828C15.8333 5.23144 14.0168 2.96888 11.5449 2.29171C10.3015 1.95124 9.16667 2.08487 8.45512 2.29171Z" fill="#292663"/>
<path d="M7.3641 16.2516C7.83221 17.237 8.83658 17.9183 10.0001 17.9183C11.1636 17.9183 12.168 17.237 12.6361 16.2516H7.3641Z" fill="#292663"/>
</g>
</g>
</svg>
