<svg width="48" height="48" viewBox="0 0 48 48" fill="none" xmlns="http://www.w3.org/2000/svg">
<path opacity="0.8" fill-rule="evenodd" clip-rule="evenodd" d="M2 37.1932C2 36.4596 2.53483 35.865 3.19457 35.865L31.8643 35.865C32.5241 35.865 33.0589 36.4596 33.0589 37.1932C33.0589 37.9267 32.5241 38.5213 31.8643 38.5213L3.19457 38.5213C2.53483 38.5213 2 37.9267 2 37.1932Z" fill="url(#paint0_linear_3655_714)"/>
<path fill-rule="evenodd" clip-rule="evenodd" d="M7.17639 39.8497C7.17639 39.1161 7.71122 38.5215 8.37096 38.5215L37.0407 38.5215C37.7004 38.5215 38.2353 39.1161 38.2353 39.8497C38.2353 40.5832 37.7004 41.1778 37.0407 41.1778L8.37096 41.1778C7.71122 41.1778 7.17639 40.5832 7.17639 39.8497Z" fill="white"/>
<path fill-rule="evenodd" clip-rule="evenodd" d="M36.9411 15.6362H38.2352L38.2352 40.1562C38.2352 40.7204 37.6558 41.1778 36.9411 41.1778C36.2264 41.1778 35.647 40.7204 35.647 40.1562L35.647 15.6362H36.9411Z" fill="white"/>
<path fill-rule="evenodd" clip-rule="evenodd" d="M28.946 9.08116C36.2219 4.52484 42.4316 7.45222 44.9796 9.11218L44.987 9.11696C46.0354 9.81672 46.3317 11.3173 45.5832 12.4066L45.5776 12.4148L42.1571 17.2708H32.0431L28.3517 12.4831C27.5285 11.3891 27.8262 9.78205 28.946 9.08116ZM44.1518 10.5785C41.8367 9.07159 36.2957 6.46361 29.7454 10.5657C29.4526 10.7489 29.3957 11.1419 29.5859 11.3984L32.79 15.5542H41.367L44.306 11.3815C44.4822 11.1216 44.4253 10.7633 44.1518 10.5785Z" fill="white"/>
<path d="M38.0365 15.5542H39.7215L40.0366 10.9895C40.0657 10.8421 39.8623 10.7832 39.8042 10.9306L38.0365 15.5542Z" fill="white"/>
<path d="M27.3264 22.6851C27.5091 22.6851 27.6526 22.7547 27.757 22.9077C27.8614 23.0469 27.9005 23.2279 27.8744 23.4227L27.6004 24.5918C27.5091 24.8841 27.3264 25.0233 27.0524 25.0233H26.139C26.8044 25.6357 27.1437 26.4151 27.1437 27.3476V29.6719C27.1437 30.4513 26.8958 31.1332 26.413 31.7039V34.3204C26.413 34.738 26.2694 35.0998 25.9824 35.406C25.6953 35.7122 25.3561 35.8653 24.9646 35.8653H23.5032C23.1117 35.8653 22.7724 35.7122 22.4854 35.406C22.1983 35.0998 22.0548 34.738 22.0548 34.3204V32.7616H10.4155V34.3204C10.4155 34.738 10.272 35.0998 9.98493 35.406C9.69786 35.7122 9.3586 35.8653 8.96715 35.8653H7.50572C7.11426 35.8653 6.775 35.7122 6.48793 35.406C6.20087 35.0998 6.05733 34.738 6.05733 34.3204V31.7039C5.57454 31.1193 5.32662 30.4373 5.32662 29.6719V27.3476C5.32662 26.4151 5.66588 25.6357 6.33135 25.0233H5.41796C5.14394 25.0233 4.96126 24.8841 4.86992 24.5918L4.5959 23.4227C4.56981 23.2279 4.60895 23.0608 4.71334 22.9077C4.81773 22.7547 4.96126 22.6851 5.14394 22.6851H7.87107L8.64093 20.653C8.82361 20.1659 9.07154 19.7066 9.3847 19.2752C9.69786 18.8437 10.0632 18.4819 10.4808 18.1896C10.8983 17.8973 11.342 17.6746 11.8248 17.5076C12.3076 17.3406 12.8034 17.271 13.3253 17.271H19.145C20.1758 17.271 21.1283 17.5772 21.9895 18.1896C22.8507 18.802 23.464 19.6231 23.8294 20.667L24.5992 22.699H27.3264V22.6851ZM8.9541 29.6719C9.01934 29.6719 9.14983 29.6719 9.34555 29.6719C9.54128 29.6719 9.68481 29.6719 9.77615 29.6719C9.86749 29.6719 9.99798 29.6579 10.1676 29.644C10.3372 29.6301 10.4677 29.6023 10.5591 29.5744C10.6504 29.5466 10.7548 29.5048 10.8592 29.4492C10.9636 29.3935 11.0419 29.3239 11.081 29.2265C11.1201 29.1291 11.1462 29.0177 11.1462 28.8924C11.1462 28.4053 10.8853 27.9043 10.3764 27.3615C9.86749 26.8326 9.39775 26.5682 8.96715 26.5682C8.53655 26.5682 8.19729 26.7073 7.92327 26.9996C7.64925 27.2919 7.51876 27.6677 7.51876 28.113C7.51876 28.5723 7.64925 28.9342 7.92327 29.2265C8.18424 29.5188 8.53655 29.6719 8.9541 29.6719ZM11.3159 21.8082L10.4025 24.2299H22.0417L21.1283 21.8082C20.9718 21.3907 20.7108 21.0427 20.3324 20.7644C19.954 20.486 19.5495 20.3469 19.1319 20.3469H13.3253C12.8947 20.3469 12.5033 20.486 12.1249 20.7644C11.7465 21.0427 11.4725 21.3907 11.3159 21.8082ZM23.5032 29.6719C23.9338 29.6719 24.273 29.5327 24.547 29.2404C24.8211 28.9481 24.9515 28.5723 24.9515 28.127C24.9515 27.6677 24.8211 27.3058 24.547 27.0135C24.273 26.7213 23.9207 26.5821 23.5032 26.5821C23.2291 26.5821 22.916 26.7073 22.5767 26.9718C22.2244 27.2362 21.9373 27.5424 21.6894 27.9182C21.4415 28.294 21.3241 28.628 21.3241 28.9064C21.3241 29.0316 21.3502 29.143 21.3893 29.2404C21.4285 29.3378 21.5067 29.4074 21.6111 29.4631C21.7155 29.5188 21.8199 29.5466 21.9112 29.5883C22.0026 29.6301 22.1331 29.644 22.3027 29.6579C22.4723 29.6719 22.6028 29.6858 22.6942 29.6858C22.7855 29.6858 22.929 29.6858 23.1248 29.6858C23.3205 29.6719 23.451 29.6719 23.5032 29.6719Z" fill="white"/>
<defs>
<linearGradient id="paint0_linear_3655_714" x1="17.5294" y1="35.865" x2="17.5294" y2="38.5213" gradientUnits="userSpaceOnUse">
<stop stop-color="#F8F8F8"/>
<stop offset="1" stop-color="#EAEAEB"/>
</linearGradient>
</defs>
</svg>
