<svg width="14" height="10" viewBox="0 0 14 10" fill="currentColor" xmlns="http://www.w3.org/2000/svg">
    <path fill-rule="evenodd" clip-rule="evenodd"
          d="M3.82931 0C3.46716 0 3.17357 0.281351 3.17357 0.628415C3.17357 0.97548 3.46716 1.25683 3.82931 1.25683H13.0096C13.3718 1.25683 13.6654 0.97548 13.6654 0.628415C13.6654 0.281351 13.3718 0 13.0096 0H3.82931ZM3.82931 4.37164C3.46716 4.37164 3.17357 4.65299 3.17357 5.00006C3.17357 5.34712 3.46716 5.62847 3.82931 5.62847H10.8238C11.186 5.62847 11.4796 5.34712 11.4796 5.00006C11.4796 4.65299 11.186 4.37164 10.8238 4.37164H3.82931ZM3.17357 9.3716C3.17357 9.02454 3.46716 8.74318 3.82931 8.74318H8.2009C8.56305 8.74318 8.85663 9.02454 8.85663 9.3716C8.85663 9.71866 8.56305 10 8.2009 10H3.82931C3.46716 10 3.17357 9.71866 3.17357 9.3716ZM0.960446 10C1.30751 10 1.58886 9.71866 1.58886 9.3716C1.58886 9.02454 1.30751 8.74318 0.960446 8.74318C0.613382 8.74318 0.332031 9.02454 0.332031 9.3716C0.332031 9.71866 0.613382 10 0.960446 10ZM1.58886 5.00006C1.58886 5.34712 1.30751 5.62847 0.960446 5.62847C0.613382 5.62847 0.332031 5.34712 0.332031 5.00006C0.332031 4.65299 0.613382 4.37164 0.960446 4.37164C1.30751 4.37164 1.58886 4.65299 1.58886 5.00006ZM0.960446 1.25683C1.30751 1.25683 1.58886 0.97548 1.58886 0.628415C1.58886 0.281351 1.30751 0 0.960446 0C0.613382 0 0.332031 0.281351 0.332031 0.628415C0.332031 0.97548 0.613382 1.25683 0.960446 1.25683Z"
          fill="currentColor"/>
</svg>
