<svg width="24" height="25" viewBox="0 0 24 25" fill="none" xmlns="http://www.w3.org/2000/svg">
<path fill-rule="evenodd" clip-rule="evenodd" d="M12 20.9C16.6392 20.9 20.4 17.1392 20.4 12.5C20.4 7.86081 16.6392 4.1 12 4.1C7.36081 4.1 3.6 7.86081 3.6 12.5C3.6 17.1392 7.36081 20.9 12 20.9ZM12 22.5C17.5228 22.5 22 18.0228 22 12.5C22 6.97715 17.5228 2.5 12 2.5C6.47715 2.5 2 6.97715 2 12.5C2 18.0228 6.47715 22.5 12 22.5Z" fill="#FD8312"/>
<path fill-rule="evenodd" clip-rule="evenodd" d="M10.8002 9.34211C10.8002 8.87702 10.442 8.5 10.0002 8.5C9.55837 8.5 9.2002 8.87702 9.2002 9.34211V15.6579C9.2002 16.123 9.55837 16.5 10.0002 16.5C10.442 16.5 10.8002 16.123 10.8002 15.6579V9.34211ZM14.8002 9.34211C14.8002 8.87702 14.442 8.5 14.0002 8.5C13.5584 8.5 13.2002 8.87702 13.2002 9.34211V15.6579C13.2002 16.123 13.5584 16.5 14.0002 16.5C14.442 16.5 14.8002 16.123 14.8002 15.6579V9.34211Z" fill="#FD8312"/>
</svg>
