<svg width="24" height="25" viewBox="0 0 24 25" fill="none" xmlns="http://www.w3.org/2000/svg">
<path d="M11.6055 12.5039C11.4102 11.8789 11.4141 10.6719 11.5273 10.6719C11.8555 10.6719 11.8242 12.1133 11.6055 12.5039ZM11.5391 14.3477C11.2383 15.1367 10.8633 16.0391 10.4297 16.7969C11.1445 16.5234 11.9531 16.125 12.8867 15.9414C12.3906 15.5664 11.9141 15.0273 11.5391 14.3477ZM7.86328 19.2227C7.86328 19.2539 8.37891 19.0117 9.22656 17.6523C8.96484 17.8984 8.08984 18.6094 7.86328 19.2227ZM14.1875 8.75H19.5V21.5625C19.5 22.082 19.082 22.5 18.5625 22.5H5.4375C4.91797 22.5 4.5 22.082 4.5 21.5625V3.4375C4.5 2.91797 4.91797 2.5 5.4375 2.5H13.25V7.8125C13.25 8.32812 13.6719 8.75 14.1875 8.75ZM13.875 15.4609C13.0938 14.9844 12.5742 14.3281 12.207 13.3594C12.3828 12.6367 12.6602 11.5391 12.4492 10.8516C12.2656 9.70312 10.793 9.81641 10.582 10.5859C10.3867 11.3008 10.5664 12.3086 10.8984 13.5938C10.4453 14.6719 9.77734 16.1172 9.30469 16.9453C9.30078 16.9453 9.30078 16.9492 9.29688 16.9492C8.23828 17.4922 6.42188 18.6875 7.16797 19.6055C7.38672 19.875 7.79297 19.9961 8.00781 19.9961C8.70703 19.9961 9.40234 19.293 10.3945 17.582C11.4023 17.25 12.5078 16.8359 13.4805 16.6758C14.3281 17.1367 15.3203 17.4375 15.9805 17.4375C17.1211 17.4375 17.1992 16.1875 16.75 15.7422C16.207 15.2109 14.6289 15.3633 13.875 15.4609ZM19.2266 6.60156L15.3984 2.77344C15.2227 2.59766 14.9844 2.5 14.7344 2.5H14.5V7.5H19.5V7.26172C19.5 7.01562 19.4023 6.77734 19.2266 6.60156ZM16.332 16.5742C16.4922 16.4688 16.2344 16.1094 14.6602 16.2227C16.1094 16.8398 16.332 16.5742 16.332 16.5742Z" fill="#FF152B"/>
</svg>
