<svg xmlns="http://www.w3.org/2000/svg" width="20" height="20" viewBox="0 0 20 20" fill="currentColor">
  <path d="M9.67122 10.0031C9.50846 9.48226 9.51172 8.4764 9.60612 8.4764C9.87956 8.4764 9.85352 9.67757 9.67122 10.0031ZM9.61589 11.5396C9.36523 12.1971 9.05273 12.9491 8.69141 13.5806C9.28711 13.3527 9.96094 13.0207 10.7389 12.8677C10.3255 12.5552 9.92839 12.106 9.61589 11.5396ZM6.55273 15.6021C6.55273 15.6281 6.98242 15.4263 7.6888 14.2935C7.4707 14.4985 6.74154 15.091 6.55273 15.6021ZM11.8229 6.87484H16.25V17.5519C16.25 17.9849 15.9017 18.3332 15.4688 18.3332H4.53125C4.09831 18.3332 3.75 17.9849 3.75 17.5519V2.44775C3.75 2.01481 4.09831 1.6665 4.53125 1.6665H11.0417V6.09359C11.0417 6.52327 11.3932 6.87484 11.8229 6.87484ZM11.5625 12.4673C10.9115 12.0702 10.4785 11.5233 10.1725 10.716C10.319 10.1138 10.5501 9.19906 10.3743 8.62614C10.2214 7.66911 8.99414 7.76351 8.81836 8.40479C8.6556 9.00049 8.80534 9.84033 9.08203 10.9113C8.70443 11.8097 8.14779 13.0142 7.75391 13.7043C7.75065 13.7043 7.75065 13.7075 7.7474 13.7075C6.86523 14.16 5.35156 15.1561 5.97331 15.9211C6.1556 16.1457 6.49414 16.2466 6.67318 16.2466C7.25586 16.2466 7.83529 15.6606 8.66211 14.2349C9.50195 13.9582 10.4232 13.6131 11.2337 13.4797C11.9401 13.8638 12.7669 14.1144 13.3171 14.1144C14.2676 14.1144 14.3327 13.0728 13.9583 12.7017C13.5059 12.259 12.1908 12.3859 11.5625 12.4673ZM16.0221 5.08447L12.832 1.89437C12.6855 1.74788 12.487 1.6665 12.2786 1.6665H12.0833V5.83317H16.25V5.6346C16.25 5.42952 16.1686 5.23096 16.0221 5.08447ZM13.61 13.395C13.7435 13.3071 13.5286 13.0077 12.2168 13.1021C13.4245 13.6164 13.61 13.395 13.61 13.395Z" fill="currentColor"/>
</svg>