<svg width="20" height="20" viewBox="0 0 20 20" fill="currentColor" xmlns="http://www.w3.org/2000/svg">
<g id="item">
<g id="Color">
<path d="M12.0192 8.2363C12.0192 9.36589 11.1152 10.2816 10 10.2816C8.88481 10.2816 7.98077 9.36589 7.98077 8.2363C7.98077 7.1067 8.88481 6.19099 10 6.19099C11.1152 6.19099 12.0192 7.1067 12.0192 8.2363Z" fill="currentColor"/>
<path d="M5.96154 14.08C5.96154 12.4663 7.25302 11.1582 8.84615 11.1582H11.1538C12.747 11.1582 14.0385 12.4663 14.0385 14.08V14.6644C14.0385 15.3099 13.5219 15.8332 12.8846 15.8332H7.11538C6.47813 15.8332 5.96154 15.3099 5.96154 14.6644V14.08Z" fill="currentColor"/>
<path d="M5.67308 7.38057C6.54931 7.38057 7.25962 6.66108 7.25962 5.77353C7.25962 4.88599 6.54931 4.1665 5.67308 4.1665C4.79685 4.1665 4.08654 4.88599 4.08654 5.77353C4.08654 6.66108 4.79685 7.38057 5.67308 7.38057Z" fill="currentColor"/>
<path d="M4.76649 8.06923C3.51476 8.06923 2.5 9.09717 2.5 10.3651V10.8242C2.5 11.3314 2.9059 11.7425 3.40658 11.7425H5.53156C6.01108 11.0462 6.69907 10.508 7.50385 10.2208C7.07982 9.67441 6.82692 8.98531 6.82692 8.2363C6.82692 8.18494 6.82812 8.13386 6.83048 8.08307C6.74812 8.07394 6.66442 8.06923 6.57966 8.06923H4.76649Z" fill="currentColor"/>
<path d="M14.4684 11.7425C13.9889 11.0462 13.3009 10.508 12.4962 10.2208C12.9202 9.67441 13.1731 8.98531 13.1731 8.2363C13.1731 8.18494 13.1719 8.13386 13.1695 8.08307C13.2519 8.07394 13.3356 8.06923 13.4203 8.06923H15.2335C16.4852 8.06923 17.5 9.09717 17.5 10.3651V10.8242C17.5 11.3314 17.0941 11.7425 16.5934 11.7425H14.4684Z" fill="currentColor"/>
<path d="M15.9135 5.77353C15.9135 6.66108 15.2032 7.38057 14.3269 7.38057C13.4507 7.38057 12.7404 6.66108 12.7404 5.77353C12.7404 4.88599 13.4507 4.1665 14.3269 4.1665C15.2032 4.1665 15.9135 4.88599 15.9135 5.77353Z" fill="currentColor"/>
</g>
</g>
</svg>
