<svg width="24" height="24" viewBox="0 0 24 24" fill="none" xmlns="http://www.w3.org/2000/svg">
<path fill-rule="evenodd" clip-rule="evenodd" d="M12 2C7.60047 2 4 5.5821 4 9.95918C4 12.6389 5.7531 15.5244 7.58334 17.8037C9.17559 19.7867 10.7919 21.2708 11.2862 21.7247C11.3365 21.7709 11.3752 21.8064 11.401 21.8307C11.5923 21.9215 11.8487 22 12 22C12.1513 22 12.4077 21.9215 12.599 21.8307C12.6248 21.8064 12.6635 21.7709 12.7139 21.7247C13.2082 21.2708 14.8244 19.7867 16.4167 17.8037C18.2469 15.5244 20 12.6389 20 9.95918C20 5.5821 16.3995 2 12 2ZM12 13.2786C10.2961 13.2786 8.90323 11.8954 8.90323 10.2034C8.90323 8.51141 10.2961 7.12821 12 7.12821C13.7039 7.12821 15.0968 8.51141 15.0968 10.2034C15.0968 11.8954 13.7039 13.2786 12 13.2786Z" fill="#292663"/>
</svg>
