<svg width="20" height="20" viewBox="0 0 20 20" fill="currentColor" xmlns="http://www.w3.org/2000/svg">
<path d="M15.6298 7.00655H14.2156V4.58493C14.2156 4.35386 14.0166 4.1665 13.7712 4.1665H6.22915C5.9837 4.1665 5.78469 4.35383 5.78469 4.58493V7.00655H4.37053C3.7987 7.00655 3.3335 7.44453 3.3335 7.98287V12.1924C3.3335 12.7307 3.7987 13.1687 4.37053 13.1687H5.78475V15.4148C5.78475 15.6458 5.98373 15.8332 6.2292 15.8332H13.7711C14.0166 15.8332 14.2156 15.6458 14.2156 15.4148V13.1687H15.6298C16.2016 13.1687 16.6668 12.7307 16.6668 12.1924V7.98287C16.6668 7.44456 16.2016 7.00655 15.6298 7.00655ZM6.67357 5.00335H13.3268V7.00655H6.67357V5.00335ZM13.3267 14.9963H6.67365C6.67365 14.9146 6.67365 11.6743 6.67365 11.5731H13.3267C13.3267 11.6768 13.3267 14.9177 13.3267 14.9963ZM13.7712 9.46347H12.6399C12.3944 9.46347 12.1954 9.27614 12.1954 9.04505C12.1954 8.81395 12.3944 8.62662 12.6399 8.62662H13.7712C14.0166 8.62662 14.2156 8.81395 14.2156 9.04505C14.2156 9.27614 14.0167 9.46347 13.7712 9.46347Z" fill="currentColor"/>
</svg>
