<svg width="16" height="16" viewBox="0 0 16 16" fill="none" xmlns="http://www.w3.org/2000/svg">
<path d="M7.99967 1.33325C9.88475 1.38278 11.4548 2.035 12.7097 3.28992C13.9646 4.54484 14.6168 6.11484 14.6663 7.99992C14.6168 9.885 13.9646 11.455 12.7097 12.7099C11.4548 13.9648 9.88475 14.6171 7.99967 14.6666C6.1146 14.6171 4.5446 13.9648 3.28967 12.7099C2.03475 11.455 1.38253 9.885 1.33301 7.99992C1.38253 6.11484 2.03475 4.54484 3.28967 3.28992C4.5446 2.035 6.1146 1.38278 7.99967 1.33325ZM8.99682 5.42563C9.25491 5.42563 9.46825 5.34881 9.63682 5.19516C9.80539 5.04151 9.88968 4.83563 9.88968 4.57754C9.88968 4.31944 9.80539 4.11357 9.63682 3.95992C9.46825 3.80627 9.25745 3.72944 9.00444 3.72944C8.75142 3.72944 8.54063 3.80627 8.37206 3.95992C8.20348 4.11357 8.1192 4.31944 8.1192 4.57754C8.1192 4.83563 8.20348 5.04151 8.37206 5.19516C8.54063 5.34881 8.74904 5.42563 8.99729 5.42563H8.99682ZM9.17539 10.7828C9.17539 10.7231 9.18031 10.6437 9.19015 10.5447C9.19999 10.4456 9.19999 10.3513 9.19015 10.2618L8.40158 11.1694C8.32221 11.2586 8.24031 11.3282 8.15587 11.378C8.07142 11.4279 7.99952 11.4428 7.94015 11.4228C7.85094 11.3831 7.81126 11.3136 7.8211 11.2142L9.13063 7.0923C9.18015 6.81452 9.13555 6.57643 8.99682 6.37801C8.85809 6.1796 8.63491 6.06055 8.32729 6.02087C7.97999 6.03071 7.60047 6.17706 7.18872 6.45992C6.77698 6.74278 6.41729 7.10246 6.10967 7.53897V7.7623C6.09983 7.86167 6.09983 7.95595 6.10967 8.04516L6.89825 7.13754C6.97761 7.04833 7.05952 6.97881 7.14396 6.92897C7.2284 6.87913 7.29539 6.8642 7.34491 6.8842C7.44428 6.93373 7.47904 7.01309 7.4492 7.1223L6.15444 11.2294C6.08491 11.4774 6.11967 11.6982 6.25872 11.8918C6.39777 12.0855 6.64079 12.2169 6.98777 12.2861C7.48396 12.2763 7.90063 12.1325 8.23777 11.8547C8.57491 11.5769 8.88745 11.2198 9.17539 10.7833V10.7828Z" fill="#525B73"/>
</svg>
