<svg width="37" height="26" viewBox="0 0 37 26" fill="none" xmlns="http://www.w3.org/2000/svg">
<path d="M35.4053 7.58333H31.1957L30.0257 4.76667C28.8234 1.87078 25.9539 0 22.7146 0H13.7849C10.5463 0 7.67616 1.87078 6.47311 4.76667L5.30311 7.58333H1.0942C0.545057 7.58333 0.142166 8.08031 0.27576 8.59286L0.697636 10.2179C0.791151 10.5794 1.12865 10.8333 1.51607 10.8333H2.92725C1.98295 11.6276 1.37475 12.782 1.37475 14.0833V17.3333C1.37475 18.4248 1.80787 19.4099 2.49975 20.1723V23.8333C2.49975 25.0297 3.50733 26 4.74975 26H6.99975C8.24218 26 9.24976 25.0297 9.24976 23.8333V21.6667H27.2498V23.8333C27.2498 25.0297 28.2574 26 29.4998 26H31.7498C32.9922 26 33.9998 25.0297 33.9998 23.8333V20.1723C34.6917 19.4106 35.1248 18.4255 35.1248 17.3333V14.0833C35.1248 12.782 34.5166 11.6276 33.573 10.8333H34.9842C35.3716 10.8333 35.7091 10.5794 35.8026 10.2179L36.2245 8.59286C36.3574 8.08031 35.9545 7.58333 35.4053 7.58333ZM10.6511 6.37609C11.1637 5.14245 12.4047 4.33333 13.7849 4.33333H22.7146C24.0949 4.33333 25.3359 5.14245 25.8485 6.37609L27.2498 9.75H9.24976L10.6511 6.37609Z" fill="#292663"/>
</svg>
