<svg width="20" height="20" viewBox="0 0 20 20" fill="colorCurrent" xmlns="http://www.w3.org/2000/svg">
<path fill-rule="evenodd" clip-rule="evenodd" d="M9.0759 4.00794C5.83397 4.00794 3.18164 6.67723 3.18164 10C3.18164 13.3228 5.83397 15.9921 9.0759 15.9921C10.9216 15.9921 12.5724 15.1301 13.6563 13.7716C13.9165 13.4455 14.393 13.3911 14.7207 13.6501C15.0483 13.909 15.103 14.3833 14.8428 14.7094C13.4878 16.4076 11.4094 17.5 9.0759 17.5C4.97042 17.5 1.6665 14.1287 1.6665 10C1.6665 5.87131 4.97042 2.5 9.0759 2.5C12.3821 2.5 15.1685 4.68641 16.1281 7.69403L16.9103 6.26608C17.1106 5.90048 17.5707 5.76568 17.9381 5.96501C18.3054 6.16433 18.4409 6.62229 18.2406 6.98789L16.3929 10.3609C16.287 10.5541 16.1016 10.6917 15.8853 10.7375C15.669 10.7833 15.4434 10.7327 15.2677 10.5991L12.3113 8.35037C11.9789 8.09752 11.9154 7.62434 12.1694 7.29349C12.4235 6.96265 12.8989 6.89942 13.2314 7.15227L14.727 8.28987C14.0016 5.80706 11.7375 4.00794 9.0759 4.00794Z" fill="colorCurrent"/>
</svg>
