<svg width="18" height="16" viewBox="0 0 18 16" fill="none" xmlns="http://www.w3.org/2000/svg">
    <path fill-rule="evenodd" clip-rule="evenodd"
        d="M8.07639 2.00794C4.83446 2.00794 2.18213 4.67723 2.18213 8C2.18213 11.3228 4.83446 13.9921 8.07639 13.9921C9.92208 13.9921 11.5728 13.1301 12.6568 11.7716C12.917 11.4455 13.3935 11.3911 13.7211 11.6501C14.0488 11.909 14.1035 12.3833 13.8433 12.7094C12.4883 14.4076 10.4099 15.5 8.07639 15.5C3.97091 15.5 0.666992 12.1287 0.666992 8C0.666992 3.87131 3.97091 0.5 8.07639 0.5C11.3826 0.5 14.169 2.68641 15.1286 5.69403L15.9108 4.26608C16.1111 3.90048 16.5712 3.76568 16.9386 3.96501C17.3059 4.16433 17.4414 4.62229 17.2411 4.98789L15.3934 8.36091C15.2875 8.55414 15.1021 8.69169 14.8858 8.73748C14.6695 8.78326 14.4439 8.73269 14.2682 8.59905L11.3118 6.35037C10.9794 6.09752 10.9159 5.62434 11.1699 5.29349C11.424 4.96265 11.8994 4.89942 12.2319 5.15227L13.7275 6.28987C13.0021 3.80706 10.7379 2.00794 8.07639 2.00794Z"
        fill="#525B73" />
</svg>