<svg xmlns="http://www.w3.org/2000/svg" width="20" height="20" viewBox="0 0 20 20" fill="none">
  <path fill-rule="evenodd" clip-rule="evenodd" d="M9.07614 4.00794C5.83422 4.00794 3.18189 6.67723 3.18189 10C3.18189 13.3228 5.83422 15.9921 9.07614 15.9921C10.9218 15.9921 12.5726 15.1301 13.6565 13.7716C13.9167 13.4455 14.3933 13.3911 14.7209 13.6501C15.0486 13.909 15.1032 14.3833 14.8431 14.7094C13.488 16.4076 11.4097 17.5 9.07614 17.5C4.97066 17.5 1.66675 14.1287 1.66675 10C1.66675 5.87131 4.97066 2.5 9.07614 2.5C12.3824 2.5 15.1687 4.68641 16.1283 7.69403L16.9106 6.26608C17.1108 5.90048 17.571 5.76568 17.9383 5.96501C18.3057 6.16433 18.4411 6.62229 18.2408 6.98789L16.3931 10.3609C16.2873 10.5541 16.1019 10.6917 15.8856 10.7375C15.6693 10.7833 15.4437 10.7327 15.268 10.5991L12.3116 8.35037C11.9792 8.09752 11.9156 7.62434 12.1697 7.29349C12.4238 6.96265 12.8992 6.89942 13.2316 7.15227L14.7272 8.28987C14.0019 5.80706 11.7377 4.00794 9.07614 4.00794Z" fill="#525B73"/>
</svg>