<svg width="24" height="25" viewBox="0 0 24 25" fill="none" xmlns="http://www.w3.org/2000/svg">
<path d="M13.7188 18.75H14.6562C14.7806 18.75 14.8998 18.7006 14.9877 18.6127C15.0756 18.5248 15.125 18.4056 15.125 18.2812V9.84375C15.125 9.71943 15.0756 9.6002 14.9877 9.51229C14.8998 9.42439 14.7806 9.375 14.6562 9.375H13.7188C13.5944 9.375 13.4752 9.42439 13.3873 9.51229C13.2994 9.6002 13.25 9.71943 13.25 9.84375V18.2812C13.25 18.4056 13.2994 18.5248 13.3873 18.6127C13.4752 18.7006 13.5944 18.75 13.7188 18.75ZM20.125 5.625H16.9059L15.5777 3.41016C15.4111 3.13243 15.1753 2.90261 14.8934 2.74311C14.6115 2.5836 14.293 2.49985 13.9691 2.5H10.0309C9.70709 2.49998 9.38883 2.5838 9.10707 2.7433C8.82531 2.9028 8.58965 3.13254 8.42305 3.41016L7.09414 5.625H3.875C3.70924 5.625 3.55027 5.69085 3.43306 5.80806C3.31585 5.92527 3.25 6.08424 3.25 6.25V6.875C3.25 7.04076 3.31585 7.19973 3.43306 7.31694C3.55027 7.43415 3.70924 7.5 3.875 7.5H4.5V20.625C4.5 21.1223 4.69754 21.5992 5.04917 21.9508C5.40081 22.3025 5.87772 22.5 6.375 22.5H17.625C18.1223 22.5 18.5992 22.3025 18.9508 21.9508C19.3025 21.5992 19.5 21.1223 19.5 20.625V7.5H20.125C20.2908 7.5 20.4497 7.43415 20.5669 7.31694C20.6842 7.19973 20.75 7.04076 20.75 6.875V6.25C20.75 6.08424 20.6842 5.92527 20.5669 5.80806C20.4497 5.69085 20.2908 5.625 20.125 5.625ZM9.9625 4.48867C9.98339 4.4539 10.0129 4.42515 10.0483 4.40523C10.0836 4.3853 10.1235 4.37489 10.1641 4.375H13.8359C13.8764 4.37495 13.9162 4.3854 13.9515 4.40532C13.9868 4.42524 14.0163 4.45396 14.0371 4.48867L14.7191 5.625H9.28086L9.9625 4.48867ZM17.625 20.625H6.375V7.5H17.625V20.625ZM9.34375 18.75H10.2812C10.4056 18.75 10.5248 18.7006 10.6127 18.6127C10.7006 18.5248 10.75 18.4056 10.75 18.2812V9.84375C10.75 9.71943 10.7006 9.6002 10.6127 9.51229C10.5248 9.42439 10.4056 9.375 10.2812 9.375H9.34375C9.21943 9.375 9.1002 9.42439 9.01229 9.51229C8.92439 9.6002 8.875 9.71943 8.875 9.84375V18.2812C8.875 18.4056 8.92439 18.5248 9.01229 18.6127C9.1002 18.7006 9.21943 18.75 9.34375 18.75Z" fill="#FF3B49"/>
</svg>
