<svg width="20" height="20" viewBox="0 0 20 20" fill="none" xmlns="http://www.w3.org/2000/svg">
<path d="M3.61079 3.61014C3.78803 3.4329 4.02842 3.33333 4.27907 3.33333H5.22415V6.73052C5.22415 7.1114 5.53292 7.42017 5.91381 7.42017H12.4528C12.8336 7.42017 13.1424 7.1114 13.1424 6.73052C13.1424 6.34963 12.8336 6.04086 12.4528 6.04086H6.60346V3.33333H12.5702C12.8355 3.33333 13.0898 3.43869 13.2774 3.62622L16.3744 6.72329C16.562 6.91083 16.6673 7.16518 16.6673 7.4304V15.7216C16.6673 15.9722 16.5677 16.2126 16.3905 16.3899C16.2133 16.5671 15.9729 16.6667 15.7222 16.6667H14.7772V10.8174C14.7772 10.4365 14.4684 10.1277 14.0875 10.1277H5.91381C5.53292 10.1277 5.22415 10.4365 5.22415 10.8174V16.6667H4.27907C4.02842 16.6667 3.78803 16.5671 3.61079 16.3899C3.43356 16.2126 3.33398 15.9722 3.33398 15.7216V4.27841C3.33398 4.02776 3.43356 3.78737 3.61079 3.61014Z" fill="white"/>
<path d="M13.3978 11.507V16.6667H6.60346V11.507H13.3978Z" fill="white"/>
</svg>
