<svg width="16" height="16" viewBox="0 0 16 16" fill="none" xmlns="http://www.w3.org/2000/svg">
<path fill-rule="evenodd" clip-rule="evenodd" d="M7.35418 0.5C3.5681 0.5 0.5 3.50445 0.5 7.20926C0.5 10.9141 3.5681 13.9185 7.35418 13.9185C8.87656 13.9185 10.2842 13.4319 11.4217 12.6099L14.1408 15.2717C14.4515 15.5759 14.9556 15.5761 15.2666 15.2722C15.5776 14.9682 15.5778 14.4751 15.2671 14.1709L12.5849 11.5452C13.597 10.3762 14.2084 8.86208 14.2084 7.20926C14.2084 3.50445 11.1403 0.5 7.35418 0.5ZM2.09218 7.20926C2.09218 4.36335 4.44867 2.05738 7.35418 2.05738C10.2597 2.05738 12.6162 4.36335 12.6162 7.20926C12.6162 8.70222 11.9686 10.0458 10.9313 10.9876C9.9918 11.8407 8.73591 12.3611 7.35418 12.3611C4.44867 12.3611 2.09218 10.0552 2.09218 7.20926Z" fill="white" fill-opacity="0.6"/>
</svg>
