<svg width="14" height="14" viewBox="0 0 14 14" fill="none" xmlns="http://www.w3.org/2000/svg">
<path fill-rule="evenodd" clip-rule="evenodd" d="M3.66385 1.96704L2.94969 0.25L2.23553 1.96704L0.381836 2.11565L1.79415 3.32546L1.36267 5.13435L2.94969 4.165L4.53671 5.13435L4.10522 3.32546L5.51754 2.11565L3.66385 1.96704ZM11.7638 1.96704L11.0497 0.25L10.3355 1.96704L8.48184 2.11565L9.89416 3.32546L9.46267 5.13435L11.0497 4.165L12.6367 5.13435L12.2052 3.32546L13.6175 2.11565L11.7638 1.96704ZM11.0497 8.35L11.7638 10.067L13.6175 10.2157L12.2052 11.4255L12.6367 13.2343L11.0497 12.265L9.46267 13.2343L9.89416 11.4255L8.48184 10.2157L10.3355 10.067L11.0497 8.35ZM3.66385 10.067L2.94969 8.35L2.23553 10.067L0.381836 10.2157L1.79415 11.4255L1.36267 13.2343L2.94969 12.265L4.53671 13.2343L4.10522 11.4255L5.51754 10.2157L3.66385 10.067Z" fill="white"/>
</svg>
