<svg width="17" height="10" viewBox="0 0 17 10" fill="currentColor" xmlns="http://www.w3.org/2000/svg">
<path d="M8.60024 3.33702C10.4412 3.33702 11.9336 4.82941 11.9336 6.67036C11.9336 8.51131 10.4412 10.0037 8.60024 10.0037C6.75929 10.0037 5.2669 8.51131 5.2669 6.67036C5.2669 4.82941 6.75929 3.33702 8.60024 3.33702ZM8.60024 0.416504C12.4448 0.416504 15.7636 3.04151 16.6845 6.72016C16.7683 7.05501 16.5648 7.3944 16.23 7.47822C15.8951 7.56204 15.5557 7.35855 15.4719 7.0237C14.6895 3.89814 11.868 1.6665 8.60024 1.6665C5.33101 1.6665 2.50865 3.90006 1.72762 7.02746C1.64398 7.36236 1.3047 7.56604 0.969806 7.4824C0.634914 7.39877 0.43123 7.05948 0.514865 6.72459C1.43411 3.04377 4.75397 0.416504 8.60024 0.416504Z" fill="currentColor" fill-opacity="0.6"/>
</svg>
