<svg width="17" height="16" viewBox="0 0 17 16" fill="currentColor" xmlns="http://www.w3.org/2000/svg">
<path d="M10.5542 2.85896L6.24142 0.740458V13.141L10.5542 15.2595V2.85896Z" fill="currentColor" fill-opacity="0.6"/>
<path d="M11.8362 2.79255V15.2356L16.4081 12.6689C16.6079 12.5568 16.7311 12.3481 16.7311 12.1221V1.12977C16.7311 0.905276 16.6095 0.697756 16.4118 0.585076C16.2142 0.472396 15.9705 0.471596 15.7721 0.582977L11.8362 2.79255Z" fill="currentColor" fill-opacity="0.6"/>
<path d="M0.387441 3.33107L4.95937 0.764407V13.2075L1.02352 15.417C0.825117 15.5284 0.581369 15.5276 0.383731 15.4149C0.186093 15.3022 0.0644531 15.0947 0.0644531 14.8702V3.87786C0.0644531 3.65187 0.187713 3.44319 0.387441 3.33107Z" fill="currentColor" fill-opacity="0.6"/>
</svg>
