<svg width="14" height="18" viewBox="0 0 14 18" fill="currentColor" xmlns="http://www.w3.org/2000/svg">
<path fill-rule="evenodd" clip-rule="evenodd" d="M7.00065 0.666504C3.33437 0.666504 0.333984 3.65159 0.333984 7.29916C0.333984 9.53229 1.7949 11.9369 3.3201 13.8363C4.64698 15.4887 5.9939 16.7255 6.40582 17.1038C6.44773 17.1423 6.47996 17.1718 6.5015 17.1921C6.66091 17.2677 6.87453 17.3332 7.00065 17.3332C7.12677 17.3332 7.3404 17.2677 7.4998 17.1921C7.52135 17.1718 7.5536 17.1422 7.59553 17.1037C8.00746 16.7255 9.35433 15.4887 10.6812 13.8363C12.2064 11.9369 13.6673 9.53229 13.6673 7.29916C13.6673 3.65159 10.6669 0.666504 7.00065 0.666504ZM7.00065 10.0653C5.58076 10.0653 4.42001 8.91268 4.42001 7.50268C4.42001 6.09268 5.58076 4.94001 7.00065 4.94001C8.42054 4.94001 9.5813 6.09268 9.5813 7.50268C9.5813 8.91268 8.42054 10.0653 7.00065 10.0653Z" fill="currentColor"/>
</svg>
