<svg width="18" height="18" viewBox="0 0 18 18" fill="none" xmlns="http://www.w3.org/2000/svg">
<path fill-rule="evenodd" clip-rule="evenodd" d="M9 1.5C5.70035 1.5 3 4.18657 3 7.46939C3 9.47921 4.31483 11.6433 5.68751 13.3528C6.8817 14.84 8.09393 15.9531 8.46465 16.2935C8.50238 16.3282 8.53138 16.3548 8.55077 16.373C8.69423 16.4411 8.88649 16.5 9 16.5C9.11351 16.5 9.30577 16.4411 9.44923 16.373C9.46863 16.3548 9.49765 16.3281 9.5354 16.2935C9.90613 15.9531 11.1183 14.84 12.3125 13.3528C13.6852 11.6433 15 9.47921 15 7.46939C15 4.18657 12.2996 1.5 9 1.5ZM9 9.95896C7.7221 9.95896 6.67742 8.92156 6.67742 7.65256C6.67742 6.38356 7.7221 5.34615 9 5.34615C10.2779 5.34615 11.3226 6.38356 11.3226 7.65256C11.3226 8.92156 10.2779 9.95896 9 9.95896Z" fill="white"/>
</svg>
