<svg width="16" height="16" viewBox="0 0 16 16" fill="currentColor" xmlns="http://www.w3.org/2000/svg">
<path fill-rule="evenodd" clip-rule="evenodd" d="M7.55438 0.5C3.76829 0.5 0.700195 3.50445 0.700195 7.20926C0.700195 10.9141 3.76829 13.9185 7.55438 13.9185C9.07675 13.9185 10.4844 13.4319 11.6219 12.6099L14.341 15.2717C14.6517 15.5759 15.1558 15.5761 15.4668 15.2722C15.7778 14.9682 15.778 14.4751 15.4673 14.1709L12.7851 11.5452C13.7972 10.3762 14.4086 8.86208 14.4086 7.20926C14.4086 3.50445 11.3405 0.5 7.55438 0.5ZM2.29237 7.20926C2.29237 4.36335 4.64887 2.05738 7.55438 2.05738C10.4599 2.05738 12.8164 4.36335 12.8164 7.20926C12.8164 8.70222 12.1688 10.0458 11.1315 10.9876C10.192 11.8407 8.93611 12.3611 7.55438 12.3611C4.64887 12.3611 2.29237 10.0552 2.29237 7.20926Z" fill="currentColor" fill-opacity="0.6"/>
</svg>
