<svg width="18" height="16" viewBox="0 0 18 16" fill="currentColor" xmlns="http://www.w3.org/2000/svg">
<path fill-rule="evenodd" clip-rule="evenodd" d="M7.74003 0.78517C8.06138 0.598877 8.42591 0.5 8.79818 0.5C9.17044 0.5 9.53497 0.598877 9.85633 0.78517C10.1775 0.971348 10.4436 1.23783 10.6314 1.55651L10.6332 1.55964L16.8506 12.247C17.0343 12.5745 17.1305 12.9441 17.1315 13.3191C17.1325 13.6941 17.0382 14.0642 16.8564 14.3927C16.6744 14.7214 16.4103 14.9985 16.0878 15.1939C15.765 15.3894 15.3961 15.4956 15.0179 15.4999L15.0103 15.5L2.57841 15.5C2.20022 15.4957 1.83131 15.3894 1.50859 15.1939C1.18608 14.9985 0.921956 14.7214 0.739995 14.3927C0.558112 14.0642 0.463832 13.6941 0.464852 13.3191C0.465872 12.9441 0.562164 12.5746 0.745863 12.247L0.750984 12.2379L6.96316 1.55965L6.965 1.55651C7.15274 1.23783 7.41887 0.971348 7.74003 0.78517ZM9.56414 6.48125C9.56414 6.0618 9.22107 5.72176 8.79786 5.72176C8.37465 5.72176 8.03158 6.0618 8.03158 6.48125V9.09818C8.03158 9.51763 8.37465 9.85767 8.79786 9.85767C9.22107 9.85767 9.56414 9.51763 9.56414 9.09818V6.48125ZM8.79786 11.0382C8.37465 11.0382 8.03158 11.3782 8.03158 11.7977C8.03158 12.2171 8.37465 12.5572 8.79786 12.5572H8.80446C9.22767 12.5572 9.57074 12.2171 9.57074 11.7977C9.57074 11.3782 9.22767 11.0382 8.80446 11.0382H8.79786Z" fill="currentColor" fill-opacity="0.6"/>
</svg>
