<svg width="24" height="25" viewBox="0 0 24 25" fill="none" xmlns="http://www.w3.org/2000/svg">
<path d="M6.72235 18.3639L8.95547 20.619C9.26767 20.9343 9.26768 21.444 8.95547 21.7594C8.64259 22.0754 8.14009 22.0818 7.82989 21.7685L4.22931 18.1321C4.15643 18.0499 4.10015 17.9602 4.05991 17.8626C3.98003 17.669 3.98003 17.4419 4.05991 17.2483C4.10015 17.1507 4.15643 17.061 4.22931 16.9787L7.82989 13.3424C8.14143 13.0277 8.64394 13.0277 8.95547 13.3424C9.26768 13.6577 9.26754 14.1676 8.95533 14.483L6.72309 16.7469H19.2008C19.639 16.7469 20 17.1098 20 17.5554C20 18.001 19.639 18.3639 19.2008 18.3639H6.72235Z" fill="#292663"/>
<path d="M19.7707 8.02576L16.1701 11.6621C15.8599 11.9755 15.3574 11.9691 15.0445 11.653C14.7323 11.3377 14.7323 10.828 15.0445 10.5126L17.2777 8.25758H4.7992C4.36102 8.25758 4 7.89467 4 7.44907C4 7.00347 4.36102 6.64056 4.7992 6.64056H17.2769L15.0445 4.37645C14.7323 4.06108 14.7323 3.55138 15.0445 3.23601C15.3561 2.92132 15.8586 2.92133 16.1701 3.23602L19.7707 6.87238C19.8436 6.95459 19.8998 7.04436 19.9401 7.1419C20.02 7.33556 20.02 7.56258 19.9401 7.75624C19.8998 7.85379 19.8436 7.94355 19.7707 8.02576Z" fill="#292663"/>
</svg>
