<svg width="84" height="38" viewBox="0 0 84 38" fill="none" xmlns="http://www.w3.org/2000/svg">
<path d="M7 5H12V14C12 15.6569 10.6569 17 9 17H3L7 5Z" fill="white"/>
<path fill-rule="evenodd" clip-rule="evenodd" d="M9.33333 19.2727H0V32H24V4H14.6667V14.1818C14.6667 16.9935 12.2789 19.2727 9.33333 19.2727ZM9.33325 16H3.16755L7.92939 6H11.3333V14.1818C11.3333 15.0993 10.5265 16 9.33325 16ZM0 18H2.21518H9.33325C11.5424 18 13.3333 16.2905 13.3333 14.1818V6V4H11.3333H6.66658L0.952369 16L0 18Z" fill="#A4A6A7"/>
<path d="M19 31.5C19 35.0899 16.0899 38 12.5 38C8.91015 38 6 35.0899 6 31.5C6 27.9101 8.91015 25 12.5 25C16.0899 25 19 27.9101 19 31.5Z" fill="#2B2F33"/>
<path d="M15.1 31.5C15.1 32.9359 13.9359 34.1 12.5 34.1C11.0641 34.1 9.9 32.9359 9.9 31.5C9.9 30.0641 11.0641 28.9 12.5 28.9C13.9359 28.9 15.1 30.0641 15.1 31.5Z" fill="white"/>
<path d="M26 2C26 0.895431 26.8954 0 28 0H82C83.1046 0 84 0.895431 84 2V32H26V2Z" fill="#A4A6A7"/>
<path d="M78 31.5C78 35.0899 75.0899 38 71.5 38C67.9101 38 65 35.0899 65 31.5C65 27.9101 67.9101 25 71.5 25C75.0899 25 78 27.9101 78 31.5Z" fill="#2B2F33"/>
<path d="M74.1 31.5C74.1 32.9359 72.9359 34.1 71.5 34.1C70.0641 34.1 68.9 32.9359 68.9 31.5C68.9 30.0641 70.0641 28.9 71.5 28.9C72.9359 28.9 74.1 30.0641 74.1 31.5Z" fill="white"/>
</svg>
