<svg width="160" height="38" viewBox="0 0 160 38" fill="none" xmlns="http://www.w3.org/2000/svg">
<path d="M6 5H11V14C11 15.6569 9.65685 17 8 17H2L6 5Z" fill="white"/>
<path fill-rule="evenodd" clip-rule="evenodd" d="M8.90909 19.2727H0V32H22.9091H84V26.9091H22.9091V4H14V14.1818C14 16.9934 11.7207 19.2727 8.90909 19.2727ZM8.90913 16H3.10611L7.65151 6H10.7273V14.1818C10.7273 15.186 9.91329 16 8.90913 16ZM0.00012207 18H2.19703H8.90913C11.0179 18 12.7273 16.2905 12.7273 14.1818V6V4H10.7273H6.36368L0.909202 16L0.00012207 18Z" fill="#A4A6A7"/>
<path d="M18 31.5C18 35.0899 15.0899 38 11.5 38C7.91015 38 5 35.0899 5 31.5C5 27.9101 7.91015 25 11.5 25C15.0899 25 18 27.9101 18 31.5Z" fill="#2B2F33"/>
<path d="M14.1 31.5C14.1 32.9359 12.9359 34.1 11.5 34.1C10.0641 34.1 8.9 32.9359 8.9 31.5C8.9 30.0641 10.0641 28.9 11.5 28.9C12.9359 28.9 14.1 30.0641 14.1 31.5Z" fill="white"/>
<path d="M25 2C25 0.89543 25.8954 0 27 0H158C159.105 0 160 0.895431 160 2V32H86.25V24.32H25V2Z" fill="#A4A6A7"/>
<path d="M79 31.5C79 35.0899 76.0899 38 72.5 38C68.9101 38 66 35.0899 66 31.5C66 27.9101 68.9101 25 72.5 25C76.0899 25 79 27.9101 79 31.5Z" fill="#2B2F33"/>
<path d="M75.1 31.5C75.1 32.9359 73.9359 34.1 72.5 34.1C71.0641 34.1 69.9 32.9359 69.9 31.5C69.9 30.0641 71.0641 28.9 72.5 28.9C73.9359 28.9 75.1 30.0641 75.1 31.5Z" fill="white"/>
<path d="M126 31.5C126 35.0899 123.09 38 119.5 38C115.91 38 113 35.0899 113 31.5C113 27.9101 115.91 25 119.5 25C123.09 25 126 27.9101 126 31.5Z" fill="#2B2F33"/>
<path d="M122.1 31.5C122.1 32.9359 120.936 34.1 119.5 34.1C118.064 34.1 116.9 32.9359 116.9 31.5C116.9 30.0641 118.064 28.9 119.5 28.9C120.936 28.9 122.1 30.0641 122.1 31.5Z" fill="white"/>
<path d="M140 31.5C140 35.0899 137.09 38 133.5 38C129.91 38 127 35.0899 127 31.5C127 27.9101 129.91 25 133.5 25C137.09 25 140 27.9101 140 31.5Z" fill="#2B2F33"/>
<path d="M136.1 31.5C136.1 32.9359 134.936 34.1 133.5 34.1C132.064 34.1 130.9 32.9359 130.9 31.5C130.9 30.0641 132.064 28.9 133.5 28.9C134.936 28.9 136.1 30.0641 136.1 31.5Z" fill="white"/>
<path d="M154 31.5C154 35.0899 151.09 38 147.5 38C143.91 38 141 35.0899 141 31.5C141 27.9101 143.91 25 147.5 25C151.09 25 154 27.9101 154 31.5Z" fill="#2B2F33"/>
<path d="M150.1 31.5C150.1 32.9359 148.936 34.1 147.5 34.1C146.064 34.1 144.9 32.9359 144.9 31.5C144.9 30.0641 146.064 28.9 147.5 28.9C148.936 28.9 150.1 30.0641 150.1 31.5Z" fill="white"/>
</svg>
