<svg width="162" height="38" viewBox="0 0 162 38" fill="none" xmlns="http://www.w3.org/2000/svg">
<path d="M6 5H11V14C11 15.6569 9.65685 17 8 17H2L6 5Z" fill="white"/>
<path fill-rule="evenodd" clip-rule="evenodd" d="M8.90909 19.2727H0V32H22.9091H84V26.9091H22.9091V4H14V14.1818C14 16.9934 11.7207 19.2727 8.90909 19.2727ZM8.90913 16H3.10611L7.65151 6H10.7273V14.1818C10.7273 15.186 9.91329 16 8.90913 16ZM0.00012207 18H2.19703H8.90913C11.0179 18 12.7273 16.2905 12.7273 14.1818V6V4H10.7273H6.36368L0.909202 16L0.00012207 18Z" fill="#A4A6A7"/>
<path d="M18 31.5C18 35.0899 15.0899 38 11.5 38C7.91015 38 5 35.0899 5 31.5C5 27.9101 7.91015 25 11.5 25C15.0899 25 18 27.9101 18 31.5Z" fill="#2B2F33"/>
<path d="M14.1 31.5C14.1 32.9359 12.9359 34.1 11.5 34.1C10.0641 34.1 8.9 32.9359 8.9 31.5C8.9 30.0641 10.0641 28.9 11.5 28.9C12.9359 28.9 14.1 30.0641 14.1 31.5Z" fill="white"/>
<path d="M25 2C25 0.89543 25.8954 0 27 0H160C161.105 0 162 0.895431 162 2V32H87.1574V24.32H25V2Z" fill="#A4A6A7"/>
<path d="M65 31.5C65 35.0899 62.0899 38 58.5 38C54.9101 38 52 35.0899 52 31.5C52 27.9101 54.9101 25 58.5 25C62.0899 25 65 27.9101 65 31.5Z" fill="#2B2F33"/>
<path d="M61.1 31.5C61.1 32.9359 59.9359 34.1 58.5 34.1C57.0641 34.1 55.9 32.9359 55.9 31.5C55.9 30.0641 57.0641 28.9 58.5 28.9C59.9359 28.9 61.1 30.0641 61.1 31.5Z" fill="white"/>
<path d="M79 31.5C79 35.0899 76.0899 38 72.5 38C68.9101 38 66 35.0899 66 31.5C66 27.9101 68.9101 25 72.5 25C76.0899 25 79 27.9101 79 31.5Z" fill="#2B2F33"/>
<path d="M75.1 31.5C75.1 32.9359 73.9359 34.1 72.5 34.1C71.0641 34.1 69.9 32.9359 69.9 31.5C69.9 30.0641 71.0641 28.9 72.5 28.9C73.9359 28.9 75.1 30.0641 75.1 31.5Z" fill="white"/>
<path d="M128 31.5C128 35.0899 125.09 38 121.5 38C117.91 38 115 35.0899 115 31.5C115 27.9101 117.91 25 121.5 25C125.09 25 128 27.9101 128 31.5Z" fill="#2B2F33"/>
<path d="M124.1 31.5C124.1 32.9359 122.936 34.1 121.5 34.1C120.064 34.1 118.9 32.9359 118.9 31.5C118.9 30.0641 120.064 28.9 121.5 28.9C122.936 28.9 124.1 30.0641 124.1 31.5Z" fill="white"/>
<path d="M142 31.5C142 35.0899 139.09 38 135.5 38C131.91 38 129 35.0899 129 31.5C129 27.9101 131.91 25 135.5 25C139.09 25 142 27.9101 142 31.5Z" fill="#2B2F33"/>
<path d="M138.1 31.5C138.1 32.9359 136.936 34.1 135.5 34.1C134.064 34.1 132.9 32.9359 132.9 31.5C132.9 30.0641 134.064 28.9 135.5 28.9C136.936 28.9 138.1 30.0641 138.1 31.5Z" fill="white"/>
<path d="M156 31.5C156 35.0899 153.09 38 149.5 38C145.91 38 143 35.0899 143 31.5C143 27.9101 145.91 25 149.5 25C153.09 25 156 27.9101 156 31.5Z" fill="#2B2F33"/>
<path d="M152.1 31.5C152.1 32.9359 150.936 34.1 149.5 34.1C148.064 34.1 146.9 32.9359 146.9 31.5C146.9 30.0641 148.064 28.9 149.5 28.9C150.936 28.9 152.1 30.0641 152.1 31.5Z" fill="white"/>
</svg>
