<svg width="154" height="38" viewBox="0 0 154 38" fill="none" xmlns="http://www.w3.org/2000/svg">
<path d="M7 5H12V14C12 15.6569 10.6569 17 9 17H3L7 5Z" fill="white"/>
<path fill-rule="evenodd" clip-rule="evenodd" d="M9.33333 19.2727H0V32H24V4H14.6667V14.1818C14.6667 16.9935 12.2789 19.2727 9.33333 19.2727ZM9.33337 16H3.16767L7.92951 6H11.3334V14.1818C11.3334 15.0993 10.5266 16 9.33337 16ZM0.000121593 18H2.2153H9.33337C11.5425 18 13.3334 16.2905 13.3334 14.1818V6V4H11.3334H6.6667L0.952491 16L0.000121593 18Z" fill="#A4A6A7"/>
<path d="M18 31.5C18 35.0899 15.0899 38 11.5 38C7.91015 38 5 35.0899 5 31.5C5 27.9101 7.91015 25 11.5 25C15.0899 25 18 27.9101 18 31.5Z" fill="#2B2F33"/>
<path d="M14.1 31.5C14.1 32.9359 12.9359 34.1 11.5 34.1C10.0641 34.1 8.9 32.9359 8.9 31.5C8.9 30.0641 10.0641 28.9 11.5 28.9C12.9359 28.9 14.1 30.0641 14.1 31.5Z" fill="white"/>
<path d="M26 2C26 0.895431 26.8954 0 28 0H152C153.105 0 154 0.895431 154 2V32H26V2Z" fill="#A4A6A7"/>
<path d="M41 31.5C41 35.0899 38.0899 38 34.5 38C30.9101 38 28 35.0899 28 31.5C28 27.9101 30.9101 25 34.5 25C38.0899 25 41 27.9101 41 31.5Z" fill="#2B2F33"/>
<path d="M37.1 31.5C37.1 32.9359 35.9359 34.1 34.5 34.1C33.0641 34.1 31.9 32.9359 31.9 31.5C31.9 30.0641 33.0641 28.9 34.5 28.9C35.9359 28.9 37.1 30.0641 37.1 31.5Z" fill="white"/>
<path d="M55 31.5C55 35.0899 52.0899 38 48.5 38C44.9101 38 42 35.0899 42 31.5C42 27.9101 44.9101 25 48.5 25C52.0899 25 55 27.9101 55 31.5Z" fill="#2B2F33"/>
<path d="M51.1 31.5C51.1 32.9359 49.9359 34.1 48.5 34.1C47.0641 34.1 45.9 32.9359 45.9 31.5C45.9 30.0641 47.0641 28.9 48.5 28.9C49.9359 28.9 51.1 30.0641 51.1 31.5Z" fill="white"/>
<path d="M120 31.5C120 35.0899 117.09 38 113.5 38C109.91 38 107 35.0899 107 31.5C107 27.9101 109.91 25 113.5 25C117.09 25 120 27.9101 120 31.5Z" fill="#2B2F33"/>
<path d="M116.1 31.5C116.1 32.9359 114.936 34.1 113.5 34.1C112.064 34.1 110.9 32.9359 110.9 31.5C110.9 30.0641 112.064 28.9 113.5 28.9C114.936 28.9 116.1 30.0641 116.1 31.5Z" fill="white"/>
<path d="M134 31.5C134 35.0899 131.09 38 127.5 38C123.91 38 121 35.0899 121 31.5C121 27.9101 123.91 25 127.5 25C131.09 25 134 27.9101 134 31.5Z" fill="#2B2F33"/>
<path d="M130.1 31.5C130.1 32.9359 128.936 34.1 127.5 34.1C126.064 34.1 124.9 32.9359 124.9 31.5C124.9 30.0641 126.064 28.9 127.5 28.9C128.936 28.9 130.1 30.0641 130.1 31.5Z" fill="white"/>
<path d="M148 31.5C148 35.0899 145.09 38 141.5 38C137.91 38 135 35.0899 135 31.5C135 27.9101 137.91 25 141.5 25C145.09 25 148 27.9101 148 31.5Z" fill="#2B2F33"/>
<path d="M144.1 31.5C144.1 32.9359 142.936 34.1 141.5 34.1C140.064 34.1 138.9 32.9359 138.9 31.5C138.9 30.0641 140.064 28.9 141.5 28.9C142.936 28.9 144.1 30.0641 144.1 31.5Z" fill="white"/>
</svg>
