<svg width="139" height="38" viewBox="0 0 139 38" fill="none" xmlns="http://www.w3.org/2000/svg">
<path d="M7 5H12V14C12 15.6569 10.6569 17 9 17H3L7 5Z" fill="white"/>
<path fill-rule="evenodd" clip-rule="evenodd" d="M9.33333 19.2727H0V32H24V4H14.6667V14.1818C14.6667 16.9935 12.2789 19.2727 9.33333 19.2727ZM9.33337 16H3.16767L7.92951 6H11.3334V14.1818C11.3334 15.0993 10.5266 16 9.33337 16ZM0.000121117 18H2.2153H9.33337C11.5425 18 13.3334 16.2905 13.3334 14.1818V6V4H11.3334H6.6667L0.95249 16L0.000121117 18Z" fill="#A4A6A7"/>
<path d="M18 31.5C18 35.0899 15.0899 38 11.5 38C7.91015 38 5 35.0899 5 31.5C5 27.9101 7.91015 25 11.5 25C15.0899 25 18 27.9101 18 31.5Z" fill="#2B2F33"/>
<path d="M14.1 31.5C14.1 32.9359 12.9359 34.1 11.5 34.1C10.0641 34.1 8.9 32.9359 8.9 31.5C8.9 30.0641 10.0641 28.9 11.5 28.9C12.9359 28.9 14.1 30.0641 14.1 31.5Z" fill="white"/>
<path d="M26 2C26 0.895431 26.8954 0 28 0H137C138.105 0 139 0.895431 139 2V32H26V2Z" fill="#A4A6A7"/>
<path d="M41 31.5C41 35.0899 38.0899 38 34.5 38C30.9101 38 28 35.0899 28 31.5C28 27.9101 30.9101 25 34.5 25C38.0899 25 41 27.9101 41 31.5Z" fill="#2B2F33"/>
<path d="M37.1 31.5C37.1 32.9359 35.9359 34.1 34.5 34.1C33.0641 34.1 31.9 32.9359 31.9 31.5C31.9 30.0641 33.0641 28.9 34.5 28.9C35.9359 28.9 37.1 30.0641 37.1 31.5Z" fill="white"/>
<path d="M105 31.5C105 35.0899 102.09 38 98.5 38C94.9101 38 92 35.0899 92 31.5C92 27.9101 94.9101 25 98.5 25C102.09 25 105 27.9101 105 31.5Z" fill="#2B2F33"/>
<path d="M101.1 31.5C101.1 32.9359 99.9359 34.1 98.5 34.1C97.0641 34.1 95.9 32.9359 95.9 31.5C95.9 30.0641 97.0641 28.9 98.5 28.9C99.9359 28.9 101.1 30.0641 101.1 31.5Z" fill="white"/>
<path d="M119 31.5C119 35.0899 116.09 38 112.5 38C108.91 38 106 35.0899 106 31.5C106 27.9101 108.91 25 112.5 25C116.09 25 119 27.9101 119 31.5Z" fill="#2B2F33"/>
<path d="M115.1 31.5C115.1 32.9359 113.936 34.1 112.5 34.1C111.064 34.1 109.9 32.9359 109.9 31.5C109.9 30.0641 111.064 28.9 112.5 28.9C113.936 28.9 115.1 30.0641 115.1 31.5Z" fill="white"/>
<path d="M133 31.5C133 35.0899 130.09 38 126.5 38C122.91 38 120 35.0899 120 31.5C120 27.9101 122.91 25 126.5 25C130.09 25 133 27.9101 133 31.5Z" fill="#2B2F33"/>
<path d="M129.1 31.5C129.1 32.9359 127.936 34.1 126.5 34.1C125.064 34.1 123.9 32.9359 123.9 31.5C123.9 30.0641 125.064 28.9 126.5 28.9C127.936 28.9 129.1 30.0641 129.1 31.5Z" fill="white"/>
</svg>
