<svg width="132" height="38" viewBox="0 0 132 38" fill="none" xmlns="http://www.w3.org/2000/svg">
<path d="M6 5H11V14C11 15.6569 9.65685 17 8 17H2L6 5Z" fill="white"/>
<path fill-rule="evenodd" clip-rule="evenodd" d="M8.90909 19.2727H0V32H22.9091H84V26.9091H22.9091V4H14V14.1818C14 16.9934 11.7207 19.2727 8.90909 19.2727ZM8.90901 16H3.10599L7.65139 6H10.7272V14.1818C10.7272 15.186 9.91317 16 8.90901 16ZM0 18H2.19691H8.90901C11.0177 18 12.7272 16.2905 12.7272 14.1818V6V4H10.7272H6.36356L0.90908 16L0 18Z" fill="#A4A6A7"/>
<path d="M18 31.5C18 35.0899 15.0899 38 11.5 38C7.91015 38 5 35.0899 5 31.5C5 27.9101 7.91015 25 11.5 25C15.0899 25 18 27.9101 18 31.5Z" fill="#2B2F33"/>
<path d="M14.1 31.5C14.1 32.9359 12.9359 34.1 11.5 34.1C10.0641 34.1 8.9 32.9359 8.9 31.5C8.9 30.0641 10.0641 28.9 11.5 28.9C12.9359 28.9 14.1 30.0641 14.1 31.5Z" fill="white"/>
<path d="M25 2C25 0.89543 25.8954 0 27 0H130C131.105 0 132 0.895431 132 2V32H87.2217V24.32H25V2Z" fill="#A4A6A7"/>
<path d="M111 31.5C111 35.0899 108.09 38 104.5 38C100.91 38 98 35.0899 98 31.5C98 27.9101 100.91 25 104.5 25C108.09 25 111 27.9101 111 31.5Z" fill="#2B2F33"/>
<path d="M107.1 31.5C107.1 32.9359 105.936 34.1 104.5 34.1C103.064 34.1 101.9 32.9359 101.9 31.5C101.9 30.0641 103.064 28.9 104.5 28.9C105.936 28.9 107.1 30.0641 107.1 31.5Z" fill="white"/>
<path d="M126 31.5C126 35.0899 123.09 38 119.5 38C115.91 38 113 35.0899 113 31.5C113 27.9101 115.91 25 119.5 25C123.09 25 126 27.9101 126 31.5Z" fill="#2B2F33"/>
<path d="M122.1 31.5C122.1 32.9359 120.936 34.1 119.5 34.1C118.064 34.1 116.9 32.9359 116.9 31.5C116.9 30.0641 118.064 28.9 119.5 28.9C120.936 28.9 122.1 30.0641 122.1 31.5Z" fill="white"/>
</svg>
