<svg width="113" height="38" viewBox="0 0 113 38" fill="none" xmlns="http://www.w3.org/2000/svg">
<path d="M6 5H11V14C11 15.6569 9.65685 17 8 17H2L6 5Z" fill="white"/>
<path fill-rule="evenodd" clip-rule="evenodd" d="M8.90901 16H3.10599L7.65139 6H10.7272V14.1818C10.7272 15.186 9.91317 16 8.90901 16ZM0 18H2.19691H8.90901C11.0177 18 12.7272 16.2905 12.7272 14.1818V6V4H10.7272H6.36356L0.90908 16L0 18ZM9.90909 19.2727H1V32H23.9091H73V26.9091H23.9091V4H15V14.1818C15 16.9934 12.7207 19.2727 9.90909 19.2727Z" fill="#A4A6A7"/>
<path d="M18 31.5C18 35.0899 15.0899 38 11.5 38C7.91015 38 5 35.0899 5 31.5C5 27.9101 7.91015 25 11.5 25C15.0899 25 18 27.9101 18 31.5Z" fill="#2B2F33"/>
<path d="M14.1 31.5C14.1 32.9359 12.9359 34.1 11.5 34.1C10.0641 34.1 8.9 32.9359 8.9 31.5C8.9 30.0641 10.0641 28.9 11.5 28.9C12.9359 28.9 14.1 30.0641 14.1 31.5Z" fill="white"/>
<path d="M25 2C25 0.89543 25.8954 0 27 0H111C112.105 0 113 0.895431 113 2V32H76.173V24.32H25V2Z" fill="#A4A6A7"/>
<path d="M107 31.5C107 35.0899 104.09 38 100.5 38C96.9101 38 94 35.0899 94 31.5C94 27.9101 96.9101 25 100.5 25C104.09 25 107 27.9101 107 31.5Z" fill="#2B2F33"/>
<path d="M103.1 31.5C103.1 32.9359 101.936 34.1 100.5 34.1C99.0641 34.1 97.9 32.9359 97.9 31.5C97.9 30.0641 99.0641 28.9 100.5 28.9C101.936 28.9 103.1 30.0641 103.1 31.5Z" fill="white"/>
</svg>
