<svg width="87" height="38" viewBox="0 0 87 38" fill="none" xmlns="http://www.w3.org/2000/svg">
<path d="M0.875536 16.867C0.945576 15.8164 1.81818 15 2.87111 15H82.6845C83.6555 15 84.4862 15.6974 84.6543 16.6538L86.5876 27.6538C86.8028 28.8781 85.8609 30 84.6178 30H2.13777C0.980842 30 0.0652448 29.0213 0.142203 27.867L0.875536 16.867Z" fill="#A4A6A7"/>
<path d="M31.9333 0.8L13 15H73L64.1875 1.7812C63.4456 0.668405 62.1967 0 60.8593 0H34.3333C33.4679 0 32.6257 0.280712 31.9333 0.8Z" fill="#A4A6A7"/>
<path d="M33.676 3.81827L20.1783 14.1023C19.7976 14.3923 20.0027 15 20.4813 15H46.5C46.7761 15 47 14.7761 47 14.5V3.5C47 3.22386 46.7761 3 46.5 3H36.1002C35.2243 3 34.3727 3.28747 33.676 3.81827Z" fill="white"/>
<path d="M49 3.5V14.5C49 14.7761 49.2239 15 49.5 15H68.044C68.4477 15 68.685 14.5464 68.4547 14.2148L61.86 4.71842C61.1125 3.64198 59.8851 3 58.5745 3H49.5C49.2239 3 49 3.22386 49 3.5Z" fill="white"/>
<path d="M79 30C79 34.4183 75.4183 38 71 38C66.5817 38 63 34.4183 63 30C63 25.5817 66.5817 22 71 22C75.4183 22 79 25.5817 79 30Z" fill="#2B2F33"/>
<path d="M74.2 30C74.2 31.7673 72.7673 33.2 71 33.2C69.2327 33.2 67.8 31.7673 67.8 30C67.8 28.2327 69.2327 26.8 71 26.8C72.7673 26.8 74.2 28.2327 74.2 30Z" fill="white"/>
<path d="M24 30C24 34.4183 20.4183 38 16 38C11.5817 38 8 34.4183 8 30C8 25.5817 11.5817 22 16 22C20.4183 22 24 25.5817 24 30Z" fill="#2B2F33"/>
<path d="M19.2 30C19.2 31.7673 17.7673 33.2 16 33.2C14.2327 33.2 12.8 31.7673 12.8 30C12.8 28.2327 14.2327 26.8 16 26.8C17.7673 26.8 19.2 28.2327 19.2 30Z" fill="white"/>
</svg>
