<svg width="89" height="38" viewBox="0 0 89 38" fill="none" xmlns="http://www.w3.org/2000/svg">
<path d="M7 5H12V14C12 15.6569 10.6569 17 9 17H3L7 5Z" fill="white"/>
<path fill-rule="evenodd" clip-rule="evenodd" d="M9.33333 19.2727H0V32H24V4H14.6667V14.1818C14.6667 16.9934 12.2789 19.2727 9.33333 19.2727ZM9.33337 16H3.16767L7.92951 6H11.3334V14.1818C11.3334 15.0993 10.5266 16 9.33337 16ZM0.000120163 18H2.2153H9.33337C11.5425 18 13.3334 16.2905 13.3334 14.1818V6V4H11.3334H6.6667L0.952489 16L0.000120163 18Z" fill="#A4A6A7"/>
<path d="M19 31.5C19 35.0899 16.0899 38 12.5 38C8.91015 38 6 35.0899 6 31.5C6 27.9101 8.91015 25 12.5 25C16.0899 25 19 27.9101 19 31.5Z" fill="#2B2F33"/>
<path d="M15.1 31.5C15.1 32.9359 13.9359 34.1 12.5 34.1C11.0641 34.1 9.9 32.9359 9.9 31.5C9.9 30.0641 11.0641 28.9 12.5 28.9C13.9359 28.9 15.1 30.0641 15.1 31.5Z" fill="white"/>
<path d="M26 2C26 0.895431 26.8954 0 28 0H87C88.1046 0 89 0.895431 89 2V32H26V2Z" fill="#A4A6A7"/>
<path d="M68 31.5C68 35.0899 65.0899 38 61.5 38C57.9101 38 55 35.0899 55 31.5C55 27.9101 57.9101 25 61.5 25C65.0899 25 68 27.9101 68 31.5Z" fill="#2B2F33"/>
<path d="M64.1 31.5C64.1 32.9359 62.9359 34.1 61.5 34.1C60.0641 34.1 58.9 32.9359 58.9 31.5C58.9 30.0641 60.0641 28.9 61.5 28.9C62.9359 28.9 64.1 30.0641 64.1 31.5Z" fill="white"/>
<path d="M83 31.5C83 35.0899 80.0899 38 76.5 38C72.9101 38 70 35.0899 70 31.5C70 27.9101 72.9101 25 76.5 25C80.0899 25 83 27.9101 83 31.5Z" fill="#2B2F33"/>
<path d="M79.1 31.5C79.1 32.9359 77.9359 34.1 76.5 34.1C75.0641 34.1 73.9 32.9359 73.9 31.5C73.9 30.0641 75.0641 28.9 76.5 28.9C77.9359 28.9 79.1 30.0641 79.1 31.5Z" fill="white"/>
</svg>
