<svg width="147" height="38" viewBox="0 0 147 38" fill="none" xmlns="http://www.w3.org/2000/svg">
<path d="M6 5H11V14C11 15.6569 9.65685 17 8 17H2L6 5Z" fill="white"/>
<path fill-rule="evenodd" clip-rule="evenodd" d="M8.90909 19.2727H0V32H22.9091H84V26.9091H22.9091V4H14V14.1818C14 16.9934 11.7207 19.2727 8.90909 19.2727ZM8.90913 15.8333H3.12162L7.64511 6H10.7273V14.0606C10.7273 15.0171 9.93594 15.8333 8.90913 15.8333ZM0.00012207 17.8333H2.20159H8.90913C11.0179 17.8333 12.7273 16.1442 12.7273 14.0606V6V4H10.7273H6.36368L0.920154 15.8333L0.00012207 17.8333Z" fill="#A4A6A7"/>
<path d="M18 31.5C18 35.0899 15.0899 38 11.5 38C7.91015 38 5 35.0899 5 31.5C5 27.9101 7.91015 25 11.5 25C15.0899 25 18 27.9101 18 31.5Z" fill="#2B2F33"/>
<path d="M14.1 31.5C14.1 32.9359 12.9359 34.1 11.5 34.1C10.0641 34.1 8.9 32.9359 8.9 31.5C8.9 30.0641 10.0641 28.9 11.5 28.9C12.9359 28.9 14.1 30.0641 14.1 31.5Z" fill="white"/>
<path d="M25 2C25 0.89543 25.8954 0 27 0H145C146.105 0 147 0.895431 147 2V32H87.4592V24.32H25V2Z" fill="#A4A6A7"/>
<path d="M79 31.5C79 35.0899 76.0899 38 72.5 38C68.9101 38 66 35.0899 66 31.5C66 27.9101 68.9101 25 72.5 25C76.0899 25 79 27.9101 79 31.5Z" fill="#2B2F33"/>
<path d="M75.1 31.5C75.1 32.9359 73.9359 34.1 72.5 34.1C71.0641 34.1 69.9 32.9359 69.9 31.5C69.9 30.0641 71.0641 28.9 72.5 28.9C73.9359 28.9 75.1 30.0641 75.1 31.5Z" fill="white"/>
<path d="M126 31.5C126 35.0899 123.09 38 119.5 38C115.91 38 113 35.0899 113 31.5C113 27.9101 115.91 25 119.5 25C123.09 25 126 27.9101 126 31.5Z" fill="#2B2F33"/>
<path d="M122.1 31.5C122.1 32.9359 120.936 34.1 119.5 34.1C118.064 34.1 116.9 32.9359 116.9 31.5C116.9 30.0641 118.064 28.9 119.5 28.9C120.936 28.9 122.1 30.0641 122.1 31.5Z" fill="white"/>
<path d="M141 31.5C141 35.0899 138.09 38 134.5 38C130.91 38 128 35.0899 128 31.5C128 27.9101 130.91 25 134.5 25C138.09 25 141 27.9101 141 31.5Z" fill="#2B2F33"/>
<path d="M137.1 31.5C137.1 32.9359 135.936 34.1 134.5 34.1C133.064 34.1 131.9 32.9359 131.9 31.5C131.9 30.0641 133.064 28.9 134.5 28.9C135.936 28.9 137.1 30.0641 137.1 31.5Z" fill="white"/>
</svg>
