<svg width="20" height="20" fill="currentColor" xmlns="http://www.w3.org/2000/svg"><path d="M5.637 11.115c-.14.2-.09.476.109.615l.302.21a2.654 2.654 0 01-1.845.747H3.38v-.954a.44.44 0 10-.879 0v4.493a.44.44 0 10.879 0v-.896h.596c1.577 0 3.12-.665 4.215-1.899l.44.306c.2.14.476.089.613-.114l.301-.443-3.565-2.552-.342.487zM17.308 11.154l-.162-.111-3.37 2.7.964.696a.439.439 0 00.599-.081l2.063-2.564a.441.441 0 00-.094-.64zM16.628 9.617L8.178 3.5a.877.877 0 00-1.2.162L4.2 7.127a.883.883 0 00.175 1.27l7.476 5.35c.16.115.376.11.53-.013l4.264-3.415a.441.441 0 00-.017-.702zm-3.11.78a.44.44 0 110-.88.44.44 0 010 .88z"/></svg>