<svg width="20" height="20" viewBox="0 0 20 20" fill="none" xmlns="http://www.w3.org/2000/svg">
<g id="item">
<path id="Color" fill-rule="evenodd" clip-rule="evenodd" d="M8.94193 2.78517C9.26329 2.59888 9.62782 2.5 10.0001 2.5C10.3723 2.5 10.7369 2.59888 11.0582 2.78517C11.3794 2.97135 11.6455 3.23783 11.8333 3.55651L11.8351 3.55964L18.0525 14.247C18.2362 14.5745 18.3324 14.9441 18.3334 15.3191C18.3344 15.6941 18.2401 16.0642 18.0583 16.3927C17.8763 16.7214 17.6122 16.9985 17.2897 17.1939C16.9669 17.3894 16.598 17.4956 16.2198 17.4999L16.2122 17.5L3.78032 17.5C3.40212 17.4957 3.03321 17.3894 2.7105 17.1939C2.38799 16.9985 2.12386 16.7214 1.9419 16.3927C1.76002 16.0642 1.66574 15.6941 1.66676 15.3191C1.66778 14.9441 1.76407 14.5746 1.94777 14.247L1.95289 14.2379L8.16507 3.55965L8.1669 3.55651C8.35464 3.23783 8.62077 2.97135 8.94193 2.78517ZM10.766 8.48125C10.766 8.0618 10.423 7.72176 9.99976 7.72176C9.57656 7.72176 9.23348 8.0618 9.23348 8.48125V11.0982C9.23348 11.5176 9.57656 11.8577 9.99976 11.8577C10.423 11.8577 10.766 11.5176 10.766 11.0982V8.48125ZM9.99976 13.0382C9.57656 13.0382 9.23348 13.3782 9.23348 13.7977C9.23348 14.2171 9.57656 14.5572 9.99976 14.5572H10.0064C10.4296 14.5572 10.7726 14.2171 10.7726 13.7977C10.7726 13.3782 10.4296 13.0382 10.0064 13.0382H9.99976Z" fill="white"/>
</g>
</svg>
