<svg width="18" height="21" viewBox="0 0 18 21" fill="none" xmlns="http://www.w3.org/2000/svg">
<path d="M0 18.625V8H17.5V18.625C17.5 19.1458 17.3177 19.5885 16.9531 19.9531C16.5885 20.3177 16.1458 20.5 15.625 20.5H1.875C1.35417 20.5 0.911458 20.3177 0.546875 19.9531C0.182292 19.5885 0 19.1458 0 18.625ZM2.5 11.125V13.625C2.5 13.8073 2.55208 13.9635 2.65625 14.0938C2.78646 14.1979 2.94271 14.25 3.125 14.25H14.375C14.5573 14.25 14.7005 14.1979 14.8047 14.0938C14.9349 13.9635 15 13.8073 15 13.625V11.125C15 10.9427 14.9349 10.7995 14.8047 10.6953C14.7005 10.5651 14.5573 10.5 14.375 10.5H3.125C2.94271 10.5 2.78646 10.5651 2.65625 10.6953C2.55208 10.7995 2.5 10.9427 2.5 11.125ZM15.625 3C16.1458 3 16.5885 3.18229 16.9531 3.54688C17.3177 3.91146 17.5 4.35417 17.5 4.875V6.75H0V4.875C0 4.35417 0.182292 3.91146 0.546875 3.54688C0.911458 3.18229 1.35417 3 1.875 3H3.75V1.125C3.75 0.942708 3.80208 0.799479 3.90625 0.695312C4.03646 0.565104 4.19271 0.5 4.375 0.5H5.625C5.80729 0.5 5.95052 0.565104 6.05469 0.695312C6.1849 0.799479 6.25 0.942708 6.25 1.125V3H11.25V1.125C11.25 0.942708 11.3021 0.799479 11.4062 0.695312C11.5365 0.565104 11.6927 0.5 11.875 0.5H13.125C13.3073 0.5 13.4505 0.565104 13.5547 0.695312C13.6849 0.799479 13.75 0.942708 13.75 1.125V3H15.625Z" fill="white"/>
</svg>
