<svg width="18" height="18" viewBox="0 0 18 18" fill="none" xmlns="http://www.w3.org/2000/svg">
<path d="M17.0156 1.23438L15.1523 3.09766C13.4648 1.38672 11.4141 0.53125 9 0.53125C6.60938 0.53125 4.55859 1.38672 2.84766 3.09766C1.13672 4.80859 0.28125 6.85938 0.28125 9.25C0.28125 10.4453 0.515625 11.582 0.984375 12.6602C1.42969 13.7148 2.05078 14.6406 2.84766 15.4375C3.62109 16.2109 4.54688 16.8203 5.625 17.2656C6.70312 17.7344 7.82812 17.9688 9 17.9688C11.2266 17.9688 13.1719 17.2188 14.8359 15.7188C15.0703 15.5312 15.082 15.332 14.8711 15.1211L14.168 14.418C13.9805 14.2305 13.7812 14.2188 13.5703 14.3828C12.2812 15.5547 10.7578 16.1406 9 16.1406C7.10156 16.1406 5.48438 15.4727 4.14844 14.1367C2.78906 12.7773 2.10938 11.1484 2.10938 9.25C2.10938 7.35156 2.78906 5.73438 4.14844 4.39844C5.48438 3.03906 7.10156 2.35938 9 2.35938C10.8984 2.35938 12.5273 3.02734 13.8867 4.36328L11.9531 6.29688C11.8359 6.41406 11.8125 6.56641 11.8828 6.75391C11.9531 6.91797 12.082 7 12.2695 7H17.2969C17.5781 7 17.7188 6.85938 17.7188 6.57812V1.55078C17.7188 1.36328 17.6367 1.23438 17.4727 1.16406C17.2852 1.09375 17.1328 1.11719 17.0156 1.23438Z" fill="white"/>
<path d="M7.38672 9.29297L6.80859 9.14453L7.09375 6.3125H10.0117V6.98047H7.70703L7.53516 8.52734C7.63932 8.46745 7.77083 8.41146 7.92969 8.35938C8.09115 8.30729 8.27604 8.28125 8.48438 8.28125C8.7474 8.28125 8.98307 8.32682 9.19141 8.41797C9.39974 8.50651 9.57682 8.63411 9.72266 8.80078C9.87109 8.96745 9.98438 9.16797 10.0625 9.40234C10.1406 9.63672 10.1797 9.89844 10.1797 10.1875C10.1797 10.4609 10.1419 10.7122 10.0664 10.9414C9.99349 11.1706 9.88281 11.3711 9.73438 11.543C9.58594 11.7122 9.39844 11.8438 9.17188 11.9375C8.94792 12.0312 8.68359 12.0781 8.37891 12.0781C8.14974 12.0781 7.93229 12.0469 7.72656 11.9844C7.52344 11.9193 7.34115 11.8216 7.17969 11.6914C7.02083 11.5586 6.89062 11.3945 6.78906 11.1992C6.6901 11.0013 6.6276 10.7695 6.60156 10.5039H7.28906C7.32031 10.7174 7.38281 10.8971 7.47656 11.043C7.57031 11.1888 7.69271 11.2995 7.84375 11.375C7.9974 11.4479 8.17578 11.4844 8.37891 11.4844C8.55078 11.4844 8.70312 11.4544 8.83594 11.3945C8.96875 11.3346 9.08073 11.2487 9.17188 11.1367C9.26302 11.0247 9.33203 10.8893 9.37891 10.7305C9.42839 10.5716 9.45312 10.3932 9.45312 10.1953C9.45312 10.0156 9.42839 9.84896 9.37891 9.69531C9.32943 9.54167 9.25521 9.40755 9.15625 9.29297C9.0599 9.17839 8.94141 9.08984 8.80078 9.02734C8.66016 8.96224 8.4987 8.92969 8.31641 8.92969C8.07422 8.92969 7.89062 8.96224 7.76562 9.02734C7.64323 9.09245 7.51693 9.18099 7.38672 9.29297Z" fill="white"/>
</svg>
