<svg width="14" height="14" viewBox="0 0 14 14" fill="none" xmlns="http://www.w3.org/2000/svg">
<path d="M4.21875 13.9082H1.40625C1.01562 13.9082 0.683594 13.7715 0.410156 13.498C0.136719 13.2246 0 12.8926 0 12.502V2.18945C0 1.79883 0.136719 1.4668 0.410156 1.19336C0.683594 0.919922 1.01562 0.783203 1.40625 0.783203H4.21875C4.60938 0.783203 4.94141 0.919922 5.21484 1.19336C5.48828 1.4668 5.625 1.79883 5.625 2.18945V12.502C5.625 12.8926 5.48828 13.2246 5.21484 13.498C4.94141 13.7715 4.60938 13.9082 4.21875 13.9082ZM13.125 12.502C13.125 12.8926 12.9883 13.2246 12.7148 13.498C12.4414 13.7715 12.1094 13.9082 11.7188 13.9082H8.90625C8.51562 13.9082 8.18359 13.7715 7.91016 13.498C7.63672 13.2246 7.5 12.8926 7.5 12.502V2.18945C7.5 1.79883 7.63672 1.4668 7.91016 1.19336C8.18359 0.919922 8.51562 0.783203 8.90625 0.783203H11.7188C12.1094 0.783203 12.4414 0.919922 12.7148 1.19336C12.9883 1.4668 13.125 1.79883 13.125 2.18945V12.502Z" fill="white"/>
</svg>
