<svg width="18" height="18" viewBox="0 0 18 18" fill="none" xmlns="http://www.w3.org/2000/svg">
<path d="M0.984375 1.23438L2.84766 3.09766C4.53516 1.38672 6.58594 0.53125 9 0.53125C11.3906 0.53125 13.4414 1.38672 15.1523 3.09766C16.8633 4.80859 17.7188 6.85938 17.7188 9.25C17.7188 10.4453 17.4844 11.582 17.0156 12.6602C16.5703 13.7148 15.9492 14.6406 15.1523 15.4375C14.3789 16.2109 13.4531 16.8203 12.375 17.2656C11.2969 17.7344 10.1719 17.9688 9 17.9688C6.77344 17.9688 4.82812 17.2188 3.16406 15.7188C2.92969 15.5312 2.91797 15.332 3.12891 15.1211L3.83203 14.418C4.01953 14.2305 4.21875 14.2188 4.42969 14.3828C5.71875 15.5547 7.24219 16.1406 9 16.1406C10.8984 16.1406 12.5156 15.4727 13.8516 14.1367C15.2109 12.7773 15.8906 11.1484 15.8906 9.25C15.8906 7.35156 15.2109 5.73438 13.8516 4.39844C12.5156 3.03906 10.8984 2.35938 9 2.35938C7.10156 2.35938 5.47266 3.02734 4.11328 4.36328L6.04688 6.29688C6.16406 6.41406 6.1875 6.56641 6.11719 6.75391C6.04688 6.91797 5.91797 7 5.73047 7H0.703125C0.421875 7 0.28125 6.85938 0.28125 6.57812V1.55078C0.28125 1.36328 0.363281 1.23438 0.527344 1.16406C0.714844 1.09375 0.867188 1.11719 0.984375 1.23438Z" fill="white"/>
<path d="M8.38672 9.29297L7.80859 9.14453L8.09375 6.3125H11.0117V6.98047H8.70703L8.53516 8.52734C8.63932 8.46745 8.77083 8.41146 8.92969 8.35938C9.09115 8.30729 9.27604 8.28125 9.48438 8.28125C9.7474 8.28125 9.98307 8.32682 10.1914 8.41797C10.3997 8.50651 10.5768 8.63411 10.7227 8.80078C10.8711 8.96745 10.9844 9.16797 11.0625 9.40234C11.1406 9.63672 11.1797 9.89844 11.1797 10.1875C11.1797 10.4609 11.1419 10.7122 11.0664 10.9414C10.9935 11.1706 10.8828 11.3711 10.7344 11.543C10.5859 11.7122 10.3984 11.8438 10.1719 11.9375C9.94792 12.0312 9.68359 12.0781 9.37891 12.0781C9.14974 12.0781 8.93229 12.0469 8.72656 11.9844C8.52344 11.9193 8.34115 11.8216 8.17969 11.6914C8.02083 11.5586 7.89062 11.3945 7.78906 11.1992C7.6901 11.0013 7.6276 10.7695 7.60156 10.5039H8.28906C8.32031 10.7174 8.38281 10.8971 8.47656 11.043C8.57031 11.1888 8.69271 11.2995 8.84375 11.375C8.9974 11.4479 9.17578 11.4844 9.37891 11.4844C9.55078 11.4844 9.70312 11.4544 9.83594 11.3945C9.96875 11.3346 10.0807 11.2487 10.1719 11.1367C10.263 11.0247 10.332 10.8893 10.3789 10.7305C10.4284 10.5716 10.4531 10.3932 10.4531 10.1953C10.4531 10.0156 10.4284 9.84896 10.3789 9.69531C10.3294 9.54167 10.2552 9.40755 10.1562 9.29297C10.0599 9.17839 9.94141 9.08984 9.80078 9.02734C9.66016 8.96224 9.4987 8.92969 9.31641 8.92969C9.07422 8.92969 8.89062 8.96224 8.76562 9.02734C8.64323 9.09245 8.51693 9.18099 8.38672 9.29297Z" fill="white"/>
</svg>
