<svg width="21" height="16" viewBox="0 0 21 16" fill="none" xmlns="http://www.w3.org/2000/svg">
<path d="M18.6916 2.09583H13.3549L12.2773 0.285449C12.1718 0.108446 11.9811 0 11.7751 0H8.38582C8.17982 0 7.98904 0.108446 7.88368 0.285449L6.80604 2.09583H5.05484V1.69682C5.05484 1.37411 4.7932 1.11247 4.47049 1.11247H2.30833C1.98555 1.11247 1.72398 1.37411 1.72398 1.69682V2.09583H1.46943C0.657826 2.09583 0 2.75372 0 3.5652V14.2042C0 15.0157 0.657826 15.6736 1.46937 15.6736H18.6916C19.5031 15.6736 20.161 15.0157 20.161 14.2042V3.5652C20.1611 2.75372 19.5031 2.09583 18.6916 2.09583ZM10.0805 13.0672C7.77051 13.0672 5.89793 11.1947 5.89793 8.88462C5.89793 6.57472 7.77051 4.70208 10.0805 4.70208C12.3904 4.70208 14.263 6.57472 14.263 8.88462C14.263 11.1947 12.3904 13.0672 10.0805 13.0672ZM17.7748 5.12523H15.9438C15.6211 5.12523 15.3594 4.8636 15.3594 4.54082C15.3594 4.21804 15.6211 3.9564 15.9438 3.9564H17.7748C18.0977 3.9564 18.3592 4.21804 18.3592 4.54082C18.3592 4.8636 18.0976 5.12523 17.7748 5.12523Z" fill="white"/>
<path d="M10.0782 11.8063C11.6919 11.8063 13.0001 10.4981 13.0001 8.88434C13.0001 7.2706 11.6919 5.9624 10.0782 5.9624C8.46445 5.9624 7.15625 7.2706 7.15625 8.88434C7.15625 10.4981 8.46445 11.8063 10.0782 11.8063Z" fill="white"/>
</svg>
