<svg width="18" height="19" viewBox="0 0 18 19" xmlns="http://www.w3.org/2000/svg">
<path d="M17.1211 11.3594C17.332 11.4531 17.4023 11.6172 17.332 11.8516C16.9336 13.0938 16.2891 14.1953 15.3984 15.1562C15.2578 15.3203 15.0938 15.3555 14.9062 15.2617L13.3945 14.3828C12.7617 14.9219 12.0469 15.332 11.25 15.6133V17.3359C11.25 17.5703 11.1445 17.7109 10.9336 17.7578C9.64453 18.0391 8.36719 18.0391 7.10156 17.7578C6.86719 17.7109 6.75 17.5703 6.75 17.3359V15.6133C5.95312 15.332 5.23828 14.9219 4.60547 14.3828L3.12891 15.2617C2.91797 15.3555 2.74219 15.3203 2.60156 15.1562C1.71094 14.1953 1.06641 13.0938 0.667969 11.8516C0.597656 11.6406 0.667969 11.4766 0.878906 11.3594L2.35547 10.4805C2.28516 10.082 2.25 9.67188 2.25 9.25C2.25 8.82812 2.28516 8.41797 2.35547 8.01953L0.878906 7.14062C0.667969 7.04688 0.597656 6.88281 0.667969 6.64844C1.06641 5.40625 1.71094 4.30469 2.60156 3.34375C2.74219 3.17969 2.91797 3.15625 3.12891 3.27344L4.60547 4.11719C5.23828 3.57813 5.95312 3.16797 6.75 2.88672V1.16406C6.75 0.929687 6.85547 0.789062 7.06641 0.742188C8.35547 0.460938 9.64453 0.460938 10.9336 0.742188C11.1445 0.789062 11.25 0.929687 11.25 1.16406V2.88672C12.0469 3.16797 12.7617 3.57813 13.3945 4.11719L14.8711 3.23828C15.082 3.14453 15.2578 3.17969 15.3984 3.34375C16.2891 4.30469 16.9336 5.40625 17.332 6.64844C17.4023 6.88281 17.332 7.04688 17.1211 7.14062L15.6445 8.01953C15.7852 8.83984 15.7852 9.66016 15.6445 10.4805L17.1211 11.3594ZM6.99609 11.2539C7.55859 11.793 8.22656 12.0625 9 12.0625C9.77344 12.0625 10.4297 11.793 10.9688 11.2539C11.5312 10.6914 11.8125 10.0234 11.8125 9.25C11.8125 8.47656 11.5312 7.82031 10.9688 7.28125C10.4297 6.71875 9.77344 6.4375 9 6.4375C8.22656 6.4375 7.55859 6.71875 6.99609 7.28125C6.45703 7.82031 6.1875 8.47656 6.1875 9.25C6.1875 10.0234 6.45703 10.6914 6.99609 11.2539Z"/>
</svg>
