<svg xmlns="http://www.w3.org/2000/svg" width="14.08" height="21.492"><g data-name="Group 2709"><path data-name="Path 1759" class="cls-1" d="M4.358 2.974h5.369s.11.845-2.678.817-2.691-.817-2.691-.817Z"/><path data-name="Path 1760" class="cls-1" d="M4.358 3.647a5.213 5.213 0 0 0 5.37 0V6.03s-.065 2.029-2.679 2.029c-2.046 0-2.7-1.312-2.691-2.364s0-2.048 0-2.048Z"/><path data-name="Path 1761" class="cls-1" d="M14.078 19.611v-9.532a1.067 1.067 0 0 0-1.175-1.089H9.14l-1.494 2.893-.592-.966.5-.931-.511-1-.551 1.015.551.912-.6.949-1.48-2.849s-2.213.009-3.561-.029a1.317 1.317 0 0 0-1.4 1.276s-.009 9.681 0 9.9a1.043 1.043 0 0 0 1.229 1.043 4.051 4.051 0 0 0 2-.9l-.349 1.182h6.535l.642-1.912s.926 1.037 1.261 1.325.568.466 1.555.4c1.296-.152 1.203-1.687 1.203-1.687Zm-3.379-3.137c-1.089-1.089-1.871-1.052-2.513-.41s.028 1.694.028 1.694l1.652 1.629-.614 1.843H3.22l1.431-4.985-1.857-1.836.328-.321 1.666 1.641.493-1.517h6.116s-.511 1.666-.698 2.262Z"/><path data-name="Path 1762" class="cls-1" d="M10.251.956A4.9 4.9 0 0 0 7.051 0a5.31 5.31 0 0 0-3.149.789c-.377.328-.154.838.4 1.131v.573h5.376v-.538s1.061-.419.573-.999Zm-3.229.789a.628.628 0 1 1 .628-.628.628.628 0 0 1-.629.628Z"/></g></svg>