<svg width="20" height="20" viewBox="0 0 20 20" fill="none" xmlns="http://www.w3.org/2000/svg">
<path d="M5.63726 11.1151C5.49663 11.3155 5.54611 11.5914 5.74595 11.7306L6.04799 11.9409C5.55502 12.4177 4.8939 12.6874 4.2034 12.6874H3.37895V11.733C3.37895 11.4897 3.18218 11.2924 2.93947 11.2924C2.69677 11.2924 2.5 11.4897 2.5 11.733V16.2263C2.5 16.4696 2.69677 16.6668 2.93947 16.6668C3.18218 16.6668 3.37895 16.4696 3.37895 16.2263V15.3306H3.97464C5.55182 15.3306 7.0942 14.6658 8.18984 13.4319L8.62949 13.7379C8.8291 13.8777 9.10603 13.8264 9.24329 13.624L9.54447 13.1808L5.97917 10.6284L5.63726 11.1151Z" fill="#0078D4"/>
<path d="M17.3084 11.1543L17.1464 11.0433L13.7756 13.7431L14.7401 14.4391C14.9285 14.575 15.1919 14.5407 15.3387 14.3581L17.4025 11.7948C17.5643 11.5938 17.5192 11.2984 17.3084 11.1543Z" fill="#0078D4"/>
<path d="M16.6277 9.61771L8.17726 3.50049C7.7977 3.22566 7.27068 3.29709 6.97747 3.66296L4.20026 7.12796C3.88442 7.52211 3.96414 8.10287 4.37467 8.39676L11.8507 13.7484C12.0105 13.8627 12.2268 13.8571 12.3804 13.734L16.6447 10.319C16.8713 10.1376 16.8635 9.78837 16.6277 9.61771ZM13.5172 10.3967C13.2745 10.3967 13.0777 10.1995 13.0777 9.95621C13.0777 9.71292 13.2745 9.51569 13.5172 9.51569C13.7599 9.51569 13.9567 9.71292 13.9567 9.95621C13.9567 10.1995 13.7599 10.3967 13.5172 10.3967Z" fill="#0078D4"/>
</svg>
