<svg xmlns="http://www.w3.org/2000/svg" width="20" height="20" viewBox="0 0 20 20">
  <path d="M7.645 1.667C7.565 1.667 7.500 1.753 7.500 1.859V3.141C7.500 3.247 7.565 3.333 7.645 3.333H12.355C12.435 3.333 12.500 3.247 12.500 3.141V1.859C12.500 1.753 12.435 1.667 12.355 1.667H7.645ZM4.904 2.513H6.250V3.141C6.250 3.441 6.340 3.759 6.545 4.031C6.751 4.303 7.128 4.583 7.645 4.583H12.355C12.872 4.583 13.249 4.303 13.455 4.031C13.660 3.759 13.750 3.441 13.750 3.141V2.513H15.095C15.963 2.513 16.667 3.214 16.667 4.078V16.768C16.667 17.633 15.963 18.334 15.096 18.334H4.904C4.037 18.334 3.333 17.633 3.333 16.768V4.078C3.333 3.214 4.037 2.513 4.904 2.513ZM9.524 9.531L8.491 8.319C8.265 8.054 7.880 8.054 7.655 8.319C7.448 8.561 7.448 8.940 7.655 9.182L9.106 10.885C9.332 11.150 9.716 11.150 9.942 10.885L12.845 7.478C13.052 7.236 13.052 6.857 12.845 6.615C12.619 6.351 12.235 6.351 12.009 6.615L9.524 9.531ZM7.500 12.708C7.500 12.363 7.780 12.083 8.125 12.083H11.875C12.220 12.083 12.500 12.363 12.500 12.708C12.500 13.054 12.220 13.333 11.875 13.333H8.125C7.780 13.333 7.500 13.054 7.500 12.708ZM8.125 14.583C7.780 14.583 7.500 14.863 7.500 15.208C7.500 15.554 7.780 15.833 8.125 15.833H11.875C12.220 15.833 12.500 15.554 12.500 15.208C12.500 14.863 12.220 14.583 11.875 14.583H8.125Z" fill="currentColor"/>
</svg>