<svg width="20" height="20" viewBox="0 0 20 20" fill="none" xmlns="http://www.w3.org/2000/svg">
<path d="M4.58329 2.91666C3.66282 2.91666 2.91663 3.66285 2.91663 4.58332V7.57352C2.91663 8.49399 3.66282 9.24019 4.58329 9.24019H7.57349C8.49396 9.24019 9.24016 8.494 9.24016 7.57352V4.58332C9.24016 3.66285 8.49397 2.91666 7.57349 2.91666H4.58329Z" fill="currentColor"/>
<path d="M12.4267 2.91666C11.5062 2.91666 10.7601 3.66285 10.7601 4.58332V7.57352C10.7601 8.49399 11.5062 9.24019 12.4267 9.24019H15.4169C16.3374 9.24019 17.0836 8.494 17.0836 7.57352V4.58332C17.0836 3.66285 16.3374 2.91666 15.4169 2.91666H12.4267Z" fill="currentColor"/>
<path d="M4.58329 10.7601C3.66282 10.7601 2.91663 11.5063 2.91663 12.4267V15.4169C2.91663 16.3374 3.66282 17.0836 4.58329 17.0836H7.57349C8.49396 17.0836 9.24016 16.3374 9.24016 15.4169V12.4267C9.24016 11.5063 8.49397 10.7601 7.57349 10.7601H4.58329Z" fill="currentColor"/>
<path d="M12.4267 10.7601C11.5062 10.7601 10.7601 11.5063 10.7601 12.4267V15.4169C10.7601 16.3374 11.5062 17.0836 12.4267 17.0836H15.4169C16.3374 17.0836 17.0836 16.3374 17.0836 15.4169V12.4267C17.0836 11.5063 16.3374 10.7601 15.4169 10.7601H12.4267Z" fill="currentColor"/>
</svg>
