<svg xmlns="http://www.w3.org/2000/svg" width="20" height="20" viewBox="0 0 20 20" fill="currentColor">
  <path fill-rule="evenodd" clip-rule="evenodd" d="M2.5 10C2.5 5.85786 5.85786 2.5 10 2.5C14.1421 2.5 17.5 5.85786 17.5 10C17.5 14.1421 14.1421 17.5 10 17.5C5.85786 17.5 2.5 14.1421 2.5 10ZM9.43566 6.3377C9.83741 6.3377 10.1631 6.66338 10.1631 7.06512V10.2276L12.47 11.381C12.8293 11.5607 12.975 11.9977 12.7953 12.357C12.6157 12.7163 12.1787 12.862 11.8194 12.6823L9.11035 11.3278C8.86391 11.2046 8.70824 10.9527 8.70824 10.6772V7.06512C8.70824 6.66338 9.03392 6.3377 9.43566 6.3377Z" fill="currentColor"/>
</svg>