<svg width="20" height="20" viewBox="0 0 20 20" fill="none" xmlns="http://www.w3.org/2000/svg">
<path d="M12.1563 4.85896L7.84359 2.74046V15.141L12.1563 17.2595V4.85896Z" fill="currentColor"/>
<path d="M13.4384 4.79255V17.2356L18.0103 14.6689C18.21 14.5568 18.3333 14.3481 18.3333 14.1221V3.12977C18.3333 2.90528 18.2117 2.69776 18.014 2.58508C17.8164 2.4724 17.5726 2.4716 17.3742 2.58298L13.4384 4.79255Z" fill="currentColor"/>
<path d="M1.98961 5.33107L6.56154 2.76441V15.2075L2.62569 17.417C2.42729 17.5284 2.18354 17.5276 1.9859 17.4149C1.78827 17.3022 1.66663 17.0947 1.66663 16.8702V5.87786C1.66663 5.65187 1.78989 5.44319 1.98961 5.33107Z" fill="currentColor"/>
</svg>
