<svg xmlns="http://www.w3.org/2000/svg" width="20" height="20" viewBox="0 0 20 20" fill="currentColor">
  <path d="M8.45512 2.29147C5.98319 2.96863 4.16667 5.2312 4.16667 7.91804V11.8324L2.63996 14.1225C2.46948 14.3782 2.45359 14.707 2.59861 14.9779C2.74362 15.2489 3.02601 15.418 3.33333 15.418H16.6667C16.974 15.418 17.2564 15.2489 17.4014 14.9779C17.5464 14.707 17.5305 14.3782 17.36 14.1225L15.8333 11.8324V7.91804C15.8333 5.2312 14.0168 2.96863 11.5449 2.29147C10.3015 1.95099 9.16667 2.08463 8.45512 2.29147Z" fill="curentColor"/>
  <path d="M7.3641 16.2514C7.83221 17.2368 8.83658 17.918 10.0001 17.918C11.1636 17.918 12.168 17.2368 12.6361 16.2514H7.3641Z" fill="curentColor"/>
</svg>