<svg xmlns="http://www.w3.org/2000/svg" width="20" height="20" viewBox="0 0 20 20" fill="currentColor">
  <path d="M7.59515 3.13381C7.59515 2.78377 7.30733 2.5 6.95229 2.5C6.59725 2.5 6.30943 2.78377 6.30943 3.13381V4.99302C6.30943 5.34306 6.59725 5.62683 6.95229 5.62683C7.30733 5.62683 7.59515 5.34306 7.59515 4.99302V3.13381Z" fill="currentColor"/>
  <path d="M13.6906 3.13381C13.6906 2.78377 13.4028 2.5 13.0477 2.5C12.6927 2.5 12.4049 2.78377 12.4049 3.13381V4.99302C12.4049 5.34306 12.6927 5.62683 13.0477 5.62683C13.4028 5.62683 13.6906 5.34306 13.6906 4.99302V3.13381Z" fill="currentColor"/>
  <path d="M4.66667 4.06307H5.45229V4.99302C5.45229 5.80979 6.12386 6.47191 6.95229 6.47191C7.78072 6.47191 8.45229 5.80979 8.45229 4.99302V4.06307H11.5477V4.99302C11.5477 5.80979 12.2193 6.47191 13.0477 6.47191C13.8761 6.47191 14.5477 5.80979 14.5477 4.99302V4.06307H15.3333C16.4646 4.06307 17.5 4.89106 17.5 6.04903V8.12012H2.5V6.04903C2.5 4.89106 3.53543 4.06307 4.66667 4.06307Z" fill=""/>
  <path fill-rule="evenodd" clip-rule="evenodd" d="M2.5 15.514V9.38774H17.5V15.514C17.5 16.672 16.4646 17.5 15.3333 17.5H4.66667C3.53543 17.5 2.5 16.672 2.5 15.514ZM5.71431 10.9508H7.4286V12.6409H5.71431V10.9508ZM9.14289 10.9508H10.8572V12.6409H9.14289V10.9508ZM14.2857 10.9508H12.5715V12.6409H14.2857V10.9508Z" fill="currentColor"/>
</svg>