<svg xmlns="http://www.w3.org/2000/svg" width="20" height="20" viewBox="0 0 20 20" fill="currentColor">
  <path d="M17.9416 7.39584H15.9927L15.4511 6.04167C14.8944 4.64942 13.566 3.75 12.0663 3.75H7.93218C6.43283 3.75 5.10405 4.64942 4.54709 6.04167L4.00542 7.39584H2.05685C1.80262 7.39584 1.61609 7.63477 1.67794 7.88119L1.87325 8.66244C1.91655 8.83627 2.0728 8.95834 2.25216 8.95834H2.90548C2.46831 9.34018 2.18673 9.89519 2.18673 10.5208V12.0833C2.18673 12.6081 2.38725 13.0817 2.70757 13.4483V15.2083C2.70757 15.7835 3.17404 16.25 3.74923 16.25H4.7909C5.3661 16.25 5.83257 15.7835 5.83257 15.2083V14.1667H14.1659V15.2083C14.1659 15.7835 14.6324 16.25 15.2076 16.25H16.2493C16.8244 16.25 17.2909 15.7835 17.2909 15.2083V13.4483C17.6112 13.082 17.8118 12.6084 17.8118 12.0833V10.5208C17.8118 9.89519 17.5302 9.34018 17.0933 8.95834H17.7466C17.926 8.95834 18.0823 8.83627 18.1256 8.66244L18.3209 7.88119C18.3824 7.63477 18.1959 7.39584 17.9416 7.39584ZM6.48133 6.81543C6.71864 6.22233 7.29318 5.83334 7.93218 5.83334H12.0663C12.7053 5.83334 13.2798 6.22233 13.5172 6.81543L14.1659 8.43751H5.83257L6.48133 6.81543ZM4.7909 12.0768C4.1659 12.0768 3.74923 11.6615 3.74923 11.0384C3.74923 10.4154 4.1659 10 4.7909 10C5.4159 10 6.3534 10.9346 6.3534 11.5576C6.3534 12.1807 5.4159 12.0768 4.7909 12.0768ZM15.2076 12.0768C14.5826 12.0768 13.6451 12.1807 13.6451 11.5576C13.6451 10.9346 14.5826 10 15.2076 10C15.8326 10 16.2493 10.4154 16.2493 11.0384C16.2493 11.6615 15.8326 12.0768 15.2076 12.0768Z" fill="currentColor"/>
</svg>