<svg width="20" height="20" viewBox="0 0 20 20" fill="none" xmlns="http://www.w3.org/2000/svg">
    <path fill-rule="evenodd" clip-rule="evenodd"
        d="M10.5372 4.66489V5.37045H14.0662C14.1786 5.04627 14.1984 4.69467 14.1172 4.3649C14.0087 3.92472 13.7282 3.55342 13.3454 3.3416C13.1505 3.21133 11.7426 2.27181 11.2209 1.9657C10.8923 1.77292 10.4587 1.66675 10.0001 1.66675C9.54139 1.66675 9.10784 1.77292 8.77931 1.9657C8.25754 2.27185 6.84953 3.21145 6.65473 3.34164C6.27191 3.55346 5.99143 3.92476 5.88298 4.3649C5.80171 4.69467 5.8215 5.04627 5.93389 5.37045H9.46305V4.66489C9.46305 4.33376 9.70351 4.06531 10.0001 4.06531C10.2967 4.06531 10.5372 4.33376 10.5372 4.66489ZM10.1142 8.77326L13.7038 8.1482V8.83736C13.7038 10.4996 12.0423 11.8519 10.0001 11.8519C7.95785 11.8519 6.29635 10.4996 6.29635 8.83736V8.14817L9.88599 8.77323C9.92362 8.77977 9.96183 8.78305 10.0001 8.78305C10.0383 8.78311 10.0766 8.77983 10.1142 8.77326ZM7.33878 11.852C8.12159 12.2686 9.03062 12.5082 10.0001 12.5082C10.9696 12.5082 11.8786 12.2686 12.6614 11.852L12.7779 12.5743L10.0001 14.6298L7.22237 12.5743L7.33878 11.852ZM6.29635 5.83341H13.7038V7.38632L10 8.14823L6.29635 7.38632V5.83341ZM6.75937 13.2408L4.48356 14.0753C4.15381 14.1962 3.8582 14.395 3.62195 14.6549C3.25757 15.0557 3.05566 15.578 3.05566 16.1197V17.7055C3.05566 18.0522 3.3368 18.3334 3.6836 18.3334H9.53714V15.2778L6.75937 13.2408ZM7.22229 16.4816C7.47798 16.4816 7.68525 16.2744 7.68525 16.0187C7.68525 15.763 7.47798 15.5557 7.22229 15.5557C6.9666 15.5557 6.75933 15.763 6.75933 16.0187C6.75933 16.2744 6.9666 16.4816 7.22229 16.4816ZM13.2408 13.2408L15.5166 14.0753C15.8463 14.1962 16.142 14.3951 16.3782 14.655C16.7426 15.0558 16.9445 15.578 16.9445 16.1197V17.7055C16.9445 18.0523 16.6634 18.3334 16.3166 18.3334H10.463V15.2779L13.2408 13.2408ZM11.852 15.5557C11.5963 15.5557 11.389 15.763 11.389 16.0187C11.389 16.2744 11.5963 16.4816 11.852 16.4816H13.7038C13.9595 16.4816 14.1668 16.2744 14.1668 16.0187C14.1668 15.763 13.9595 15.5557 13.7038 15.5557H11.852Z"
        fill="currentColor" />
</svg>