<svg width="48" height="48" viewBox="0 0 48 48" fill="none" xmlns="http://www.w3.org/2000/svg">
<path d="M33.017 37.8693V42.6794H35.4322C39.6187 42.6794 43 39.3124 43 35.1436V31.4558H39.4576C35.9153 31.4558 33.017 34.3419 33.017 37.8693Z" fill="url(#paint0_linear_3786_2128)"/>
<path d="M15.1442 9.81012V5H12.7289C8.54249 5 5.16113 8.3671 5.16113 12.5359V16.2236H8.7035C12.2459 16.2236 15.1442 13.3375 15.1442 9.81012Z" fill="url(#paint1_linear_3786_2128)"/>
<path opacity="0.8" d="M30.9237 37.8691C30.9237 33.2194 34.7881 29.3713 39.4576 29.3713H43V23.1181L38.6525 21.9958L21.4237 39.3122L13.8559 37.5485C13.6949 37.7088 13.6949 37.8691 13.5339 38.0295C13.0508 38.5105 12.4068 38.8312 11.7627 38.8312C11.1186 38.8312 10.4746 38.5105 9.99152 38.0295C9.02542 37.0675 9.02542 35.4641 9.99152 34.3417C10.4746 33.8607 11.1186 33.5401 11.7627 33.5401C12.4068 33.5401 13.0508 33.8607 13.5339 34.3417C14.0169 34.8228 14.178 35.3038 14.339 35.9451L21.1017 37.5485L38.1694 20.3924L43 21.5148V17.346L38.1694 16.384L24.8051 29.692C24.8051 29.8523 24.8051 29.8523 24.8051 30.0126C24.8051 30.4936 24.644 30.8143 24.322 31.135C24 31.4557 23.6779 31.616 23.1949 31.616C22.7118 31.616 22.3898 31.4557 22.0678 31.135C21.7457 30.8143 21.5847 30.4936 21.5847 30.0126C21.5847 29.5316 21.7457 29.211 22.0678 28.8903C22.3898 28.5696 23.0339 28.4093 23.5169 28.5696L37.5254 14.6202L42.8389 15.7426V12.5359C42.8389 8.3671 39.4576 5 35.2711 5H17.2373V9.81012C17.2373 14.4599 13.3729 18.308 8.70338 18.308H5.16101V24.5612L9.50847 25.6835L26.8983 8.36709L34.4661 10.1308C34.6271 9.97047 34.6271 9.81016 34.7881 9.64982C35.2711 9.16881 35.9152 8.84813 36.5593 8.84813C37.2033 8.84813 37.8474 9.16881 38.3305 9.64982C39.2966 10.6118 39.2966 12.2152 38.3305 13.3376C37.8474 13.8186 37.2033 14.1392 36.5593 14.1392C35.9152 14.1392 35.2711 13.8186 34.7881 13.3376C34.305 12.8565 34.144 12.3755 33.983 11.7342L27.2203 10.1308L9.8305 27.4472L5 26.1645V30.3333L9.8305 31.2953L23.1949 17.9873C23.1949 17.827 23.1949 17.827 23.1949 17.6667C23.1949 17.1857 23.3559 16.865 23.6779 16.5443C24.322 15.903 25.2881 15.903 25.7712 16.5443C26.0932 16.865 26.2542 17.1857 26.2542 17.6667C26.2542 18.1477 26.0932 18.4683 25.7712 18.789C25.4491 19.1097 25.1271 19.2701 24.644 19.2701C24.483 19.2701 24.322 19.2701 24.322 19.2701L10.3136 33.2194L5 32.097V35.4641C5 39.6328 8.38135 42.9999 12.5678 42.9999H30.7627V37.8691H30.9237Z" fill="url(#paint2_linear_3786_2128)"/>
<defs>
<linearGradient id="paint0_linear_3786_2128" x1="43.52" y1="30.7543" x2="32.0874" y2="41.3383" gradientUnits="userSpaceOnUse">
<stop stop-color="#4742D8"/>
<stop offset="1" stop-color="#7772F4"/>
</linearGradient>
<linearGradient id="paint1_linear_3786_2128" x1="15.6641" y1="4.29853" x2="4.23154" y2="14.8825" gradientUnits="userSpaceOnUse">
<stop stop-color="#4742D8"/>
<stop offset="1" stop-color="#7772F4"/>
</linearGradient>
<linearGradient id="paint2_linear_3786_2128" x1="44.9791" y1="2.62501" x2="6.1875" y2="43" gradientUnits="userSpaceOnUse">
<stop stop-color="#4742D8"/>
<stop offset="1" stop-color="#7772F4"/>
</linearGradient>
</defs>
</svg>
