<svg width="32" height="30" viewBox="0 0 32 30" fill="none" xmlns="http://www.w3.org/2000/svg">
<path d="M25.375 28.125H22.3003L21.6753 26.25H10.3247L9.69971 28.125H6.625C6.10693 28.125 5.6875 28.5444 5.6875 29.0625C5.6875 29.5806 6.10693 30 6.625 30H25.375C25.8931 30 26.3125 29.5806 26.3125 29.0625C26.3125 28.5444 25.8931 28.125 25.375 28.125Z" fill="#3C36D5"/>
<path d="M25.375 5.625C24.8577 5.625 24.4375 6.04517 24.4375 6.5625C24.4375 7.07983 24.8577 7.5 25.375 7.5C25.8923 7.5 26.3125 7.07983 26.3125 6.5625C26.3125 6.04517 25.8923 5.625 25.375 5.625Z" fill="#A4A1EB"/>
<path d="M29.125 0H2.8125C1.26172 0 0 1.26172 0 2.8125V18.75H5.6875V15.9375C5.6875 15.4194 6.10693 15 6.625 15H8.07349C8.17041 14.7273 8.28125 14.4597 8.40674 14.197L7.38208 13.1716C7.01587 12.8054 7.01587 12.2122 7.38208 11.8459L10.0334 9.19458C10.3997 8.82837 10.9929 8.82837 11.3591 9.19458L12.3845 10.22C12.6472 10.0945 12.9146 9.98291 13.1875 9.88574V8.4375C13.1875 7.91943 13.6069 7.5 14.125 7.5H17.875C18.3931 7.5 18.8125 7.91943 18.8125 8.4375V9.88599C19.0852 9.98291 19.3528 10.0947 19.6155 10.22L20.6409 9.19458C21.0071 8.82861 21.6003 8.82861 21.9666 9.19458L24.6179 11.8459C24.9841 12.2122 24.9841 12.8057 24.6179 13.1716L23.5933 14.197C23.7187 14.46 23.8296 14.7273 23.9265 15H25.375C25.8931 15 26.3125 15.4194 26.3125 15.9375V18.75H32V2.8125C32 1.26172 30.6758 0 29.125 0ZM25.375 9.375C23.8242 9.375 22.5625 8.11328 22.5625 6.5625C22.5625 5.01172 23.8242 3.75 25.375 3.75C26.9258 3.75 28.1875 5.01172 28.1875 6.5625C28.1875 8.11328 26.9258 9.375 25.375 9.375Z" fill="#3C36D5"/>
<path d="M13.1875 17.8125C13.1875 18.1365 13.2622 18.449 13.3694 18.75H18.6306C18.7378 18.449 18.8125 18.1365 18.8125 17.8125C18.8125 16.2617 17.5508 15 16 15C14.449 15 13.1875 16.2617 13.1875 17.8125Z" fill="#A4A1EB"/>
<path d="M9.67358 16.1719C9.56665 16.5857 9.19312 16.875 8.76538 16.875H7.5625V18.75H11.4358C11.3728 18.4412 11.3125 18.1309 11.3125 17.8125C11.3125 15.228 13.4155 13.125 16 13.125C18.5845 13.125 20.6875 15.228 20.6875 17.8125C20.6875 18.1309 20.6272 18.4412 20.5642 18.75H24.4375V16.875H23.2346C22.8069 16.875 22.4333 16.5857 22.3264 16.1719C22.177 15.5906 21.9436 15.0283 21.6323 14.501C21.4153 14.1331 21.4749 13.6643 21.7769 13.3621L22.6294 12.5088L21.3037 11.1831L20.4504 12.0364C20.1482 12.3396 19.6785 12.3999 19.3105 12.1802C18.7842 11.8699 18.2229 11.6355 17.6406 11.4861C17.2268 11.3792 16.9375 11.0056 16.9375 10.5779V9.375H15.0625V10.5779C15.0625 11.0056 14.7732 11.3792 14.3594 11.4861C13.7771 11.6355 13.2158 11.8699 12.6895 12.1802C12.3232 12.3999 11.8525 12.3396 11.5496 12.0364L10.6963 11.1831L9.37061 12.5088L10.2231 13.3621C10.5251 13.6643 10.5847 14.1331 10.3677 14.501C10.0564 15.0283 9.823 15.5906 9.67358 16.1719Z" fill="#A4A1EB"/>
<path d="M0 21.5625C0 23.1133 1.26172 24.375 2.8125 24.375H29.125C30.6758 24.375 32 23.1133 32 21.5625V20.625H0V21.5625Z" fill="#3C36D5"/>
</svg>
