<svg width="48" height="48" viewBox="0 0 48 48" fill="none" xmlns="http://www.w3.org/2000/svg">
<path d="M36.4901 31.6539C33.273 36.2086 28.6843 39.8454 24.0003 42.9999C19.3157 39.8454 14.727 36.2086 11.5099 31.6539C7.81671 26.4233 6.47794 19.1498 9.56871 13.3746C12.2904 8.28861 17.9521 5 24.0003 5C30.0484 5 35.7101 8.28861 38.4313 13.3746C41.5221 19.1498 40.1833 26.4233 36.4901 31.6539Z" fill="url(#paint0_linear_3786_2115)"/>
<path d="M24.0001 34.0699C31.1356 34.0699 36.9201 28.2855 36.9201 21.15C36.9201 14.0145 31.1356 8.22998 24.0001 8.22998C16.8646 8.22998 11.0801 14.0145 11.0801 21.15C11.0801 28.2855 16.8646 34.0699 24.0001 34.0699Z" fill="white"/>
<path opacity="0.8" fill-rule="evenodd" clip-rule="evenodd" d="M23.9991 11.3333C20.7762 11.3333 18.162 13.908 18.162 17.0822C18.162 20.2564 20.7762 22.8312 23.9991 22.8312C27.222 22.8312 29.8363 20.2564 29.8363 17.0822C29.8363 13.908 27.222 11.3333 23.9991 11.3333ZM23.9991 20.7406C21.9469 20.7406 20.2847 19.1028 20.2847 17.0822C20.2847 15.0616 21.9475 13.4239 23.9991 13.4239C26.0507 13.4239 27.7135 15.0616 27.7135 17.0822C27.7135 19.1028 26.0507 20.7406 23.9991 20.7406ZM23.9991 18.3014C24.6828 18.3014 25.237 17.7555 25.237 17.0821C25.237 16.4088 24.6828 15.8629 23.9991 15.8629C23.3154 15.8629 22.7612 16.4088 22.7612 17.0821C22.7612 17.7555 23.3154 18.3014 23.9991 18.3014ZM23.9991 25.619C27.947 25.619 31.4603 27.4656 33.6891 30.3334L28.8105 22.8843C27.5014 23.9398 25.8282 24.5743 23.9991 24.5743C22.17 24.5743 20.4968 23.9398 19.1878 22.8843L14.3091 30.3334C16.5379 27.4656 20.0512 25.619 23.9991 25.619Z" fill="url(#paint1_linear_3786_2115)"/>
<defs>
<linearGradient id="paint0_linear_3786_2115" x1="41.8322" y1="2.62501" x2="3.29912" y2="36.7148" gradientUnits="userSpaceOnUse">
<stop stop-color="#4742D8"/>
<stop offset="1" stop-color="#7772F4"/>
</linearGradient>
<linearGradient id="paint1_linear_3786_2115" x1="34.6985" y1="10.1457" x2="15.3216" y2="30.7167" gradientUnits="userSpaceOnUse">
<stop stop-color="#4742D8"/>
<stop offset="1" stop-color="#7772F4"/>
</linearGradient>
</defs>
</svg>
