<svg width="48" height="48" viewBox="0 0 48 48" fill="none" xmlns="http://www.w3.org/2000/svg">
<path opacity="0.8" fill-rule="evenodd" clip-rule="evenodd" d="M5 35.3822C5 34.7487 5.4619 34.2351 6.03168 34.2351L30.7919 34.2351C31.3617 34.2351 31.8236 34.7487 31.8236 35.3822C31.8236 36.0157 31.3617 36.5292 30.7919 36.5292L6.03168 36.5292C5.4619 36.5292 5 36.0157 5 35.3822Z" fill="url(#paint0_linear_3786_2126)"/>
<path fill-rule="evenodd" clip-rule="evenodd" d="M9.47052 37.6763C9.47052 37.0428 9.93242 36.5293 10.5022 36.5293L35.2624 36.5293C35.8322 36.5293 36.2941 37.0428 36.2941 37.6763C36.2941 38.3098 35.8322 38.8234 35.2624 38.8234L10.5022 38.8234C9.93242 38.8234 9.47052 38.3098 9.47052 37.6763Z" fill="url(#paint1_linear_3786_2126)"/>
<path fill-rule="evenodd" clip-rule="evenodd" d="M35.1764 16.7647H36.294L36.294 37.941C36.294 38.4283 35.7936 38.8234 35.1764 38.8234C34.5591 38.8234 34.0587 38.4283 34.0587 37.941L34.0587 16.7647H35.1764Z" fill="url(#paint2_linear_3786_2126)"/>
<path fill-rule="evenodd" clip-rule="evenodd" d="M28.2715 11.1035C34.5552 7.16851 39.9182 9.69671 42.1188 11.1303L42.1251 11.1344C43.0306 11.7388 43.2864 13.0348 42.64 13.9755L42.6352 13.9826L39.6812 18.1764H30.9463L27.7583 14.0415C27.0473 13.0968 27.3044 11.7088 28.2715 11.1035ZM41.4038 12.3967C39.4044 11.0953 34.619 8.84291 28.962 12.3856C28.7091 12.5438 28.6599 12.8833 28.8242 13.1048L31.5914 16.6939H38.9987L41.537 13.0902C41.6891 12.8657 41.64 12.5563 41.4038 12.3967Z" fill="url(#paint3_linear_3786_2126)"/>
<path d="M36.1224 16.6939H37.5777L37.8498 12.7516C37.8749 12.6244 37.6992 12.5735 37.649 12.7007L36.1224 16.6939Z" fill="url(#paint4_linear_3786_2126)"/>
<path d="M26.8728 22.8523C27.0306 22.8523 27.1545 22.9124 27.2447 23.0446C27.3348 23.1648 27.3686 23.3211 27.3461 23.4894L27.1094 24.499C27.0306 24.7515 26.8728 24.8717 26.6361 24.8717H25.8473C26.422 25.4005 26.715 26.0737 26.715 26.879V28.8863C26.715 29.5595 26.5009 30.1484 26.0839 30.6413V32.901C26.0839 33.2616 25.96 33.5741 25.7121 33.8386C25.4641 34.103 25.1711 34.2352 24.8331 34.2352H23.5709C23.2329 34.2352 22.9399 34.103 22.6919 33.8386C22.444 33.5741 22.3201 33.2616 22.3201 32.901V31.5548H12.268V32.901C12.268 33.2616 12.144 33.5741 11.8961 33.8386C11.6482 34.103 11.3552 34.2352 11.0171 34.2352H9.75495C9.41688 34.2352 9.12388 34.103 8.87596 33.8386C8.62804 33.5741 8.50407 33.2616 8.50407 32.901V30.6413C8.08712 30.1364 7.873 29.5474 7.873 28.8863V26.879C7.873 26.0737 8.166 25.4005 8.74073 24.8717H7.95189C7.71523 24.8717 7.55747 24.7515 7.47858 24.499L7.24193 23.4894C7.21939 23.3211 7.2532 23.1768 7.34335 23.0446C7.43351 22.9124 7.55747 22.8523 7.71523 22.8523H10.0705L10.7354 21.0974C10.8931 20.6767 11.1072 20.28 11.3777 19.9074C11.6482 19.5348 11.9637 19.2223 12.3243 18.9698C12.6849 18.7174 13.0681 18.5251 13.485 18.3809C13.902 18.2366 14.3302 18.1765 14.781 18.1765H19.807C20.6973 18.1765 21.5199 18.441 22.2637 18.9698C23.0075 19.4987 23.5371 20.2079 23.8527 21.1094L24.5175 22.8643H26.8728V22.8523ZM11.0058 28.8863C11.0622 28.8863 11.1749 28.8863 11.3439 28.8863C11.5129 28.8863 11.6369 28.8863 11.7158 28.8863C11.7947 28.8863 11.9074 28.8743 12.0539 28.8623C12.2004 28.8503 12.313 28.8262 12.3919 28.8022C12.4708 28.7782 12.561 28.7421 12.6511 28.694C12.7413 28.6459 12.8089 28.5858 12.8427 28.5017C12.8765 28.4176 12.899 28.3214 12.899 28.2132C12.899 27.7925 12.6737 27.3598 12.2342 26.891C11.7947 26.4343 11.389 26.2059 11.0171 26.2059C10.6452 26.2059 10.3522 26.3261 10.1156 26.5785C9.87891 26.8309 9.76622 27.1555 9.76622 27.5401C9.76622 27.9368 9.87891 28.2493 10.1156 28.5017C10.3409 28.7541 10.6452 28.8863 11.0058 28.8863ZM13.0455 22.095L12.2567 24.1865H22.3088L21.5199 22.095C21.3847 21.7344 21.1593 21.4339 20.8325 21.1935C20.5057 20.9531 20.1564 20.8329 19.7958 20.8329H14.781C14.4091 20.8329 14.071 20.9531 13.7442 21.1935C13.4174 21.4339 13.1808 21.7344 13.0455 22.095ZM23.5709 28.8863C23.9428 28.8863 24.2358 28.7661 24.4725 28.5137C24.7091 28.2613 24.8218 27.9368 24.8218 27.5521C24.8218 27.1555 24.7091 26.8429 24.4725 26.5905C24.2358 26.3381 23.9315 26.2179 23.5709 26.2179C23.3343 26.2179 23.0638 26.3261 22.7708 26.5545C22.4666 26.7828 22.2186 27.0473 22.0045 27.3718C21.7904 27.6964 21.689 27.9848 21.689 28.2252C21.689 28.3334 21.7115 28.4296 21.7453 28.5137C21.7791 28.5979 21.8467 28.658 21.9369 28.706C22.0271 28.7541 22.1172 28.7782 22.1961 28.8142C22.275 28.8503 22.3877 28.8623 22.5342 28.8743C22.6807 28.8863 22.7934 28.8984 22.8722 28.8984C22.9511 28.8984 23.0751 28.8984 23.2441 28.8984C23.4132 28.8863 23.5258 28.8863 23.5709 28.8863Z" fill="url(#paint5_linear_3786_2126)"/>
<defs>
<linearGradient id="paint0_linear_3786_2126" x1="33.2206" y1="34.0917" x2="32.838" y2="38.7478" gradientUnits="userSpaceOnUse">
<stop stop-color="#4742D8"/>
<stop offset="1" stop-color="#7772F4"/>
</linearGradient>
<linearGradient id="paint1_linear_3786_2126" x1="37.6912" y1="36.3859" x2="37.3086" y2="41.042" gradientUnits="userSpaceOnUse">
<stop stop-color="#4742D8"/>
<stop offset="1" stop-color="#7772F4"/>
</linearGradient>
<linearGradient id="paint2_linear_3786_2126" x1="43.8149" y1="7.13604" x2="18.1819" y2="21.1336" gradientUnits="userSpaceOnUse">
<stop stop-color="#4742D8"/>
<stop offset="1" stop-color="#7772F4"/>
</linearGradient>
<linearGradient id="paint3_linear_3786_2126" x1="43.8149" y1="7.13604" x2="18.1819" y2="21.1336" gradientUnits="userSpaceOnUse">
<stop stop-color="#4742D8"/>
<stop offset="1" stop-color="#7772F4"/>
</linearGradient>
<linearGradient id="paint4_linear_3786_2126" x1="43.8149" y1="7.13604" x2="18.1819" y2="21.1336" gradientUnits="userSpaceOnUse">
<stop stop-color="#4742D8"/>
<stop offset="1" stop-color="#7772F4"/>
</linearGradient>
<linearGradient id="paint5_linear_3786_2126" x1="28.4006" y1="17.1728" x2="12.5554" y2="37.8333" gradientUnits="userSpaceOnUse">
<stop stop-color="#4742D8"/>
<stop offset="1" stop-color="#7772F4"/>
</linearGradient>
</defs>
</svg>
