<svg width="48" height="48" viewBox="0 0 48 48" fill="none" xmlns="http://www.w3.org/2000/svg">
<path d="M7.50825 27.2651C7.75908 27.5212 7.88449 27.9053 7.88449 28.2895C7.88449 28.6736 7.75908 29.0577 7.38284 29.3138C6.75578 29.826 5.87789 29.826 5.37624 29.1858C5.12542 28.9297 5 28.5456 5 28.1614C5 27.7773 5.12541 27.3931 5.50165 27.137C6.12871 26.6249 7.0066 26.6249 7.50825 27.2651Z" fill="url(#paint0_linear_3786_2123)"/>
<path d="M27.8251 17.9179C27.8251 18.302 27.8251 18.6862 27.9505 19.0703L23.4357 23.2958L18.9208 27.5213C18.5446 27.3932 18.2938 27.2652 17.9175 27.2652L13.0264 12.9241C13.2773 12.7961 13.4027 12.668 13.6535 12.54C13.7789 12.412 14.0297 12.1559 14.1551 12.0278L27.8251 17.9179Z" fill="url(#paint1_linear_3786_2123)"/>
<path d="M9.13871 29.1858L16.0364 29.826C16.1618 30.2102 16.2872 30.4663 16.538 30.8504C16.7889 31.1065 17.1651 31.3626 17.5413 31.4906L17.6668 37.1246V39.5574C17.4159 39.6855 17.2905 39.8135 17.0397 39.9416L8.38623 30.3382C8.76247 29.9541 9.0133 29.5699 9.13871 29.1858Z" fill="url(#paint2_linear_3786_2123)"/>
<path opacity="0.6" d="M11.7721 13.0522H11.8975L16.7886 27.5213L16.6631 27.6494C16.4123 27.9055 16.2869 28.1615 16.1615 28.4176L9.2638 27.7774C9.13839 27.2652 8.88757 26.7531 8.51133 26.3689C8.13509 25.9848 7.75885 25.7287 7.2572 25.6007L11.2704 13.0522C11.3958 13.0522 11.5212 13.0522 11.7721 13.0522Z" fill="url(#paint3_linear_3786_2123)"/>
<path d="M20.1751 29.5699C20.1751 29.1858 20.1751 28.8016 20.0497 28.4175L28.954 19.9666C29.3302 20.0946 29.7064 20.2226 30.0827 20.2226L35.2246 35.0758C34.9738 35.2039 34.8484 35.3319 34.723 35.46C34.5975 35.588 34.4721 35.8441 34.3467 35.9722L20.1751 29.5699Z" fill="url(#paint4_linear_3786_2123)"/>
<path d="M27.5744 8.44254C27.9506 8.95472 28.5777 9.21081 29.0794 9.33885V9.59496L29.2048 16.1252C28.954 16.2533 28.7031 16.3813 28.4523 16.5094L28.3269 16.6374L23.6866 14.5887L14.6569 10.4913V10.3632C14.6569 10.2352 14.6569 9.97909 14.6569 9.85104L26.9473 6.90601C26.9473 7.41819 27.1982 7.93036 27.5744 8.44254Z" fill="url(#paint5_linear_3786_2123)"/>
<path opacity="0.6" d="M39.7394 17.7898C39.4886 18.0459 39.2377 18.302 39.1123 18.6861L31.9638 17.7898C31.8384 17.4057 31.713 17.0215 31.4622 16.7654C31.2113 16.5093 30.8351 16.2532 30.5843 16.1252L30.4589 9.33881V9.21078C30.8351 9.08274 31.2113 8.82665 31.4622 8.57056L39.7394 17.7898Z" fill="url(#paint6_linear_3786_2123)"/>
<path d="M36.6038 34.8198H36.4784L31.2111 19.8386L31.3365 19.7105C31.5873 19.4544 31.7127 19.3264 31.8381 19.0703L38.8612 19.9666C38.8612 20.6069 39.112 21.2471 39.6137 21.7593C39.9899 22.1434 40.3662 22.3995 40.8678 22.5275L37.2309 34.8198C36.98 34.8198 36.8546 34.8198 36.6038 34.8198Z" fill="url(#paint7_linear_3786_2123)"/>
<path opacity="0.6" d="M20.175 39.9415C19.7987 39.5574 19.4225 39.3013 19.0462 39.3013L18.7954 31.3625C19.0462 31.2345 19.2971 31.1064 19.5479 30.9784L19.6733 30.8503L33.8449 37.3806V37.5087C33.8449 37.6367 33.8449 37.8928 33.8449 38.0208L20.6766 40.9659C20.5512 40.5817 20.4258 40.3256 20.175 39.9415Z" fill="url(#paint8_linear_3786_2123)"/>
<path opacity="0.6" d="M13.2772 10.3632C13.2772 10.7473 13.1518 11.1314 12.7755 11.3875C12.1485 11.8997 11.2706 11.8997 10.7689 11.2595C10.5181 11.0034 10.3927 10.6193 10.3927 10.2351C10.3927 9.85101 10.5181 9.46687 10.8943 9.21078C11.5214 8.6986 12.3993 8.69859 12.901 9.33881C13.2772 9.5949 13.4026 9.97904 13.2772 10.3632Z" fill="url(#paint9_linear_3786_2123)"/>
<path d="M30.584 7.54623C29.9569 8.05841 29.079 8.0584 28.5774 7.41818C28.3265 7.16209 28.2011 6.77797 28.2011 6.39383C28.2011 6.0097 28.3265 5.62556 28.7028 5.36947C29.3298 4.85729 30.2077 4.85728 30.7094 5.4975C30.9602 5.75359 31.0856 6.13773 31.0856 6.52187C31.0856 6.906 30.8348 7.29014 30.584 7.54623Z" fill="url(#paint10_linear_3786_2123)"/>
<path opacity="0.6" d="M40.4918 20.8628C40.241 20.6067 40.1155 20.2225 40.1155 19.8384C40.1155 19.4543 40.241 19.0701 40.6172 18.8141C41.2443 18.3019 42.1221 18.3019 42.6238 18.9421C42.8746 19.1982 43 19.5823 43 19.9665C43 20.3506 42.8746 20.7347 42.4984 20.9908C41.9967 21.503 41.1188 21.3749 40.4918 20.8628Z" fill="url(#paint11_linear_3786_2123)"/>
<path d="M35.0988 37.5088C35.0988 37.1247 35.2242 36.7405 35.6005 36.4845C36.2275 35.9723 37.1054 35.9723 37.6071 36.6125C37.8579 36.8686 37.9833 37.2527 37.9833 37.6368C37.9833 38.021 37.8579 38.4051 37.4817 38.6612C36.8546 39.1734 35.9767 39.1734 35.4751 38.5332C35.2242 38.2771 35.0988 37.8929 35.0988 37.5088Z" fill="url(#paint12_linear_3786_2123)"/>
<path opacity="0.6" d="M17.5413 40.4537C18.1684 39.9415 19.0463 39.9415 19.5479 40.5817C19.7987 40.8378 19.9242 41.222 19.9242 41.6061C19.9242 41.9902 19.7987 42.3744 19.4225 42.6304C18.7954 43.1426 17.9176 43.1426 17.4159 42.5024C17.1651 42.2463 17.0397 41.8622 17.0397 41.4781C17.0397 41.0939 17.1651 40.7098 17.5413 40.4537Z" fill="url(#paint13_linear_3786_2123)"/>
<defs>
<linearGradient id="paint0_linear_3786_2123" x1="8.03473" y1="26.5853" x2="5.05717" y2="29.6513" gradientUnits="userSpaceOnUse">
<stop stop-color="#4742D8"/>
<stop offset="1" stop-color="#7772F4"/>
</linearGradient>
<linearGradient id="paint1_linear_3786_2123" x1="28.7278" y1="11.0595" x2="12.899" y2="26.929" gradientUnits="userSpaceOnUse">
<stop stop-color="#4742D8"/>
<stop offset="1" stop-color="#7772F4"/>
</linearGradient>
<linearGradient id="paint2_linear_3786_2123" x1="18.1501" y1="28.5136" x2="7.2247" y2="38.3252" gradientUnits="userSpaceOnUse">
<stop stop-color="#4742D8"/>
<stop offset="1" stop-color="#7772F4"/>
</linearGradient>
<linearGradient id="paint3_linear_3786_2123" x1="17.285" y1="12.0919" x2="2.97828" y2="21.3288" gradientUnits="userSpaceOnUse">
<stop stop-color="#4742D8"/>
<stop offset="1" stop-color="#7772F4"/>
</linearGradient>
<linearGradient id="paint4_linear_3786_2123" x1="36.015" y1="18.9662" x2="19.6643" y2="35.101" gradientUnits="userSpaceOnUse">
<stop stop-color="#4742D8"/>
<stop offset="1" stop-color="#7772F4"/>
</linearGradient>
<linearGradient id="paint5_linear_3786_2123" x1="29.9625" y1="6.29779" x2="20.9186" y2="20.3696" gradientUnits="userSpaceOnUse">
<stop stop-color="#4742D8"/>
<stop offset="1" stop-color="#7772F4"/>
</linearGradient>
<linearGradient id="paint6_linear_3786_2123" x1="40.2228" y1="7.93834" x2="29.8992" y2="17.7963" gradientUnits="userSpaceOnUse">
<stop stop-color="#4742D8"/>
<stop offset="1" stop-color="#7772F4"/>
</linearGradient>
<linearGradient id="paint7_linear_3786_2123" x1="41.3708" y1="18.086" x2="26.7772" y2="27.3992" gradientUnits="userSpaceOnUse">
<stop stop-color="#4742D8"/>
<stop offset="1" stop-color="#7772F4"/>
</linearGradient>
<linearGradient id="paint8_linear_3786_2123" x1="34.6287" y1="30.2181" x2="25.2092" y2="44.8041" gradientUnits="userSpaceOnUse">
<stop stop-color="#4742D8"/>
<stop offset="1" stop-color="#7772F4"/>
</linearGradient>
<linearGradient id="paint9_linear_3786_2123" x1="13.4769" y1="8.65908" x2="10.5012" y2="11.7731" gradientUnits="userSpaceOnUse">
<stop stop-color="#4742D8"/>
<stop offset="1" stop-color="#7772F4"/>
</linearGradient>
<linearGradient id="paint10_linear_3786_2123" x1="31.2358" y1="4.81777" x2="28.2583" y2="7.88368" gradientUnits="userSpaceOnUse">
<stop stop-color="#4742D8"/>
<stop offset="1" stop-color="#7772F4"/>
</linearGradient>
<linearGradient id="paint11_linear_3786_2123" x1="43.1503" y1="18.2651" x2="40.2187" y2="21.3293" gradientUnits="userSpaceOnUse">
<stop stop-color="#4742D8"/>
<stop offset="1" stop-color="#7772F4"/>
</linearGradient>
<linearGradient id="paint12_linear_3786_2123" x1="38.1335" y1="35.9328" x2="35.156" y2="38.9987" gradientUnits="userSpaceOnUse">
<stop stop-color="#4742D8"/>
<stop offset="1" stop-color="#7772F4"/>
</linearGradient>
<linearGradient id="paint13_linear_3786_2123" x1="20.0744" y1="39.902" x2="17.0969" y2="42.9679" gradientUnits="userSpaceOnUse">
<stop stop-color="#4742D8"/>
<stop offset="1" stop-color="#7772F4"/>
</linearGradient>
</defs>
</svg>
