<svg width="48" height="48" viewBox="0 0 48 48" fill="none" xmlns="http://www.w3.org/2000/svg">
<path fill-rule="evenodd" clip-rule="evenodd" d="M32.6607 39.0713L21.113 42.9428C20.8445 43.0811 20.5759 42.9428 20.4416 42.8045C20.3074 42.6663 20.1731 42.3897 20.1731 42.1132C20.1731 30.0839 20.1731 18.0546 20.1731 5.88698C20.1731 5.61044 20.3074 5.47218 20.4416 5.19564C20.5759 5.05737 20.8445 5.05737 21.113 5.05737L32.6607 8.92887C32.9293 9.06714 33.1978 9.34368 33.1978 9.62021C33.1978 19.1607 33.1978 28.5629 33.1978 38.1034C33.0635 38.7948 32.9293 39.0713 32.6607 39.0713Z" fill="url(#paint0_linear_3786_2118)"/>
<path fill-rule="evenodd" clip-rule="evenodd" d="M43 35.1997C43 35.4762 42.7314 35.891 42.4629 35.891L36.0177 37.9651C35.7491 38.1033 35.4806 37.9651 35.3463 37.8268C35.212 37.6885 35.0777 37.412 35.0777 37.1355C35.0777 28.4246 35.0777 19.5754 35.0777 10.8645C35.0777 10.588 35.212 10.4497 35.3463 10.1732C35.4806 10.0349 35.7491 10.0349 36.0177 10.0349L42.4629 12.1089C42.7314 12.2472 43 12.5237 43 12.8003C43 20.405 43 27.7332 43 35.1997Z" fill="url(#paint1_linear_3786_2118)"/>
<path opacity="0.8" fill-rule="evenodd" clip-rule="evenodd" d="M5.5371 36.5824L17.0848 42.9427C17.3534 43.081 17.6219 42.9427 17.7562 42.8045C17.8905 42.6662 18.0247 42.3896 18.0247 42.1131C18.0247 30.0838 18.0247 18.0545 18.0247 5.88688C18.0247 5.61034 17.8905 5.47208 17.7562 5.19554C17.6219 5.05727 17.3534 4.919 17.0848 5.05727L5.5371 11.4176C5.26855 11.5559 5 11.8324 5 12.1089C5 21.6494 5 26.074 5 35.6145C5 36.1676 5.26855 36.4441 5.5371 36.5824Z" fill="url(#paint2_linear_3786_2118)"/>
<path fill-rule="evenodd" clip-rule="evenodd" d="M20.0386 27.595V24.6913C23.664 24.6913 27.9608 23.4469 33.0633 20.405V21.5112C29.035 24.2765 24.8725 26.6271 20.0386 27.595Z" fill="white"/>
<path fill-rule="evenodd" clip-rule="evenodd" d="M43 13.0769C43 14.3213 43 15.704 43 16.9484C42.8657 16.6719 42.0601 16.8101 42.0601 16.8101C39.9117 17.3632 36.9576 19.0224 35.0777 20.1286V19.0224C35.3463 18.8842 35.6148 18.6076 36.0177 18.4694C38.0318 17.0867 39.7774 15.9805 41.523 15.1509C42.5972 14.7361 43 14.4596 43 13.0769Z" fill="white"/>
<path fill-rule="evenodd" clip-rule="evenodd" d="M43 18.0544C43 19.8519 43 21.5111 43 23.3086C42.7314 22.2025 41.7915 22.3408 41.6572 22.3408C39.3745 22.3408 37.2261 22.8938 35.0777 23.7234V22.0642C37.629 20.6815 39.9116 19.8519 41.9258 19.4371C42.4629 19.2989 43 18.6075 43 18.0544Z" fill="white"/>
<path fill-rule="evenodd" clip-rule="evenodd" d="M5 26.074C5 24.2765 6.6113 24.4147 6.87986 24.6913C9.69964 26.7653 13.1908 28.2862 18.0247 27.8714V24.6913C11.0424 23.9999 7.01413 19.0223 5 15.7039C5 19.1606 5 22.6173 5 26.074Z" fill="white"/>
<path fill-rule="evenodd" clip-rule="evenodd" d="M5 27.1802V28.1481C5 30.4986 5 32.8492 5 35.1997C5 33.6788 5.80565 33.5405 6.47703 33.6788C9.56537 34.6467 13.4594 34.6467 18.159 32.9875V30.6369C15.0707 31.3282 6.20848 31.19 5 27.1802Z" fill="white"/>
<path fill-rule="evenodd" clip-rule="evenodd" d="M20.0386 32.1578V30.0838C25.2753 28.5629 28.6322 25.7975 33.0633 23.1704V24.5531C28.4979 26.7654 24.8725 30.0838 20.0386 32.1578Z" fill="white"/>
<defs>
<linearGradient id="paint0_linear_3786_2118" x1="33.8762" y1="2.68596" x2="9.31215" y2="11.4623" gradientUnits="userSpaceOnUse">
<stop stop-color="#4742D8"/>
<stop offset="1" stop-color="#7772F4"/>
</linearGradient>
<linearGradient id="paint1_linear_3786_2118" x1="43.4126" y1="8.2857" x2="27.91" y2="12.8531" gradientUnits="userSpaceOnUse">
<stop stop-color="#4742D8"/>
<stop offset="1" stop-color="#7772F4"/>
</linearGradient>
<linearGradient id="paint2_linear_3786_2118" x1="18.7031" y1="2.625" x2="-5.86933" y2="11.3911" gradientUnits="userSpaceOnUse">
<stop stop-color="#4742D8"/>
<stop offset="1" stop-color="#7772F4"/>
</linearGradient>
</defs>
</svg>
