<svg width="48" height="48" viewBox="0 0 48 48" fill="none" xmlns="http://www.w3.org/2000/svg">
<path opacity="0.8" d="M38.7446 29.7449C38.4985 29.7449 38.2575 29.7669 38.0227 29.8072C38.0462 29.5612 38.0592 29.3121 38.0592 29.06C38.0592 24.7411 34.5556 21.24 30.2335 21.24C26.0984 21.24 22.7151 24.4453 22.4295 28.5047C21.7813 28.2071 21.0608 28.0403 20.3009 28.0403C17.4795 28.0403 15.1923 30.3257 15.1923 33.1452C15.1923 35.9646 17.4795 38.2501 20.3009 38.2501H38.7446C41.095 38.2501 43.0003 36.3461 43.0003 33.9975C43.0003 31.6488 41.095 29.7449 38.7446 29.7449Z" fill="url(#paint0_linear_3786_2116)"/>
<path d="M7.87395 15.6768C10.0614 16.5222 12.9933 16.9877 16.1293 16.9877C19.2654 16.9877 22.1973 16.5222 24.3847 15.6768C26.1306 15.0021 27.2587 14.0962 27.2587 13.3687C27.2587 12.6416 26.1306 11.7356 24.3847 11.0609C22.1973 10.2156 19.2654 9.75 16.1293 9.75C12.9933 9.75 10.0614 10.2156 7.87395 11.0609C6.12807 11.7356 5 12.6416 5 13.3687C5 14.0962 6.12807 15.0021 7.87395 15.6768Z" fill="url(#paint1_linear_3786_2116)"/>
<path d="M7.87395 24.2288C10.0614 25.0742 12.9933 25.5397 16.1293 25.5397C17.8352 25.5397 19.4802 25.4015 20.9782 25.1399C21.5203 23.8612 22.3275 22.6974 23.3657 21.726C24.4894 20.6744 25.8198 19.9075 27.2587 19.4628V16.7164C26.6751 17.0968 25.983 17.4445 25.1878 17.7518C22.7505 18.6937 19.5335 19.2125 16.1293 19.2125C12.7254 19.2125 9.50821 18.6937 7.07088 17.7518C6.27563 17.4445 5.5836 17.0968 5 16.7164V21.9207C5 22.6482 6.12807 23.5541 7.87395 24.2288Z" fill="url(#paint2_linear_3786_2116)"/>
<path d="M15.3297 27.7601C12.2242 27.6853 9.31657 27.1772 7.07088 26.3092C6.27563 26.0018 5.5836 25.6545 5 25.2738V30.4784C5 31.2055 6.12807 32.1115 7.87395 32.7862C9.31425 33.3427 11.0772 33.7347 13.0084 33.9375C12.9803 33.677 12.9655 33.4128 12.9655 33.1448C12.9655 31.0181 13.877 29.1003 15.3297 27.7601Z" fill="url(#paint3_linear_3786_2116)"/>
<defs>
<linearGradient id="paint0_linear_3786_2116" x1="44.4486" y1="20.1769" x2="29.2659" y2="46.0105" gradientUnits="userSpaceOnUse">
<stop stop-color="#4742D8"/>
<stop offset="1" stop-color="#7772F4"/>
</linearGradient>
<linearGradient id="paint1_linear_3786_2116" x1="28.418" y1="8.23828" x2="3.72977" y2="31.8851" gradientUnits="userSpaceOnUse">
<stop stop-color="#4742D8"/>
<stop offset="1" stop-color="#7772F4"/>
</linearGradient>
<linearGradient id="paint2_linear_3786_2116" x1="28.418" y1="8.23828" x2="3.72977" y2="31.8851" gradientUnits="userSpaceOnUse">
<stop stop-color="#4742D8"/>
<stop offset="1" stop-color="#7772F4"/>
</linearGradient>
<linearGradient id="paint3_linear_3786_2116" x1="28.418" y1="8.23828" x2="3.72977" y2="31.8851" gradientUnits="userSpaceOnUse">
<stop stop-color="#4742D8"/>
<stop offset="1" stop-color="#7772F4"/>
</linearGradient>
</defs>
</svg>
