<svg width="48" height="48" viewBox="0 0 48 48" fill="none" xmlns="http://www.w3.org/2000/svg">
<path d="M30.7419 16.6452H17.2581C17.8199 13.172 18.7137 10.3629 19.9395 8.21774C21.1653 6.07258 22.5188 5 24 5C25.4812 5 26.8347 6.07258 28.0605 8.21774C29.2863 10.3629 30.1801 13.172 30.7419 16.6452ZM16.875 28.9032C16.7218 27.2688 16.6452 25.6344 16.6452 24C16.6452 22.3656 16.7218 20.7312 16.875 19.0968H31.125C31.2782 20.7312 31.3548 22.3656 31.3548 24C31.3548 25.6344 31.2782 27.2688 31.125 28.9032H16.875ZM41.5444 16.6452H33.2702C32.504 11.9462 31.2271 8.31989 29.4395 5.76613C32.1465 6.58333 34.547 7.96237 36.6411 9.90323C38.7863 11.793 40.4207 14.0403 41.5444 16.6452ZM18.5605 5.76613C16.7218 8.31989 15.4449 11.9462 14.7298 16.6452H6.45565C7.5793 14.0403 9.18817 11.793 11.2823 9.90323C13.4274 7.96237 15.8535 6.58333 18.5605 5.76613ZM42.3105 19.0968C42.7702 20.7312 43 22.3656 43 24C43 25.6344 42.7702 27.2688 42.3105 28.9032H33.5766C33.7298 27.2177 33.8065 25.5833 33.8065 24C33.8065 22.4167 33.7298 20.7823 33.5766 19.0968H42.3105ZM14.1935 24C14.1935 25.5323 14.2702 27.1667 14.4234 28.9032H5.68952C5.22984 27.2177 5 25.5833 5 24C5 22.4167 5.22984 20.7823 5.68952 19.0968H14.4234C14.2702 20.7823 14.1935 22.4167 14.1935 24ZM17.2581 31.3548H30.7419C30.1801 34.828 29.2863 37.6371 28.0605 39.7823C26.8347 41.9274 25.4812 43 24 43C22.5188 43 21.1653 41.9274 19.9395 39.7823C18.7137 37.6371 17.8199 34.828 17.2581 31.3548ZM29.4395 42.2339C31.2782 39.6801 32.5551 36.0538 33.2702 31.3548H41.5444C40.4207 33.9597 38.7863 36.2325 36.6411 38.1734C34.547 40.0632 32.1465 41.4167 29.4395 42.2339ZM6.45565 31.3548H14.7298C15.496 36.0538 16.7728 39.6801 18.5605 42.2339C15.8535 41.4167 13.4274 40.0632 11.2823 38.1734C9.18817 36.2325 7.5793 33.9597 6.45565 31.3548Z" fill="url(#paint0_linear_3786_2124)"/>
<defs>
<linearGradient id="paint0_linear_3786_2124" x1="44.9792" y1="2.625" x2="6.1875" y2="43" gradientUnits="userSpaceOnUse">
<stop stop-color="#4742D8"/>
<stop offset="1" stop-color="#7772F4"/>
</linearGradient>
</defs>
</svg>
