<svg width="48" height="48" viewBox="0 0 48 48" fill="none" xmlns="http://www.w3.org/2000/svg">
<path fill-rule="evenodd" clip-rule="evenodd" d="M10.3412 22.7488C10.9668 16.1801 16.1801 10.9668 22.7488 10.3412V7.83885C16.0758 8.36018 10.654 12.8436 8.56872 18.891L2 22.7488H10.3412ZM22.7488 37.6588C16.1801 37.0332 10.9668 31.8199 10.3412 25.2512H7.83885C8.36018 31.8199 12.8436 37.346 18.7867 39.327L22.6446 46C22.7488 43.1848 22.7488 40.4739 22.7488 37.6588ZM25.2512 37.6588V40.1611C31.9242 39.6398 37.346 35.1564 39.4313 29.109L46 25.2512H37.6588C37.0332 31.8199 31.8199 37.0332 25.2512 37.6588ZM25.2512 10.3412C31.8199 10.9668 37.0332 16.1801 37.6588 22.7488H40.1611C39.6398 16.0758 35.1564 10.654 29.109 8.56872L25.2512 2V10.3412Z" fill="url(#paint0_linear_3786_2122)"/>
<g opacity="0.8">
<path d="M31.3557 21.5736C31.5073 21.5736 31.5832 21.6494 31.659 21.7253C31.7348 21.8011 31.7348 21.9527 31.7348 22.0286L31.5832 22.7869C31.5073 22.9385 31.4315 23.0902 31.204 23.0902H30.5974C31.0524 23.4693 31.2798 23.9243 31.2798 24.5309V25.9717C31.2798 26.4267 31.1282 26.8817 30.8249 27.2608V28.929C30.8249 29.1565 30.749 29.384 30.5216 29.6115C30.2941 29.839 30.0666 29.9148 29.8391 29.9148H28.8533C28.6258 29.9148 28.3983 29.839 28.1708 29.6115C27.9434 29.384 27.8675 29.1565 27.8675 28.929V27.8674H20.1329V28.8532C20.1329 29.0807 20.0571 29.3082 19.8296 29.5357C19.6021 29.7632 19.3746 29.839 19.1471 29.839H18.1614C17.9339 29.839 17.7064 29.7632 17.4789 29.5357C17.2514 29.3082 17.1756 29.0807 17.1756 28.8532V27.185C16.8723 26.8058 16.7206 26.4267 16.7206 25.8959V24.4551C16.7206 23.8485 16.9481 23.3935 17.4031 23.0144H16.7964C16.6448 23.0144 16.4931 22.9385 16.4173 22.711L16.2656 21.9527C16.2656 21.8011 16.2656 21.7253 16.3415 21.6494C16.4173 21.5736 16.4931 21.4978 16.6448 21.4978H18.4647L18.9955 20.2087C19.1471 19.9053 19.2988 19.602 19.5263 19.3745C19.7538 19.0712 19.9813 18.8437 20.2846 18.6921C20.5879 18.5404 20.8154 18.3888 21.1945 18.2371C21.4979 18.1613 21.877 18.0854 22.1803 18.0854H26.0476C26.7301 18.0854 27.3367 18.3129 27.9434 18.6921C28.55 19.0712 28.9291 19.602 29.1566 20.2087L29.6874 21.4978H31.3557V21.5736ZM19.1471 25.9717C19.223 25.9717 19.2988 25.9717 19.3746 25.9717C19.5263 25.9717 19.6021 25.9717 19.6779 25.9717C19.7538 25.9717 19.8296 25.9717 19.9054 25.9717C19.9813 25.9717 20.1329 25.9717 20.1329 25.8959C20.2088 25.8959 20.2846 25.82 20.3604 25.82C20.4362 25.82 20.5121 25.7442 20.5121 25.6684C20.5121 25.5926 20.5879 25.5167 20.5879 25.4409C20.5879 25.1376 20.4362 24.8343 20.0571 24.4551C19.6779 24.1518 19.3746 23.9243 19.1471 23.9243C18.8438 23.9243 18.6163 24.0001 18.4647 24.2276C18.313 24.3793 18.1614 24.6068 18.1614 24.9101C18.1614 25.2134 18.2372 25.4409 18.4647 25.5926C18.6163 25.82 18.8438 25.9717 19.1471 25.9717ZM20.7396 21.0428L20.1329 22.5594H27.8675L27.2609 21.0428C27.1851 20.8153 26.9576 20.5878 26.7301 20.3603C26.5026 20.2087 26.1993 20.1328 25.896 20.1328H22.0287C21.7253 20.1328 21.4979 20.2087 21.1945 20.3603C20.967 20.5878 20.8154 20.8153 20.7396 21.0428ZM28.8533 25.9717C29.1566 25.9717 29.3841 25.8959 29.5358 25.6684C29.6874 25.5167 29.8391 25.2892 29.8391 24.9859C29.8391 24.6826 29.7633 24.4551 29.5358 24.3035C29.3841 24.1518 29.1566 24.0001 28.8533 24.0001C28.7017 24.0001 28.4742 24.076 28.2467 24.2276C28.0192 24.3793 27.7917 24.6068 27.64 24.8343C27.4884 25.0617 27.4125 25.2892 27.4125 25.4409C27.4125 25.5167 27.4125 25.5926 27.4884 25.6684C27.4884 25.7442 27.5642 25.7442 27.64 25.82C27.7159 25.82 27.7917 25.8959 27.8675 25.8959C27.9434 25.8959 28.0192 25.8959 28.095 25.9717C28.1708 25.9717 28.3225 25.9717 28.3225 25.9717C28.3225 25.9717 28.4742 25.9717 28.6258 25.9717C28.7016 25.9717 28.7775 25.9717 28.8533 25.9717Z" fill="url(#paint1_linear_3786_2122)"/>
</g>
<defs>
<linearGradient id="paint0_linear_3786_2122" x1="48.2917" y1="-0.749997" x2="3.375" y2="46" gradientUnits="userSpaceOnUse">
<stop stop-color="#4742D8"/>
<stop offset="1" stop-color="#7772F4"/>
</linearGradient>
<linearGradient id="paint1_linear_3786_2122" x1="32.5405" y1="17.3461" x2="21.0074" y2="33.0435" gradientUnits="userSpaceOnUse">
<stop stop-color="#4742D8"/>
<stop offset="1" stop-color="#7772F4"/>
</linearGradient>
</defs>
</svg>
