<svg width="48" height="48" viewBox="0 0 48 48" fill="none" xmlns="http://www.w3.org/2000/svg">
<path d="M35.1329 40.0862H31.4816L30.7394 37.8596H17.2606L16.5184 40.0862H12.8671C12.2519 40.0862 11.7538 40.5843 11.7538 41.1995C11.7538 41.8147 12.2519 42.3128 12.8671 42.3128H35.1329C35.7481 42.3128 36.2462 41.8147 36.2462 41.1995C36.2462 40.5843 35.7481 40.0862 35.1329 40.0862Z" fill="url(#paint0_linear_3786_2125)"/>
<path opacity="0.8" d="M35.1329 13.3672C34.5185 13.3672 34.0196 13.8661 34.0196 14.4805C34.0196 15.0948 34.5185 15.5938 35.1329 15.5938C35.7472 15.5938 36.2462 15.0948 36.2462 14.4805C36.2462 13.8661 35.7472 13.3672 35.1329 13.3672Z" fill="url(#paint1_linear_3786_2125)"/>
<path d="M39.5859 6.6875H8.33968C6.49812 6.6875 4.99982 8.1858 4.99982 10.0274V28.9532H11.7538V25.6134C11.7538 24.9982 12.2518 24.5001 12.867 24.5001H14.5871C14.7022 24.1763 14.8339 23.8585 14.9829 23.5465L13.7661 22.3289C13.3312 21.894 13.3312 21.1895 13.7661 20.7546L16.9146 17.6061C17.3495 17.1712 18.054 17.1712 18.4889 17.6061L19.7065 18.8238C20.0185 18.6748 20.3359 18.5423 20.6601 18.4269V16.7071C20.6601 16.0919 21.1581 15.5938 21.7733 15.5938H26.2265C26.8417 15.5938 27.3398 16.0919 27.3398 16.7071V18.4272C27.6636 18.5423 27.9814 18.675 28.2933 18.8238L29.511 17.6061C29.9459 17.1715 30.6504 17.1715 31.0852 17.6061L34.2337 20.7546C34.6686 21.1895 34.6686 21.8943 34.2337 22.3289L33.017 23.5465C33.166 23.8588 33.2976 24.1763 33.4127 24.5001H35.1328C35.748 24.5001 36.2461 24.9982 36.2461 25.6134V28.9532H43V10.0274C43 8.1858 41.4275 6.6875 39.5859 6.6875ZM35.1328 17.8204C33.2912 17.8204 31.7929 16.3221 31.7929 14.4805C31.7929 12.6389 33.2912 11.1406 35.1328 11.1406C36.9743 11.1406 38.4726 12.6389 38.4726 14.4805C38.4726 16.3221 36.9743 17.8204 35.1328 17.8204Z" fill="url(#paint2_linear_3786_2125)"/>
<path opacity="0.8" d="M20.6602 27.8399C20.6602 28.2246 20.7489 28.5957 20.8761 28.9531H27.1239C27.2512 28.5957 27.3399 28.2246 27.3399 27.8399C27.3399 25.9983 25.8416 24.5 24 24.5C22.1582 24.5 20.6602 25.9983 20.6602 27.8399Z" fill="url(#paint3_linear_3786_2125)"/>
<path opacity="0.8" d="M16.4873 25.8916C16.3603 26.3831 15.9168 26.7266 15.4088 26.7266H13.9804V28.9532H18.58C18.5052 28.5864 18.4336 28.2179 18.4336 27.8399C18.4336 24.7708 20.9309 22.2735 24 22.2735C27.0691 22.2735 29.5664 24.7708 29.5664 27.8399C29.5664 28.2179 29.4948 28.5864 29.42 28.9532H34.0196V26.7266H32.5911C32.0832 26.7266 31.6396 26.3831 31.5126 25.8916C31.3352 25.2013 31.0581 24.5337 30.6884 23.9074C30.4307 23.4705 30.5014 22.9139 30.86 22.555L31.8724 21.5417L30.2982 19.9674L29.2849 20.9807C28.926 21.3408 28.3682 21.4124 27.9313 21.1515C27.3062 20.783 26.6397 20.5047 25.9482 20.3272C25.4568 20.2003 25.1133 19.7567 25.1133 19.2487V17.8203H22.8867V19.2487C22.8867 19.7567 22.5431 20.2003 22.0517 20.3272C21.3603 20.5047 20.6938 20.783 20.0687 21.1515C19.6338 21.4124 19.0749 21.3408 18.7151 20.9807L17.7018 19.9674L16.1275 21.5417L17.1399 22.555C17.4986 22.9139 17.5693 23.4705 17.3116 23.9074C16.9419 24.5337 16.6648 25.2013 16.4873 25.8916Z" fill="url(#paint4_linear_3786_2125)"/>
<path d="M4.99982 32.2932C4.99982 34.1348 6.49812 35.6331 8.33968 35.6331H39.5859C41.4275 35.6331 43 34.1348 43 32.2932V31.1799H4.99982V32.2932Z" fill="url(#paint5_linear_3786_2125)"/>
<defs>
<linearGradient id="paint0_linear_3786_2125" x1="37.5218" y1="37.5813" x2="35.9794" y2="46.411" gradientUnits="userSpaceOnUse">
<stop stop-color="#4742D8"/>
<stop offset="1" stop-color="#7772F4"/>
</linearGradient>
<linearGradient id="paint1_linear_3786_2125" x1="36.3621" y1="13.228" x2="34.0892" y2="15.5938" gradientUnits="userSpaceOnUse">
<stop stop-color="#4742D8"/>
<stop offset="1" stop-color="#7772F4"/>
</linearGradient>
<linearGradient id="paint2_linear_3786_2125" x1="44.9792" y1="5.29589" x2="25.5307" y2="39.8428" gradientUnits="userSpaceOnUse">
<stop stop-color="#4742D8"/>
<stop offset="1" stop-color="#7772F4"/>
</linearGradient>
<linearGradient id="paint3_linear_3786_2125" x1="27.6878" y1="24.2217" x2="23.5551" y2="30.6737" gradientUnits="userSpaceOnUse">
<stop stop-color="#4742D8"/>
<stop offset="1" stop-color="#7772F4"/>
</linearGradient>
<linearGradient id="paint4_linear_3786_2125" x1="35.0633" y1="17.1245" x2="25.6135" y2="34.8283" gradientUnits="userSpaceOnUse">
<stop stop-color="#4742D8"/>
<stop offset="1" stop-color="#7772F4"/>
</linearGradient>
<linearGradient id="paint5_linear_3786_2125" x1="44.9792" y1="30.9016" x2="43.9675" y2="39.8868" gradientUnits="userSpaceOnUse">
<stop stop-color="#4742D8"/>
<stop offset="1" stop-color="#7772F4"/>
</linearGradient>
</defs>
</svg>
