<svg width="48" height="48" viewBox="0 0 48 48" fill="none" xmlns="http://www.w3.org/2000/svg">
<path d="M34.5556 21.6696C35.2733 21.6696 35.97 21.7549 36.6667 21.8616V14.3746C36.6667 12.6682 35.6744 11.1324 34.1333 10.4712L22.5222 5.35195C21.4456 4.88268 20.2211 4.88268 19.1444 5.35195L7.53333 10.4712C5.99222 11.1538 5 12.6895 5 14.3746V22.0535C5 31.7375 11.7556 40.8028 20.8333 42.9998C21.9944 42.7225 23.1133 42.3172 24.2111 41.8267C22.7544 39.7363 21.8889 37.198 21.8889 34.4677C21.8889 27.4074 27.5678 21.6696 34.5556 21.6696Z" fill="url(#paint0_linear_3786_2117)"/>
<path opacity="0.8" d="M34.5556 25.9358C29.8901 25.9358 26.1112 29.7539 26.1112 34.4679C26.1112 39.1819 29.8901 43 34.5556 43C39.2212 43 43.0001 39.1819 43.0001 34.4679C43.0001 29.7539 39.2212 25.9358 34.5556 25.9358ZM34.5556 28.8794C35.8645 28.8794 36.9201 29.9672 36.9201 31.2684C36.9201 32.5695 35.8434 33.6573 34.5556 33.6573C33.2678 33.6573 32.1912 32.5695 32.1912 31.2684C32.1912 29.9672 33.2467 28.8794 34.5556 28.8794ZM34.5556 40.3337C32.5923 40.3337 30.8823 39.3525 29.8267 37.8381C29.9323 36.3023 33.0145 35.5344 34.5556 35.5344C36.0967 35.5344 39.179 36.3023 39.2845 37.8381C38.229 39.3525 36.519 40.3337 34.5556 40.3337Z" fill="url(#paint1_linear_3786_2117)"/>
<defs>
<linearGradient id="paint0_linear_3786_2117" x1="38.316" y1="2.62501" x2="-0.116719" y2="35.9596" gradientUnits="userSpaceOnUse">
<stop stop-color="#4742D8"/>
<stop offset="1" stop-color="#7772F4"/>
</linearGradient>
<linearGradient id="paint1_linear_3786_2117" x1="43.8797" y1="24.8693" x2="26.4537" y2="42.8202" gradientUnits="userSpaceOnUse">
<stop stop-color="#4742D8"/>
<stop offset="1" stop-color="#7772F4"/>
</linearGradient>
</defs>
</svg>
