<svg width="48" height="48" viewBox="0 0 48 48" fill="none" xmlns="http://www.w3.org/2000/svg">
<path opacity="0.8" d="M21.8479 42.9999C21.2018 42.7024 21.0129 42.1967 21.0129 41.5025C21.0328 37.9128 21.0229 34.3329 21.0328 30.7431C21.0328 30.4357 20.9533 30.2771 20.665 30.1184C18.3292 28.8293 17.037 26.836 16.9475 24.1883C16.8581 21.4712 18.0509 19.3689 20.347 17.9112C21.0626 17.455 21.7286 17.7922 21.8578 18.6351C22.0765 20.1424 22.2952 21.6398 22.5238 23.1669C23.5078 23.1669 24.4919 23.1669 25.5057 23.1669C25.625 22.3339 25.7542 21.491 25.8735 20.6581C25.9729 19.9441 26.0723 19.24 26.1816 18.526C26.291 17.8318 26.9569 17.5046 27.5832 17.8418C29.9091 19.1111 31.3901 22.0364 31.0522 24.6643C30.7341 27.1534 29.4717 28.9879 27.2551 30.168C27.0265 30.287 26.9868 30.4357 26.9868 30.6638C26.9868 34.2734 26.9768 37.883 26.9967 41.5025C26.9967 42.1967 26.8078 42.7024 26.1618 42.9999C24.7205 42.9999 23.2891 42.9999 21.8479 42.9999Z" fill="url(#paint0_linear_3786_2119)"/>
<path d="M31.6089 34.4719C31.6089 33.4306 31.599 32.3894 31.6189 31.3581C31.6189 31.1697 31.6984 30.9515 31.8177 30.8028C34.4219 27.6791 35.1773 24.1686 33.7758 20.3607C32.3644 16.5131 29.4818 14.2422 25.4065 13.6373C19.5917 12.7646 14.1844 17.0486 13.6178 22.8795C13.3296 25.8941 14.2142 28.5418 16.2022 30.8325C16.3115 30.9614 16.3811 31.1597 16.3811 31.3184C16.3911 33.4505 16.3811 35.5726 16.3911 37.7046C16.3911 37.9228 16.3414 38.0616 16.1426 38.1906C15.4766 38.617 14.8206 39.0632 14.1546 39.4995C13.5681 39.8764 13.0711 39.8268 12.5742 39.3309C11.2223 37.9823 9.86058 36.6436 8.5187 35.285C8.03165 34.7991 7.98195 34.2934 8.36961 33.7182C8.80696 33.0538 9.24431 32.3894 9.70154 31.7448C9.85064 31.5267 9.83076 31.368 9.73136 31.1399C9.39341 30.3863 9.07533 29.6227 8.78708 28.8492C8.69762 28.6211 8.58828 28.512 8.35966 28.4724C7.57442 28.3335 6.79911 28.165 6.0238 28.0162C5.33795 27.8774 5 27.4807 5 26.7767C5 24.8826 5 22.9885 5 21.0945C5 20.3706 5.32801 19.9838 6.05362 19.845C6.81899 19.6963 7.58436 19.5376 8.34973 19.3889C8.57834 19.3492 8.69762 19.2401 8.78708 19.012C9.08527 18.2286 9.41329 17.4551 9.75124 16.6916C9.85064 16.4734 9.8407 16.3147 9.70154 16.1263C9.25425 15.4817 8.82684 14.8372 8.39942 14.1827C7.98195 13.5579 8.02171 13.082 8.54852 12.5564C9.8904 11.2177 11.2323 9.87892 12.5841 8.54019C13.091 8.03445 13.588 7.98487 14.1943 8.38153C14.8703 8.81786 15.5462 9.2641 16.2022 9.72026C16.3811 9.83926 16.5203 9.83926 16.7091 9.75001C17.4844 9.41285 18.2597 9.0856 19.045 8.78811C19.2835 8.69886 19.4028 8.57986 19.4426 8.33195C19.5817 7.55846 19.7408 6.77505 19.8998 6.00157C20.039 5.33716 20.4366 5 21.1224 5C23.0309 5 24.9493 5 26.8577 5C27.5634 5 27.9511 5.32724 28.1002 6.03132C28.2592 6.8048 28.4183 7.57829 28.5674 8.3617C28.6071 8.56994 28.6966 8.68894 28.9152 8.76827C29.7104 9.07569 30.5056 9.40293 31.2809 9.74009C31.4897 9.82934 31.6288 9.82934 31.8177 9.70043C32.4737 9.25418 33.1397 8.81786 33.7957 8.38153C34.412 7.97495 34.899 8.02453 35.4258 8.55011C36.7677 9.87892 38.0997 11.2077 39.4316 12.5365C39.9584 13.0621 39.9982 13.5381 39.5906 14.1629C39.1533 14.8273 38.7159 15.4817 38.2686 16.1362C38.1394 16.3247 38.1494 16.4734 38.2388 16.6717C38.5768 17.4551 38.9048 18.2385 39.2129 19.0319C39.2924 19.2302 39.3918 19.3194 39.6006 19.3591C40.3958 19.5079 41.181 19.6665 41.9762 19.8351C42.6819 19.9838 43 20.3706 43 21.0747C43 22.9687 43 24.8628 43 26.7568C43 27.4708 42.6819 27.8576 41.9861 28.0063C41.2108 28.165 40.4256 28.3236 39.6503 28.4625C39.4217 28.5021 39.3024 28.6013 39.2129 28.8294C38.9147 29.6128 38.5867 30.3863 38.2488 31.1597C38.1494 31.3779 38.1593 31.5366 38.2885 31.725C38.7458 32.3696 39.1831 33.034 39.6105 33.6984C39.9982 34.2934 39.9485 34.7892 39.4415 35.2949C38.0997 36.6337 36.7578 37.9724 35.406 39.3111C34.899 39.8169 34.402 39.8565 33.7957 39.4698C33.1297 39.0335 32.4638 38.5971 31.8177 38.1509C31.6984 38.0716 31.599 37.8831 31.599 37.7443C31.6089 36.6535 31.6089 35.5627 31.6089 34.4719Z" fill="url(#paint1_linear_3786_2119)"/>
<defs>
<linearGradient id="paint0_linear_3786_2119" x1="31.8374" y1="16.1262" x2="9.3585" y2="29.2219" gradientUnits="userSpaceOnUse">
<stop stop-color="#4742D8"/>
<stop offset="1" stop-color="#7772F4"/>
</linearGradient>
<linearGradient id="paint1_linear_3786_2119" x1="44.9792" y1="2.82828" x2="9.77478" y2="42.8992" gradientUnits="userSpaceOnUse">
<stop stop-color="#4742D8"/>
<stop offset="1" stop-color="#7772F4"/>
</linearGradient>
</defs>
</svg>
