<svg width="48" height="48" viewBox="0 0 48 48" fill="none" xmlns="http://www.w3.org/2000/svg">
<path d="M41.4691 17.4243H43.0002C42.1651 7.84118 33.3962 9.64672 33.3962 9.64672L10.2909 12.5633C5.97607 15.0633 6.11526 19.5076 6.11526 19.9243L28.9422 19.5076C29.2205 24.7853 31.03 28.2575 34.9273 28.6741C36.5975 28.813 37.9894 27.8408 38.9637 26.7297C40.2164 25.202 40.7732 23.3964 40.9124 21.452C41.3299 12.98 36.1799 11.5911 35.7624 11.4522L35.9016 10.8967C40.7732 12.2855 41.3299 17.1466 41.4691 17.4243ZM39.2421 19.7854C39.2421 22.5631 37.711 24.6464 35.9016 24.6464C34.0921 24.6464 32.5611 22.4242 32.5611 19.7854C32.5611 17.0077 34.0921 14.9244 35.9016 14.9244C37.711 14.9244 39.2421 17.1466 39.2421 19.7854Z" fill="url(#paint0_linear_3786_2121)"/>
<g opacity="0.8">
<path d="M31.1679 28.3952C27.549 24.923 27.549 21.4509 27.549 21.1731L8.48022 21.312C9.03698 26.4508 13.0734 26.5897 13.3518 26.5897C14.0478 27.9785 15.1613 27.9785 15.3005 27.9785L14.6045 29.9229C15.9964 30.4785 17.1099 31.4507 17.1099 32.9784V33.1173L18.7802 28.673C20.7288 28.9507 21.2856 28.1174 21.2856 27.9785L31.1679 28.3952Z" fill="url(#paint1_linear_3786_2121)"/>
<path d="M15.5798 30.0619C15.1623 29.9231 14.7447 29.7842 14.3271 29.7842C12.5177 29.7842 10.9866 31.3119 10.9866 33.1174C10.9866 33.1174 10.9866 33.1174 10.9866 33.2563C10.9866 34.3674 11.5434 35.3396 12.3785 35.8952C12.9353 36.3118 13.492 36.4507 14.188 36.4507C15.9974 36.4507 17.3893 35.0618 17.5285 33.3952V33.2563C17.6677 31.7286 16.8325 30.6175 15.5798 30.0619ZM14.3271 35.0618C14.188 35.0618 14.0488 35.0618 14.0488 35.0618C13.0745 34.923 12.3785 34.0896 12.3785 33.1174C12.3785 32.9786 12.3785 32.7008 12.5177 32.5619C12.7961 31.7286 13.492 31.0341 14.4663 31.0341C14.7447 31.0341 15.0231 31.173 15.3015 31.173C15.9974 31.4508 16.415 32.1452 16.415 32.9785C16.415 33.2563 16.2758 33.673 16.1366 33.9508C15.719 34.6452 15.1623 35.0618 14.3271 35.0618Z" fill="url(#paint2_linear_3786_2121)"/>
<path d="M11.542 32.8376L5.00018 35.7542C5.00018 36.8653 5.27855 37.9764 5.8353 38.9486L12.7947 35.8931L11.542 32.8376Z" fill="url(#paint3_linear_3786_2121)"/>
</g>
<defs>
<linearGradient id="paint0_linear_3786_2121" x1="44.9213" y1="8.31298" x2="29.2581" y2="39.6715" gradientUnits="userSpaceOnUse">
<stop stop-color="#4742D8"/>
<stop offset="1" stop-color="#7772F4"/>
</linearGradient>
<linearGradient id="paint1_linear_3786_2121" x1="32.4147" y1="20.4266" x2="22.6007" y2="39.8817" gradientUnits="userSpaceOnUse">
<stop stop-color="#4742D8"/>
<stop offset="1" stop-color="#7772F4"/>
</linearGradient>
<linearGradient id="paint2_linear_3786_2121" x1="17.8851" y1="29.3675" x2="11.0761" y2="36.338" gradientUnits="userSpaceOnUse">
<stop stop-color="#4742D8"/>
<stop offset="1" stop-color="#7772F4"/>
</linearGradient>
<linearGradient id="paint3_linear_3786_2121" x1="13.2007" y1="32.4557" x2="7.19989" y2="40.4221" gradientUnits="userSpaceOnUse">
<stop stop-color="#4742D8"/>
<stop offset="1" stop-color="#7772F4"/>
</linearGradient>
</defs>
</svg>
