<svg width="48" height="48" viewBox="0 0 48 48" fill="none" xmlns="http://www.w3.org/2000/svg">
<path fill-rule="evenodd" clip-rule="evenodd" d="M30.2858 29.5901L35.0328 32.3769L35.2193 32.2446C36.0477 31.6567 37.0394 31.3382 38.0579 31.3329C39.0891 31.3291 40.0956 31.6465 40.9352 32.2404C41.7747 32.8343 42.4052 33.6747 42.7374 34.643C43.0697 35.6114 43.087 36.6587 42.787 37.6374C42.487 38.616 41.8848 39.4765 41.0653 40.0975C40.2458 40.7184 39.2505 41.0684 38.2197 41.0982C37.1889 41.1279 36.1747 40.8358 35.3203 40.2632C34.4658 39.6905 33.8142 38.8662 33.4574 37.9065C33.1005 36.9468 33.0565 35.9002 33.3315 34.9143L33.403 34.6578L28.8939 31.9936L28.7004 32.1844C27.4485 33.4188 25.755 34.1117 23.9898 34.1117C22.2246 34.1117 20.5311 33.4188 19.2792 32.1844L19.0857 31.9936L14.5731 34.6598L14.6494 34.9191C14.7738 35.3416 14.8401 35.7789 14.8463 36.219C14.8459 37.1841 14.5572 38.1274 14.0166 38.9298C13.4756 39.7329 12.7067 40.3589 11.8071 40.7285C10.9074 41.0982 9.9175 41.1949 8.96246 41.0064C8.00741 40.818 7.13015 40.3529 6.4416 39.6699C5.75305 38.9869 5.28415 38.1167 5.09418 37.1694C4.90421 36.222 5.00171 35.2401 5.37435 34.3477C5.74699 33.4553 6.37803 32.6926 7.18768 32.156C7.99709 31.6195 8.94866 31.3331 9.92212 31.3329C10.9405 31.3383 11.9321 31.6568 12.7603 32.2446L12.9467 32.3769L17.6938 29.5901L17.6076 29.3248C17.4154 28.7332 17.3145 28.1162 17.308 27.4946C17.3134 26.0297 17.8078 24.6079 18.714 23.4512C19.6208 22.2939 20.8887 21.4675 22.3193 21.101L22.5831 21.0335V16.4702L22.3487 16.3879C21.2537 16.0039 20.3308 15.2483 19.7431 14.2546C19.1555 13.2609 18.9409 12.0932 19.1373 10.9577C19.3337 9.82229 19.9284 8.79227 20.8164 8.04972C21.7044 7.30717 22.8284 6.8999 23.9898 6.8999C25.1512 6.8999 26.2752 7.30717 27.1632 8.04972C28.0511 8.79227 28.6459 9.82229 28.8423 10.9577C29.0387 12.0932 28.8241 13.2609 28.2364 14.2546C27.6488 15.2483 26.7259 16.0039 25.6309 16.3879L25.3965 16.4702V21.0335L25.6602 21.101C27.0909 21.4675 28.3588 22.2939 29.2655 23.4512C30.1718 24.6079 30.6662 26.0297 30.6715 27.4946C30.6651 28.1162 30.5641 28.7332 30.372 29.3248L30.2858 29.5901Z" fill="url(#paint0_linear_3786_2114)"/>
<defs>
<linearGradient id="paint0_linear_3786_2114" x1="44.9792" y1="4.76238" x2="10.4043" y2="44.7469" gradientUnits="userSpaceOnUse">
<stop stop-color="#4742D8"/>
<stop offset="1" stop-color="#7772F4"/>
</linearGradient>
</defs>
</svg>
