<svg width="48" height="48" viewBox="0 0 48 48" fill="none" xmlns="http://www.w3.org/2000/svg">
<path opacity="0.8" d="M27.2571 36.152C35.9516 36.152 42.9999 29.1784 42.9999 20.576C42.9999 11.9736 35.9516 5 27.2571 5C18.5625 5 11.5142 11.9736 11.5142 20.576C11.5142 29.1784 18.5625 36.152 27.2571 36.152Z" fill="url(#paint0_linear_3786_2127)"/>
<path d="M20.7429 43.0001C29.4374 43.0001 36.4857 36.0265 36.4857 27.4241C36.4857 18.8218 29.4374 11.8481 20.7429 11.8481C12.0483 11.8481 5 18.8218 5 27.4241C5 36.0265 12.0483 43.0001 20.7429 43.0001Z" fill="url(#paint1_linear_3786_2127)"/>
<path d="M26.3071 29.7067C26.3071 30.9152 25.8999 31.8551 25.2214 32.3922C24.5428 32.9293 23.4571 33.3321 21.9642 33.3321H21.2857V34.4064H19.9285V33.3321H15.5857V30.9152H19.9285V28.7667H18.9785C17.7571 28.7667 16.8071 28.4982 16.1285 27.8268C15.45 27.2897 15.1785 26.3498 15.1785 25.1413C15.1785 23.7985 15.5857 22.8586 16.2642 22.3215C16.9428 21.7844 18.0285 21.3816 19.5214 21.3816H20.0642V20.3074H21.4214V21.3816H25.7642V23.9328H21.4214V26.3498H22.5071C23.8642 26.3498 24.95 26.6183 25.4928 27.1554C26.0357 27.5583 26.3071 28.4982 26.3071 29.7067ZM20.0642 26.2155V23.7985H19.6571C19.1142 23.7985 18.7071 23.9328 18.4357 24.0671C18.1642 24.3357 18.0285 24.6042 18.0285 25.007C18.0285 25.4099 18.1642 25.6784 18.4357 25.8127C18.7071 25.947 18.9785 26.0812 19.3857 26.0812H20.0642V26.2155ZM23.4571 29.7067C23.4571 29.3039 23.3214 29.0353 23.1857 28.901C22.9142 28.7668 22.5071 28.6325 21.9642 28.6325H21.2857V30.7809H21.6928C22.2357 30.7809 22.7785 30.6466 22.9142 30.5123C23.3214 30.3781 23.4571 30.1095 23.4571 29.7067Z" fill="white"/>
<defs>
<linearGradient id="paint0_linear_3786_2127" x1="44.6398" y1="3.053" x2="12.8541" y2="36.4904" gradientUnits="userSpaceOnUse">
<stop stop-color="#4742D8"/>
<stop offset="1" stop-color="#7772F4"/>
</linearGradient>
<linearGradient id="paint1_linear_3786_2127" x1="38.1256" y1="9.90115" x2="6.33994" y2="43.3386" gradientUnits="userSpaceOnUse">
<stop stop-color="#4742D8"/>
<stop offset="1" stop-color="#7772F4"/>
</linearGradient>
</defs>
</svg>
