<svg width="48" height="48" viewBox="0 0 48 48" fill="none" xmlns="http://www.w3.org/2000/svg">
<path d="M5 42.9806C5 30.3139 5 17.6667 5 5C5.73786 5 6.43689 5 7.19417 5C7.19417 5.71881 7.19417 6.39877 7.19417 7.13701C7.95146 7.13701 8.65049 7.13701 9.40777 7.13701C9.40777 6.43763 9.40777 5.75767 9.40777 5.01943C19.1359 5.01943 28.8058 5.01943 38.5534 5.01943C38.5534 5.69939 38.5534 6.4182 38.5534 7.15644C39.3107 7.15644 40.0097 7.15644 40.767 7.15644C40.767 6.45706 40.767 5.75767 40.767 5.01943C41.5437 5.01943 42.2427 5.01943 43 5.01943C43 17.6861 43 30.3139 43 43C42.301 43 41.6019 43 40.8252 43C40.8252 34.8211 40.8252 26.6227 40.8252 18.4049C40.068 18.4049 39.3689 18.4049 38.6117 18.4049C38.6117 19.1043 38.6117 19.8037 38.6117 20.5613C28.8641 20.5613 19.1942 20.5613 9.46602 20.5613C9.46602 19.862 9.46602 19.1626 9.46602 18.4243C8.70874 18.4243 8.00971 18.4243 7.25243 18.4243C7.25243 26.6033 7.25243 34.7822 7.25243 43C6.47573 42.9806 5.7767 42.9806 5 42.9806ZM34.0874 9.4683C27.3301 9.4683 20.6311 9.4683 13.9515 9.4683C13.9515 10.2065 13.9515 10.8865 13.9515 11.6053C20.6893 11.6053 27.3689 11.6053 34.0874 11.6053C34.0874 10.8865 34.0874 10.2065 34.0874 9.4683ZM16.165 16.0542C21.4272 16.0542 26.6311 16.0542 31.8544 16.0542C31.8544 15.316 31.8544 14.636 31.8544 13.9172C26.6117 13.9172 21.4078 13.9172 16.165 13.9172C16.165 14.636 16.165 15.3354 16.165 16.0542ZM7.25243 16.0542C7.99029 16.0542 8.68932 16.0542 9.38835 16.0542C9.38835 13.82 9.38835 11.6247 9.38835 9.44888C8.65049 9.44888 7.97087 9.44888 7.25243 9.44888C7.25243 11.6636 7.25243 13.82 7.25243 16.0542ZM38.6311 9.44888C38.6311 11.7025 38.6311 13.8783 38.6311 16.0542C39.3884 16.0542 40.0874 16.0542 40.767 16.0542C40.767 13.82 40.767 11.6636 40.767 9.44888C40.0485 9.44888 39.3689 9.44888 38.6311 9.44888Z" fill="url(#paint0_linear_3786_2120)"/>
<path opacity="0.8" d="M22.8643 28.4294C23.6799 28.4294 24.3401 28.4294 25.0974 28.4294C25.0974 26.5644 25.0974 24.7188 25.0974 22.7954C27.2139 22.7954 29.2333 22.776 31.2721 22.8149C31.4469 22.8149 31.6799 23.184 31.7575 23.4171C33.9323 29.0899 36.1071 34.7822 38.2818 40.4744C38.5925 41.2709 38.8838 42.0869 39.2333 42.9611C34.5148 42.9611 29.874 42.9611 25.1556 42.9611C25.1556 41.1349 25.1556 39.2893 25.1556 37.4049C24.3789 37.4049 23.6993 37.4049 22.9226 37.4049C22.9226 39.2699 22.9226 41.0961 22.9226 42.9805C18.2236 42.9805 13.641 42.9805 8.96143 42.9805C9.19444 42.2034 9.38861 41.4457 9.66045 40.7464C11.8546 34.957 14.0682 29.1871 16.2624 23.3977C16.4372 22.9314 16.6313 22.7566 17.1556 22.7566C19.0391 22.7954 20.9226 22.776 22.9032 22.776C22.8643 24.6799 22.8643 26.5255 22.8643 28.4294ZM25.0779 30.7413C24.3401 30.7413 23.641 30.7413 22.9226 30.7413C22.9226 32.2177 22.9226 33.6359 22.9226 35.093C23.6605 35.093 24.3595 35.093 25.0779 35.093C25.0779 33.6165 25.0779 32.1983 25.0779 30.7413Z" fill="url(#paint1_linear_3786_2120)"/>
<defs>
<linearGradient id="paint0_linear_3786_2120" x1="44.9792" y1="2.625" x2="6.1875" y2="43" gradientUnits="userSpaceOnUse">
<stop stop-color="#4742D8"/>
<stop offset="1" stop-color="#7772F4"/>
</linearGradient>
<linearGradient id="paint1_linear_3786_2120" x1="40.8099" y1="21.4926" x2="22.0248" y2="50.7584" gradientUnits="userSpaceOnUse">
<stop stop-color="#4742D8"/>
<stop offset="1" stop-color="#7772F4"/>
</linearGradient>
</defs>
</svg>
